{
copyright = "Copyright (c) 2015, Cadson Demak (info@cadsondemak.com)";
customParameters = (
{
name = vendorID;
value = CDK;
},
{
name = description;
value = "Copyright (c) 2015, Cadson Demak (info@cadsondemak.com)";
},
{
name = license;

glyphs = (
{
glyphname = A;
lastChange = "2015-11-30 01:35:33 +0000";
layers = (
{
layerId = "16D28EA7-B5BE-4679-9A6B-BACE87874A93";
name = Bold;
paths = (
{
closed = 1;
nodes = (
"207 0 LINE",
"263 144 LINE",
"521 144 LINE",
"577 0 LINE",
"758 0 LINE",
"479 699 LINE",
"305 699 LINE",
"25 0 LINE"
);
},
{
closed = 1;
nodes = (
"392 515 LINE",
"477 280 LINE",
"306 280 LINE"
);
}
);
width = 783;
}
);
leftKerningGroup = A;
note = A;
rightKerningGroup = A;
unicode = 0041;
},
{
glyphname = Aacute;
lastChange = "2015-11-30 01:35:32 +0000";
layers = (
{
layerId = "16D28EA7-B5BE-4679-9A6B-BACE87874A93";
name = Bold;
paths = (
{
closed = 1;
nodes = (
"207 0 LINE",
"263 144 LINE",
"521 144 LINE",
"577 0 LINE",
"758 0 LINE",
"479 699 LINE",
"305 699 LINE",
"25 0 LINE"
);
},
{
closed = 1;
nodes = (
"392 515 LINE",
"477 280 LINE",
"306 280 LINE"
);
},
{
closed = 1;
nodes = (
"477 742 LINE",
"568 920 LINE",
"383 920 LINE",
"314 742 LINE"
);
}
);
width = 783;
}
);
leftKerningGroup = A;
note = Aacute;
rightKerningGroup = A;
unicode = 00C1;
},
{
glyphname = Abreve;
lastChange = "2015-11-30 01:35:33 +0000";
layers = (
{
layerId = "16D28EA7-B5BE-4679-9A6B-BACE87874A93";
name = Bold;
paths = (
{
closed = 1;
nodes = (
"207 0 LINE",
"263 144 LINE",
"521 144 LINE",
"577 0 LINE",
"758 0 LINE",
"479 699 LINE",
"305 699 LINE",
"25 0 LINE"
);
},
{
closed = 1;
nodes = (
"392 515 LINE",
"477 280 LINE",
"306 280 LINE"
);
},
{
closed = 1;
nodes = (
"509 742 OFFCURVE",
"575 810 OFFCURVE",
"575 915 CURVE",
"444 915 LINE",
"444 874 OFFCURVE",
"425 853 OFFCURVE",
"392 853 CURVE SMOOTH",
"358 853 OFFCURVE",
"340 874 OFFCURVE",
"340 915 CURVE",
"209 915 LINE",
"209 810 OFFCURVE",
"275 742 OFFCURVE",
"392 742 CURVE SMOOTH"
);
}
);
width = 783;
}
);
leftKerningGroup = A;
note = Abreve;
rightKerningGroup = A;
unicode = 0102;
},
{
glyphname = Abreveacute;
lastChange = "2015-11-30 01:35:33 +0000";
layers = (
{
layerId = "16D28EA7-B5BE-4679-9A6B-BACE87874A93";
name = Bold;
paths = (
{
closed = 1;
nodes = (
"207 0 LINE",
"263 144 LINE",
"521 144 LINE",
"577 0 LINE",
"758 0 LINE",
"479 699 LINE",
"305 699 LINE",
"25 0 LINE"
);
},
{
closed = 1;
nodes = (
"392 515 LINE",
"477 280 LINE",
"306 280 LINE"
);
},
{
closed = 1;
nodes = (
"496 742 OFFCURVE",
"565 798 OFFCURVE",
"565 892 CURVE",
"449 892 LINE",
"449 854 OFFCURVE",
"430 838 OFFCURVE",
"392 838 CURVE SMOOTH",
"354 838 OFFCURVE",
"334 854 OFFCURVE",
"334 892 CURVE",
"219 892 LINE",
"219 798 OFFCURVE",
"288 742 OFFCURVE",
"392 742 CURVE SMOOTH"
);
},
{
closed = 1;
nodes = (
"455 914 LINE",
"525 1041 LINE",
"381 1041 LINE",
"331 914 LINE"
);
}
);
width = 783;
}
);
leftKerningGroup = A;
note = Abreveacute;
rightKerningGroup = A;
unicode = 1EAE;
},
{
glyphname = Abrevedotbelow;
lastChange = "2015-11-30 01:35:34 +0000";
layers = (
{
layerId = "16D28EA7-B5BE-4679-9A6B-BACE87874A93";
name = Bold;
paths = (
{
closed = 1;
nodes = (
"207 0 LINE",
"263 144 LINE",
"521 144 LINE",
"577 0 LINE",
"758 0 LINE",
"479 699 LINE",
"305 699 LINE",
"25 0 LINE"
);
},
{
closed = 1;
nodes = (
"435 -200 OFFCURVE",
"469 -166 OFFCURVE",
"469 -123 CURVE SMOOTH",
"469 -80 OFFCURVE",
"435 -46 OFFCURVE",
"393 -46 CURVE SMOOTH",
"351 -46 OFFCURVE",
"315 -80 OFFCURVE",
"315 -123 CURVE SMOOTH",
"315 -166 OFFCURVE",
"351 -200 OFFCURVE",
"393 -200 CURVE SMOOTH"
);
},
{
closed = 1;
nodes = (
"392 515 LINE",
"477 280 LINE",
"306 280 LINE"
);
},
{
closed = 1;
nodes = (
"509 742 OFFCURVE",
"575 810 OFFCURVE",
"575 915 CURVE",
"444 915 LINE",
"444 874 OFFCURVE",
"425 853 OFFCURVE",
"392 853 CURVE SMOOTH",
"358 853 OFFCURVE",
"340 874 OFFCURVE",
"340 915 CURVE",
"209 915 LINE",
"209 810 OFFCURVE",
"275 742 OFFCURVE",
"392 742 CURVE SMOOTH"
);
}
);
width = 783;
}
);
leftKerningGroup = A;
note = Abrevedotbelow;
rightKerningGroup = A;
unicode = 1EB6;
},
{
glyphname = Abrevegrave;
lastChange = "2015-11-30 01:35:33 +0000";
layers = (
{
layerId = "16D28EA7-B5BE-4679-9A6B-BACE87874A93";
name = Bold;
paths = (
{
closed = 1;
nodes = (
"207 0 LINE",
"263 144 LINE",
"521 144 LINE",
"577 0 LINE",
"758 0 LINE",
"479 699 LINE",
"305 699 LINE",
"25 0 LINE"
);
},
{
closed = 1;
nodes = (
"392 515 LINE",
"477 280 LINE",
"306 280 LINE"
);
},
{
closed = 1;
nodes = (
"496 742 OFFCURVE",
"565 798 OFFCURVE",
"565 892 CURVE",
"450 892 LINE",
"450 854 OFFCURVE",
"430 838 OFFCURVE",
"392 838 CURVE SMOOTH",
"354 838 OFFCURVE",
"335 854 OFFCURVE",
"335 892 CURVE",
"219 892 LINE",
"219 798 OFFCURVE",
"288 742 OFFCURVE",
"392 742 CURVE SMOOTH"
);
},
{
closed = 1;
nodes = (
"453 914 LINE",
"403 1041 LINE",
"259 1041 LINE",
"329 914 LINE"
);
}
);
width = 783;
}
);
leftKerningGroup = A;
note = Abrevegrave;
rightKerningGroup = A;
unicode = 1EB0;
},
{
glyphname = Abrevehookabove;
lastChange = "2015-11-30 01:35:33 +0000";
layers = (
{
layerId = "16D28EA7-B5BE-4679-9A6B-BACE87874A93";
name = Bold;
paths = (
{
closed = 1;
nodes = (
"207 0 LINE",
"263 144 LINE",
"521 144 LINE",
"577 0 LINE",
"758 0 LINE",
"479 699 LINE",
"305 699 LINE",
"25 0 LINE"
);
},
{
closed = 1;
nodes = (
"392 515 LINE",
"477 280 LINE",
"306 280 LINE"
);
},
{
closed = 1;
nodes = (
"496 742 OFFCURVE",
"565 798 OFFCURVE",
"565 892 CURVE",
"450 892 LINE",
"450 854 OFFCURVE",
"430 838 OFFCURVE",
"392 838 CURVE SMOOTH",
"354 838 OFFCURVE",
"335 854 OFFCURVE",
"335 892 CURVE",
"219 892 LINE",
"219 798 OFFCURVE",
"288 742 OFFCURVE",
"392 742 CURVE SMOOTH"
);
},
{
closed = 1;
nodes = (
"450 902 LINE",
"450 921 LINE",
"491 930 OFFCURVE",
"511 953 OFFCURVE",
"511 990 CURVE SMOOTH",
"511 1034 OFFCURVE",
"476 1063 OFFCURVE",
"402 1063 CURVE SMOOTH",
"375 1063 OFFCURVE",
"338 1058 OFFCURVE",
"317 1051 CURVE",
"317 992 LINE",
"324 996 OFFCURVE",
"341 999 OFFCURVE",
"353 999 CURVE SMOOTH",
"380 999 OFFCURVE",
"393 993 OFFCURVE",
"393 976 CURVE SMOOTH",
"393 956 OFFCURVE",
"374 950 OFFCURVE",
"342 950 CURVE",
"342 902 LINE"
);
}
);
width = 783;
}
);
leftKerningGroup = A;
note = Abrevehookabove;
rightKerningGroup = A;
unicode = 1EB2;
},
{
glyphname = Abrevetilde;
lastChange = "2015-11-30 01:35:33 +0000";
layers = (
{
layerId = "16D28EA7-B5BE-4679-9A6B-BACE87874A93";
name = Bold;
paths = (
{
closed = 1;
nodes = (
"207 0 LINE",
"263 144 LINE",
"521 144 LINE",
"577 0 LINE",
"758 0 LINE",
"479 699 LINE",
"305 699 LINE",
"25 0 LINE"
);
},
{
closed = 1;
nodes = (
"392 515 LINE",
"477 280 LINE",
"306 280 LINE"
);
},
{
closed = 1;
nodes = (
"496 742 OFFCURVE",
"565 798 OFFCURVE",
"565 892 CURVE",
"450 892 LINE",
"450 854 OFFCURVE",
"430 838 OFFCURVE",
"392 838 CURVE SMOOTH",
"354 838 OFFCURVE",
"335 854 OFFCURVE",
"335 892 CURVE",
"219 892 LINE",
"219 798 OFFCURVE",
"288 742 OFFCURVE",
"392 742 CURVE SMOOTH"
);
},
{
closed = 1;
nodes = (
"508 922 OFFCURVE",
"536 932 OFFCURVE",
"555 955 CURVE",
"555 1057 LINE",
"531 1028 OFFCURVE",
"504 1016 OFFCURVE",
"472 1016 CURVE SMOOTH",
"421 1016 OFFCURVE",
"365 1058 OFFCURVE",
"312 1058 CURVE SMOOTH",
"276 1058 OFFCURVE",
"248 1048 OFFCURVE",
"229 1024 CURVE",
"229 923 LINE",
"253 952 OFFCURVE",
"280 964 OFFCURVE",
"312 964 CURVE SMOOTH",
"362 964 OFFCURVE",
"415 922 OFFCURVE",
"472 922 CURVE SMOOTH"
);
}
);
width = 783;
}
);
leftKerningGroup = A;
note = Abrevetilde;
rightKerningGroup = A;
unicode = 1EB4;
},
{
glyphname = Acaron;
lastChange = "2015-11-30 01:35:33 +0000";
layers = (
{
layerId = "16D28EA7-B5BE-4679-9A6B-BACE87874A93";
name = Bold;
paths = (
{
closed = 1;
nodes = (
"207 0 LINE",
"263 144 LINE",
"521 144 LINE",
"577 0 LINE",
"758 0 LINE",
"479 699 LINE",
"305 699 LINE",
"25 0 LINE"
);
},
{
closed = 1;
nodes = (
"392 515 LINE",
"477 280 LINE",
"306 280 LINE"
);
},
{
closed = 1;
nodes = (
"471 742 LINE",
"627 923 LINE",
"453 923 LINE",
"393 838 LINE",
"333 923 LINE",
"158 923 LINE",
"314 742 LINE"
);
}
);
width = 783;
}
);
leftKerningGroup = A;
note = Acaron;
rightKerningGroup = A;
unicode = 01CD;
},
{
glyphname = Acircumflex;
lastChange = "2015-11-30 01:35:34 +0000";
layers = (
{
layerId = "16D28EA7-B5BE-4679-9A6B-BACE87874A93";
name = Bold;
paths = (
{
closed = 1;
nodes = (
"207 0 LINE",
"263 144 LINE",
"521 144 LINE",
"577 0 LINE",
"758 0 LINE",
"479 699 LINE",
"305 699 LINE",
"25 0 LINE"
);
},
{
closed = 1;
nodes = (
"392 515 LINE",
"477 280 LINE",
"306 280 LINE"
);
},
{
closed = 1;
nodes = (
"333 742 LINE",
"393 827 LINE",
"453 742 LINE",
"627 742 LINE",
"471 923 LINE",
"314 923 LINE",
"158 742 LINE"
);
}
);
width = 783;
}
);
leftKerningGroup = A;
note = Acircumflex;
rightKerningGroup = A;
unicode = 00C2;
},
{
glyphname = Acircumflexacute;
lastChange = "2015-11-30 01:35:33 +0000";
layers = (
{
layerId = "16D28EA7-B5BE-4679-9A6B-BACE87874A93";
name = Bold;
paths = (
{
closed = 1;
nodes = (
"207 0 LINE",
"263 144 LINE",
"521 144 LINE",
"577 0 LINE",
"758 0 LINE",
"479 699 LINE",
"305 699 LINE",
"25 0 LINE"
);
},
{
closed = 1;
nodes = (
"392 515 LINE",
"477 280 LINE",
"306 280 LINE"
);
},
{
closed = 1;
nodes = (
"340 742 LINE",
"398 809 LINE",
"456 742 LINE",
"612 742 LINE",
"460 899 LINE",
"336 899 LINE",
"184 742 LINE"
);
},
{
closed = 1;
nodes = (
"667 858 LINE",
"748 997 LINE",
"586 997 LINE",
"527 858 LINE"
);
}
);
width = 781;
}
);
leftKerningGroup = A;
note = Acircumflexacute;
rightKerningGroup = A;
unicode = 1EA4;
},
{
glyphname = Acircumflexdotbelow;
lastChange = "2015-11-30 01:35:33 +0000";
layers = (
{
layerId = "16D28EA7-B5BE-4679-9A6B-BACE87874A93";
name = Bold;
paths = (
{
closed = 1;
nodes = (
"207 0 LINE",
"263 144 LINE",
"521 144 LINE",
"577 0 LINE",
"758 0 LINE",
"479 699 LINE",
"305 699 LINE",
"25 0 LINE"
);
},
{
closed = 1;
nodes = (
"435 -200 OFFCURVE",
"469 -166 OFFCURVE",
"469 -123 CURVE SMOOTH",
"469 -80 OFFCURVE",
"435 -46 OFFCURVE",
"393 -46 CURVE SMOOTH",
"351 -46 OFFCURVE",
"315 -80 OFFCURVE",
"315 -123 CURVE SMOOTH",
"315 -166 OFFCURVE",
"351 -200 OFFCURVE",
"393 -200 CURVE SMOOTH"
);
},
{
closed = 1;
nodes = (
"392 515 LINE",
"477 280 LINE",
"306 280 LINE"
);
},
{
closed = 1;
nodes = (
"333 742 LINE",
"393 827 LINE",
"453 742 LINE",
"627 742 LINE",
"471 923 LINE",
"314 923 LINE",
"158 742 LINE"
);
}
);
width = 783;
}
);
leftKerningGroup = A;
note = Acircumflexdotbelow;
rightKerningGroup = A;
unicode = 1EAC;
},
{
glyphname = Acircumflexgrave;
lastChange = "2015-11-30 01:35:32 +0000";
layers = (
{
layerId = "16D28EA7-B5BE-4679-9A6B-BACE87874A93";
name = Bold;
paths = (
{
closed = 1;
nodes = (
"200 0 LINE",
"256 144 LINE",
"514 144 LINE",
"570 0 LINE",
"751 0 LINE",
"472 699 LINE",
"298 699 LINE",
"18 0 LINE"
);
},
{
closed = 1;
nodes = (
"385 515 LINE",
"470 280 LINE",
"299 280 LINE"
);
},
{
closed = 1;
nodes = (
"261 858 LINE",
"202 997 LINE",
"40 997 LINE",
"121 858 LINE"
);
},
{
closed = 1;
nodes = (
"332 742 LINE",
"390 809 LINE",
"448 742 LINE",
"604 742 LINE",
"452 899 LINE",
"328 899 LINE",
"176 742 LINE"
);
}
);
width = 776;
}
);
leftKerningGroup = A;
note = Acircumflexgrave;
rightKerningGroup = A;
unicode = 1EA6;
},
{
glyphname = Acircumflexhookabove;
lastChange = "2015-11-30 01:35:34 +0000";
layers = (
{
layerId = "16D28EA7-B5BE-4679-9A6B-BACE87874A93";
name = Bold;
paths = (
{
closed = 1;
nodes = (
"207 0 LINE",
"263 144 LINE",
"521 144 LINE",
"577 0 LINE",
"758 0 LINE",
"479 699 LINE",
"305 699 LINE",
"25 0 LINE"
);
},
{
closed = 1;
nodes = (
"392 515 LINE",
"477 280 LINE",
"306 280 LINE"
);
},
{
closed = 1;
nodes = (
"332 742 LINE",
"390 809 LINE",
"448 742 LINE",
"604 742 LINE",
"452 899 LINE",
"328 899 LINE",
"176 742 LINE"
);
},
{
closed = 1;
nodes = (
"630 847 LINE",
"630 872 LINE",
"668 881 OFFCURVE",
"691 904 OFFCURVE",
"691 937 CURVE SMOOTH",
"691 981 OFFCURVE",
"653 1011 OFFCURVE",
"583 1011 CURVE SMOOTH",
"556 1011 OFFCURVE",
"518 1005 OFFCURVE",
"497 999 CURVE",
"497 940 LINE",
"506 944 OFFCURVE",
"522 947 OFFCURVE",
"534 947 CURVE SMOOTH",
"561 947 OFFCURVE",
"574 940 OFFCURVE",
"574 924 CURVE SMOOTH",
"574 904 OFFCURVE",
"555 898 OFFCURVE",
"522 898 CURVE",
"522 847 LINE"
);
}
);
width = 783;
}
);
leftKerningGroup = A;
note = Acircumflexhookabove;
rightKerningGroup = A;
unicode = 1EA8;
},
{
glyphname = Acircumflextilde;
lastChange = "2015-11-30 01:35:33 +0000";
layers = (
{
layerId = "16D28EA7-B5BE-4679-9A6B-BACE87874A93";
name = Bold;
paths = (
{
closed = 1;
nodes = (
"207 0 LINE",
"263 144 LINE",
"521 144 LINE",
"577 0 LINE",
"758 0 LINE",
"479 699 LINE",
"305 699 LINE",
"25 0 LINE"
);
},
{
closed = 1;
nodes = (
"392 515 LINE",
"477 280 LINE",
"306 280 LINE"
);
},
{
closed = 1;
nodes = (
"334 742 LINE",
"392 809 LINE",
"450 742 LINE",
"606 742 LINE",
"454 899 LINE",
"330 899 LINE",
"178 742 LINE"
);
},
{
closed = 1;
nodes = (
"515 910 OFFCURVE",
"543 920 OFFCURVE",
"562 943 CURVE",
"562 1045 LINE",
"539 1016 OFFCURVE",
"511 1004 OFFCURVE",
"479 1004 CURVE SMOOTH",
"429 1004 OFFCURVE",
"372 1046 OFFCURVE",
"320 1046 CURVE SMOOTH",
"284 1046 OFFCURVE",
"256 1036 OFFCURVE",
"237 1012 CURVE",
"237 911 LINE",
"261 940 OFFCURVE",
"288 952 OFFCURVE",
"320 952 CURVE SMOOTH",
"369 952 OFFCURVE",
"423 910 OFFCURVE",
"479 910 CURVE SMOOTH"
);
}
);
width = 783;
}
);
leftKerningGroup = A;
note = Acircumflextilde;
rightKerningGroup = A;
unicode = 1EAA;
},
{
glyphname = Adieresis;
lastChange = "2015-11-30 01:35:33 +0000";
layers = (
{
layerId = "16D28EA7-B5BE-4679-9A6B-BACE87874A93";
name = Bold;
paths = (
{
closed = 1;
nodes = (
"207 0 LINE",
"263 144 LINE",
"521 144 LINE",
"577 0 LINE",
"758 0 LINE",
"479 699 LINE",
"305 699 LINE",
"25 0 LINE"
);
},
{
closed = 1;
nodes = (
"392 515 LINE",
"477 280 LINE",
"306 280 LINE"
);
},
{
closed = 1;
nodes = (
"317 742 OFFCURVE",
"351 775 OFFCURVE",
"351 818 CURVE SMOOTH",
"351 861 OFFCURVE",
"317 896 OFFCURVE",
"275 896 CURVE SMOOTH",
"233 896 OFFCURVE",
"197 861 OFFCURVE",
"197 818 CURVE SMOOTH",
"197 775 OFFCURVE",
"233 742 OFFCURVE",
"275 742 CURVE SMOOTH"
);
},
{
closed = 1;
nodes = (
"552 742 OFFCURVE",
"587 775 OFFCURVE",
"587 818 CURVE SMOOTH",
"587 861 OFFCURVE",
"552 896 OFFCURVE",
"511 896 CURVE SMOOTH",
"469 896 OFFCURVE",
"433 861 OFFCURVE",
"433 818 CURVE SMOOTH",
"433 775 OFFCURVE",
"469 742 OFFCURVE",
"511 742 CURVE SMOOTH"
);
}
);
width = 783;
}
);
leftKerningGroup = A;
note = Adieresis;
rightKerningGroup = A;
unicode = 00C4;
},
{
glyphname = Adotbelow;
lastChange = "2015-11-30 01:35:34 +0000";
layers = (
{
layerId = "16D28EA7-B5BE-4679-9A6B-BACE87874A93";
name = Bold;
paths = (
{
closed = 1;
nodes = (
"207 0 LINE",
"263 144 LINE",
"521 144 LINE",
"577 0 LINE",
"758 0 LINE",
"479 699 LINE",
"305 699 LINE",
"25 0 LINE"
);
},
{
closed = 1;
nodes = (
"435 -200 OFFCURVE",
"469 -166 OFFCURVE",
"469 -123 CURVE SMOOTH",
"469 -80 OFFCURVE",
"435 -46 OFFCURVE",
"393 -46 CURVE SMOOTH",
"351 -46 OFFCURVE",
"315 -80 OFFCURVE",
"315 -123 CURVE SMOOTH",
"315 -166 OFFCURVE",
"351 -200 OFFCURVE",
"393 -200 CURVE SMOOTH"
);
},
{
closed = 1;
nodes = (
"392 515 LINE",
"477 280 LINE",
"306 280 LINE"
);
}
);
width = 783;
}
);
leftKerningGroup = A;
note = Adotbelow;
rightKerningGroup = A;
unicode = 1EA0;
},
{
glyphname = Agrave;
lastChange = "2015-11-30 01:35:33 +0000";
layers = (
{
layerId = "16D28EA7-B5BE-4679-9A6B-BACE87874A93";
name = Bold;
paths = (
{
closed = 1;
nodes = (
"207 0 LINE",
"263 144 LINE",
"521 144 LINE",
"577 0 LINE",
"758 0 LINE",
"479 699 LINE",
"305 699 LINE",
"25 0 LINE"
);
},
{
closed = 1;
nodes = (
"392 515 LINE",
"477 280 LINE",
"306 280 LINE"
);
},
{
closed = 1;
nodes = (
"476 742 LINE",
"407 920 LINE",
"222 920 LINE",
"313 742 LINE"
);
}
);
width = 783;
}
);
leftKerningGroup = A;
note = Agrave;
rightKerningGroup = A;
unicode = 00C0;
},
{
glyphname = Ahookabove;
lastChange = "2015-11-30 01:35:33 +0000";
layers = (
{
layerId = "16D28EA7-B5BE-4679-9A6B-BACE87874A93";
name = Bold;
paths = (
{
closed = 1;
nodes = (
"207 0 LINE",
"263 144 LINE",
"521 144 LINE",
"577 0 LINE",
"758 0 LINE",
"479 699 LINE",
"305 699 LINE",
"25 0 LINE"
);
},
{
closed = 1;
nodes = (
"392 515 LINE",
"477 280 LINE",
"306 280 LINE"
);
},
{
closed = 1;
nodes = (
"471 742 LINE",
"471 767 LINE",
"527 781 OFFCURVE",
"559 821 OFFCURVE",
"559 869 CURVE SMOOTH",
"559 932 OFFCURVE",
"507 975 OFFCURVE",
"401 975 CURVE SMOOTH",
"361 975 OFFCURVE",
"310 968 OFFCURVE",
"281 959 CURVE",
"281 875 LINE",
"294 881 OFFCURVE",
"322 885 OFFCURVE",
"338 885 CURVE SMOOTH",
"380 885 OFFCURVE",
"397 873 OFFCURVE",
"397 852 CURVE SMOOTH",
"397 821 OFFCURVE",
"365 812 OFFCURVE",
"317 812 CURVE",
"317 742 LINE"
);
}
);
width = 783;
}
);
leftKerningGroup = A;
note = Ahookabove;
rightKerningGroup = A;
unicode = 1EA2;
},
{
glyphname = Amacron;
lastChange = "2015-11-30 01:35:33 +0000";
layers = (
{
layerId = "16D28EA7-B5BE-4679-9A6B-BACE87874A93";
name = Bold;
paths = (
{
closed = 1;
nodes = (
"207 0 LINE",
"263 144 LINE",
"521 144 LINE",
"577 0 LINE",
"758 0 LINE",
"479 699 LINE",
"305 699 LINE",
"25 0 LINE"
);
},
{
closed = 1;
nodes = (
"392 515 LINE",
"477 280 LINE",
"306 280 LINE"
);
},
{
closed = 1;
nodes = (
"565 752 LINE",
"565 865 LINE",
"220 865 LINE",
"220 752 LINE"
);
}
);
width = 783;
}
);
leftKerningGroup = A;
note = Amacron;
rightKerningGroup = A;
unicode = 0100;
},
{
glyphname = Aogonek;
lastChange = "2015-11-30 01:35:33 +0000";
layers = (
{
layerId = "16D28EA7-B5BE-4679-9A6B-BACE87874A93";
name = Bold;
paths = (
{
closed = 1;
nodes = (
"207 0 LINE",
"263 144 LINE",
"521 144 LINE",
"577 0 LINE",
"758 0 LINE",
"479 699 LINE",
"305 699 LINE",
"25 0 LINE"
);
},
{
closed = 1;
nodes = (
"680 -216 OFFCURVE",
"718 -210 OFFCURVE",
"744 -201 CURVE",
"744 -105 LINE",
"729 -113 OFFCURVE",
"712 -117 OFFCURVE",
"696 -117 CURVE SMOOTH",
"675 -117 OFFCURVE",
"662 -104 OFFCURVE",
"662 -84 CURVE SMOOTH",
"662 -55 OFFCURVE",
"687 -29 OFFCURVE",
"741 0 CURVE",
"581 0 LINE",
"539 -25 OFFCURVE",
"510 -66 OFFCURVE",
"510 -119 CURVE SMOOTH",
"510 -187 OFFCURVE",
"568 -216 OFFCURVE",
"641 -216 CURVE SMOOTH"
);
},
{
closed = 1;
nodes = (
"392 515 LINE",
"477 280 LINE",
"306 280 LINE"
);
}
);
width = 783;
}
);
leftKerningGroup = A;
note = Aogonek;
rightKerningGroup = A;
unicode = 0104;
},
{
glyphname = Aring;
lastChange = "2015-12-01 02:18:57 +0000";
layers = (
{
layerId = "16D28EA7-B5BE-4679-9A6B-BACE87874A93";
name = Bold;
paths = (
{
closed = 1;
nodes = (
"207 0 LINE",
"263 144 LINE",
"521 144 LINE",
"577 0 LINE",
"758 0 LINE",
"479 699 LINE",
"305 699 LINE",
"25 0 LINE"
);
},
{
closed = 1;
nodes = (
"392 515 LINE",
"477 280 LINE",
"306 280 LINE"
);
},
{
closed = 1;
nodes = (
"470 635 OFFCURVE",
"534 696 OFFCURVE",
"534 774 CURVE SMOOTH",
"534 852 OFFCURVE",
"470 914 OFFCURVE",
"392 914 CURVE SMOOTH",
"314 914 OFFCURVE",
"251 852 OFFCURVE",
"251 774 CURVE SMOOTH",
"251 696 OFFCURVE",
"314 635 OFFCURVE",
"392 635 CURVE SMOOTH"
);
},
{
closed = 1;
nodes = (
"367 728 OFFCURVE",
"346 749 OFFCURVE",
"346 774 CURVE SMOOTH",
"346 800 OFFCURVE",
"367 820 OFFCURVE",
"392 820 CURVE SMOOTH",
"418 820 OFFCURVE",
"438 800 OFFCURVE",
"438 774 CURVE SMOOTH",
"438 749 OFFCURVE",
"418 728 OFFCURVE",
"392 728 CURVE SMOOTH"
);
}
);
width = 783;
}
);
leftKerningGroup = A;
note = Aring;
rightKerningGroup = A;
unicode = 00C5;
},
{
glyphname = Aringacute;
lastChange = "2015-11-30 01:35:33 +0000";
layers = (
{
layerId = "16D28EA7-B5BE-4679-9A6B-BACE87874A93";
name = Bold;
paths = (
{
closed = 1;
nodes = (
"207 0 LINE",
"263 144 LINE",
"521 144 LINE",
"577 0 LINE",
"758 0 LINE",
"479 699 LINE",
"305 699 LINE",
"25 0 LINE"
);
},
{
closed = 1;
nodes = (
"392 515 LINE",
"477 280 LINE",
"306 280 LINE"
);
},
{
closed = 1;
nodes = (
"470 635 OFFCURVE",
"534 696 OFFCURVE",
"534 774 CURVE SMOOTH",
"534 852 OFFCURVE",
"470 914 OFFCURVE",
"392 914 CURVE SMOOTH",
"314 914 OFFCURVE",
"251 852 OFFCURVE",
"251 774 CURVE SMOOTH",
"251 696 OFFCURVE",
"314 635 OFFCURVE",
"392 635 CURVE SMOOTH"
);
},
{
closed = 1;
nodes = (
"367 728 OFFCURVE",
"346 749 OFFCURVE",
"346 774 CURVE SMOOTH",
"346 800 OFFCURVE",
"367 820 OFFCURVE",
"392 820 CURVE SMOOTH",
"418 820 OFFCURVE",
"438 800 OFFCURVE",
"438 774 CURVE SMOOTH",
"438 749 OFFCURVE",
"418 728 OFFCURVE",
"392 728 CURVE SMOOTH"
);
},
{
closed = 1;
nodes = (
"463 929 LINE",
"554 1071 LINE",
"369 1071 LINE",
"300 929 LINE"
);
}
);
width = 783;
}
);
leftKerningGroup = A;
note = Aringacute;
rightKerningGroup = A;
unicode = 01FA;
},
{
glyphname = Atilde;
lastChange = "2015-11-30 01:35:33 +0000";
layers = (
{
layerId = "16D28EA7-B5BE-4679-9A6B-BACE87874A93";
name = Bold;
paths = (
{
closed = 1;
nodes = (
"207 0 LINE",
"263 144 LINE",
"521 144 LINE",
"577 0 LINE",
"758 0 LINE",
"479 699 LINE",
"305 699 LINE",
"25 0 LINE"
);
},
{
closed = 1;
nodes = (
"392 515 LINE",
"477 280 LINE",
"306 280 LINE"
);
},
{
closed = 1;
nodes = (
"220 779 OFFCURVE",
"255 793 OFFCURVE",
"294 793 CURVE SMOOTH",
"358 793 OFFCURVE",
"418 743 OFFCURVE",
"491 743 CURVE SMOOTH",
"535 743 OFFCURVE",
"571 754 OFFCURVE",
"596 784 CURVE",
"596 912 LINE",
"566 876 OFFCURVE",
"531 862 OFFCURVE",
"491 862 CURVE SMOOTH",
"426 862 OFFCURVE",
"362 912 OFFCURVE",
"294 912 CURVE SMOOTH",
"251 912 OFFCURVE",
"214 900 OFFCURVE",
"189 870 CURVE",
"189 742 LINE"
);
}
);
width = 783;
}
);
leftKerningGroup = A;
note = Atilde;
rightKerningGroup = A;
unicode = 00C3;
},
{
glyphname = AE;
lastChange = "2015-11-30 01:35:34 +0000";
layers = (
{
layerId = "16D28EA7-B5BE-4679-9A6B-BACE87874A93";
name = Bold;
paths = (
{
closed = 1;
nodes = (
"215 0 LINE",
"279 145 LINE",
"424 145 LINE",
"424 0 LINE",
"892 0 LINE",
"892 149 LINE",
"602 149 LINE",
"602 280 LINE",
"807 280 LINE",
"807 419 LINE",
"602 419 LINE",
"602 550 LINE",
"892 550 LINE",
"892 699 LINE",
"331 699 LINE",
"25 0 LINE"
);
},
{
closed = 1;
nodes = (
"423 521 LINE",
"424 521 LINE",
"424 284 LINE",
"329 284 LINE"
);
}
);
width = 907;
}
);
leftKerningGroup = A;
note = AE;
rightKerningGroup = E;
unicode = 00C6;
},
{
glyphname = AEacute;
lastChange = "2015-11-30 01:35:34 +0000";
layers = (
{
layerId = "16D28EA7-B5BE-4679-9A6B-BACE87874A93";
name = Bold;
paths = (
{
closed = 1;
nodes = (
"215 0 LINE",
"279 145 LINE",
"424 145 LINE",
"424 0 LINE",
"892 0 LINE",
"892 149 LINE",
"602 149 LINE",
"602 280 LINE",
"807 280 LINE",
"807 419 LINE",
"602 419 LINE",
"602 550 LINE",
"892 550 LINE",
"892 699 LINE",
"331 699 LINE",
"25 0 LINE"
);
},
{
closed = 1;
nodes = (
"423 521 LINE",
"424 521 LINE",
"424 284 LINE",
"329 284 LINE"
);
},
{
closed = 1;
nodes = (
"621 742 LINE",
"712 920 LINE",
"527 920 LINE",
"458 742 LINE"
);
}
);
width = 917;
}
);
leftKerningGroup = A;
note = AEacute;
rightKerningGroup = E;
unicode = 01FC;
},
{
glyphname = B;
lastChange = "2015-11-30 01:35:34 +0000";
layers = (
{
layerId = "16D28EA7-B5BE-4679-9A6B-BACE87874A93";
name = Bold;
paths = (
{
closed = 1;
nodes = (
"416 0 LINE SMOOTH",
"538 0 OFFCURVE",
"639 77 OFFCURVE",
"639 209 CURVE SMOOTH",
"639 290 OFFCURVE",
"607 337 OFFCURVE",
"540 364 CURVE",
"589 394 OFFCURVE",
"617 447 OFFCURVE",
"617 506 CURVE SMOOTH",
"617 633 OFFCURVE",
"530 699 OFFCURVE",
"399 699 CURVE SMOOTH",
"45 699 LINE",
"45 0 LINE"
);
},
{
closed = 1;
nodes = (
"222 291 LINE",
"367 291 LINE SMOOTH",
"428 291 OFFCURVE",
"460 268 OFFCURVE",
"460 209 CURVE SMOOTH",
"460 149 OFFCURVE",
"428 132 OFFCURVE",
"371 132 CURVE SMOOTH",
"222 132 LINE"
);
},
{
closed = 1;
nodes = (
"222 567 LINE",
"357 567 LINE SMOOTH",
"408 567 OFFCURVE",
"438 553 OFFCURVE",
"438 495 CURVE SMOOTH",
"438 442 OFFCURVE",
"407 422 OFFCURVE",
"360 422 CURVE SMOOTH",
"222 422 LINE"
);
}
);
width = 664;
}
);
note = B;
unicode = 0042;
},
{
glyphname = C;
lastChange = "2015-11-30 01:35:30 +0000";
layers = (
{
layerId = "16D28EA7-B5BE-4679-9A6B-BACE87874A93";
name = Bold;
paths = (
{
closed = 1;
nodes = (
"506 -15 OFFCURVE",
"591 5 OFFCURVE",
"657 50 CURVE",
"657 217 LINE",
"591 167 OFFCURVE",
"517 146 OFFCURVE",
"422 146 CURVE SMOOTH",
"286 146 OFFCURVE",
"207 223 OFFCURVE",
"207 349 CURVE SMOOTH",
"207 474 OFFCURVE",
"284 551 OFFCURVE",
"422 551 CURVE SMOOTH",
"515 551 OFFCURVE",
"589 532 OFFCURVE",
"649 484 CURVE",
"649 652 LINE",
"582 695 OFFCURVE",
"505 714 OFFCURVE",
"406 714 CURVE SMOOTH",
"176 714 OFFCURVE",
"25 574 OFFCURVE",
"25 349 CURVE SMOOTH",
"25 124 OFFCURVE",
"176 -15 OFFCURVE",
"406 -15 CURVE SMOOTH"
);
}
);
width = 682;
}
);
leftKerningGroup = C;
note = C;
rightKerningGroup = C;
unicode = 0043;
},
{
glyphname = Cacute;
lastChange = "2015-11-30 01:35:34 +0000";
layers = (
{
layerId = "16D28EA7-B5BE-4679-9A6B-BACE87874A93";
name = Bold;
paths = (
{
closed = 1;
nodes = (
"506 -15 OFFCURVE",
"591 5 OFFCURVE",
"657 50 CURVE",
"657 217 LINE",
"591 167 OFFCURVE",
"517 146 OFFCURVE",
"422 146 CURVE SMOOTH",
"286 146 OFFCURVE",
"207 223 OFFCURVE",
"207 349 CURVE SMOOTH",
"207 474 OFFCURVE",
"284 551 OFFCURVE",
"422 551 CURVE SMOOTH",
"515 551 OFFCURVE",
"589 532 OFFCURVE",
"649 484 CURVE",
"649 652 LINE",
"582 695 OFFCURVE",
"505 714 OFFCURVE",
"406 714 CURVE SMOOTH",
"176 714 OFFCURVE",
"25 574 OFFCURVE",
"25 349 CURVE SMOOTH",
"25 124 OFFCURVE",
"176 -15 OFFCURVE",
"406 -15 CURVE SMOOTH"
);
},
{
closed = 1;
nodes = (
"485 742 LINE",
"576 920 LINE",
"391 920 LINE",
"322 742 LINE"
);
}
);
width = 682;
}
);
leftKerningGroup = C;
note = Cacute;
rightKerningGroup = C;
unicode = 0106;
},
{
glyphname = Ccaron;
lastChange = "2015-11-30 01:35:33 +0000";
layers = (
{
layerId = "16D28EA7-B5BE-4679-9A6B-BACE87874A93";
name = Bold;
paths = (
{
closed = 1;
nodes = (
"506 -15 OFFCURVE",
"591 5 OFFCURVE",
"657 50 CURVE",
"657 217 LINE",
"591 167 OFFCURVE",
"517 146 OFFCURVE",
"422 146 CURVE SMOOTH",
"286 146 OFFCURVE",
"207 223 OFFCURVE",
"207 349 CURVE SMOOTH",
"207 474 OFFCURVE",
"284 551 OFFCURVE",
"422 551 CURVE SMOOTH",
"515 551 OFFCURVE",
"589 532 OFFCURVE",
"649 484 CURVE",
"649 652 LINE",
"582 695 OFFCURVE",
"505 714 OFFCURVE",
"406 714 CURVE SMOOTH",
"176 714 OFFCURVE",
"25 574 OFFCURVE",
"25 349 CURVE SMOOTH",
"25 124 OFFCURVE",
"176 -15 OFFCURVE",
"406 -15 CURVE SMOOTH"
);
},
{
closed = 1;
nodes = (
"482 742 LINE",
"638 923 LINE",
"464 923 LINE",
"404 838 LINE",
"344 923 LINE",
"169 923 LINE",
"325 742 LINE"
);
}
);
width = 669;
}
);
leftKerningGroup = C;
note = Ccaron;
rightKerningGroup = C;
unicode = 010C;
},
{
glyphname = Ccedilla;
lastChange = "2015-11-30 01:35:33 +0000";
layers = (
{
layerId = "16D28EA7-B5BE-4679-9A6B-BACE87874A93";
name = Bold;
paths = (
{
closed = 1;
nodes = (
"506 -15 OFFCURVE",
"591 5 OFFCURVE",
"657 50 CURVE",
"657 217 LINE",
"591 167 OFFCURVE",
"517 146 OFFCURVE",
"422 146 CURVE SMOOTH",
"286 146 OFFCURVE",
"207 223 OFFCURVE",
"207 349 CURVE SMOOTH",
"207 474 OFFCURVE",
"284 551 OFFCURVE",
"422 551 CURVE SMOOTH",
"515 551 OFFCURVE",
"589 532 OFFCURVE",
"649 484 CURVE",
"649 652 LINE",
"582 695 OFFCURVE",
"505 714 OFFCURVE",
"406 714 CURVE SMOOTH",
"176 714 OFFCURVE",
"25 574 OFFCURVE",
"25 349 CURVE SMOOTH",
"25 124 OFFCURVE",
"176 -15 OFFCURVE",
"406 -15 CURVE SMOOTH"
);
},
{
closed = 1;
nodes = (
"508 -248 OFFCURVE",
"572 -214 OFFCURVE",
"572 -141 CURVE SMOOTH",
"572 -81 OFFCURVE",
"538 -55 OFFCURVE",
"483 -46 CURVE",
"501 0 LINE",
"346 0 LINE",
"312 -89 LINE",
"387 -89 OFFCURVE",
"410 -105 OFFCURVE",
"410 -129 CURVE SMOOTH",
"410 -150 OFFCURVE",
"393 -163 OFFCURVE",
"360 -163 CURVE SMOOTH",
"337 -163 OFFCURVE",
"314 -157 OFFCURVE",
"299 -149 CURVE",
"299 -234 LINE",
"320 -242 OFFCURVE",
"366 -248 OFFCURVE",
"412 -248 CURVE SMOOTH"
);
}
);
width = 682;
}
);
leftKerningGroup = C;
note = Ccedilla;
rightKerningGroup = C;
unicode = 00C7;
},
{
glyphname = Ccircumflex;
lastChange = "2015-11-30 01:35:33 +0000";
layers = (
{
layerId = "16D28EA7-B5BE-4679-9A6B-BACE87874A93";
name = Bold;
paths = (
{
closed = 1;
nodes = (
"506 -15 OFFCURVE",
"591 5 OFFCURVE",
"657 50 CURVE",
"657 217 LINE",
"591 167 OFFCURVE",
"517 146 OFFCURVE",
"422 146 CURVE SMOOTH",
"286 146 OFFCURVE",
"207 223 OFFCURVE",
"207 349 CURVE SMOOTH",
"207 474 OFFCURVE",
"284 551 OFFCURVE",
"422 551 CURVE SMOOTH",
"515 551 OFFCURVE",
"589 532 OFFCURVE",
"649 484 CURVE",
"649 652 LINE",
"582 695 OFFCURVE",
"505 714 OFFCURVE",
"406 714 CURVE SMOOTH",
"176 714 OFFCURVE",
"25 574 OFFCURVE",
"25 349 CURVE SMOOTH",
"25 124 OFFCURVE",
"176 -15 OFFCURVE",
"406 -15 CURVE SMOOTH"
);
},
{
closed = 1;
nodes = (
"332 742 LINE",
"392 827 LINE",
"452 742 LINE",
"626 742 LINE",
"470 923 LINE",
"313 923 LINE",
"157 742 LINE"
);
}
);
width = 682;
}
);
leftKerningGroup = C;
note = Ccircumflex;
rightKerningGroup = C;
unicode = 0108;
},
{
glyphname = Cdotaccent;
lastChange = "2015-11-30 01:35:33 +0000";
layers = (
{
layerId = "16D28EA7-B5BE-4679-9A6B-BACE87874A93";
name = Bold;
paths = (
{
closed = 1;
nodes = (
"506 -15 OFFCURVE",
"591 5 OFFCURVE",
"657 50 CURVE",
"657 217 LINE",
"591 167 OFFCURVE",
"517 146 OFFCURVE",
"422 146 CURVE SMOOTH",
"286 146 OFFCURVE",
"207 223 OFFCURVE",
"207 349 CURVE SMOOTH",
"207 474 OFFCURVE",
"284 551 OFFCURVE",
"422 551 CURVE SMOOTH",
"515 551 OFFCURVE",
"589 532 OFFCURVE",
"649 484 CURVE",
"649 652 LINE",
"582 695 OFFCURVE",
"505 714 OFFCURVE",
"406 714 CURVE SMOOTH",
"176 714 OFFCURVE",
"25 574 OFFCURVE",
"25 349 CURVE SMOOTH",
"25 124 OFFCURVE",
"176 -15 OFFCURVE",
"406 -15 CURVE SMOOTH"
);
},
{
closed = 1;
nodes = (
"453 752 OFFCURVE",
"487 785 OFFCURVE",
"487 828 CURVE SMOOTH",
"487 871 OFFCURVE",
"453 906 OFFCURVE",
"411 906 CURVE SMOOTH",
"369 906 OFFCURVE",
"333 871 OFFCURVE",
"333 828 CURVE SMOOTH",
"333 785 OFFCURVE",
"369 752 OFFCURVE",
"411 752 CURVE SMOOTH"
);
}
);
width = 682;
}
);
leftKerningGroup = C;
note = Cdotaccent;
rightKerningGroup = C;
unicode = 010A;
},
{
glyphname = D;
lastChange = "2015-11-30 01:35:33 +0000";
layers = (
{
layerId = "16D28EA7-B5BE-4679-9A6B-BACE87874A93";
name = Bold;
paths = (
{
closed = 1;
nodes = (
"291 0 LINE SMOOTH",
"526 0 OFFCURVE",
"676 116 OFFCURVE",
"676 353 CURVE SMOOTH",
"676 566 OFFCURVE",
"528 699 OFFCURVE",
"296 699 CURVE SMOOTH",
"45 699 LINE",
"45 0 LINE"
);
},
{
closed = 1;
nodes = (
"222 550 LINE",
"312 550 LINE SMOOTH",
"429 550 OFFCURVE",
"494 464 OFFCURVE",
"494 353 CURVE SMOOTH",
"494 230 OFFCURVE",
"430 149 OFFCURVE",
"306 149 CURVE SMOOTH",
"222 149 LINE"
);
}
);
width = 701;
}
);
note = D;
rightKerningGroup = D;
unicode = 0044;
},
{
glyphname = Eth;
lastChange = "2015-11-30 01:35:33 +0000";
layers = (
{
layerId = "16D28EA7-B5BE-4679-9A6B-BACE87874A93";
name = Bold;
paths = (
{
closed = 1;
nodes = (
"332 0 LINE SMOOTH",
"567 0 OFFCURVE",
"717 116 OFFCURVE",
"717 353 CURVE SMOOTH",
"717 566 OFFCURVE",
"569 699 OFFCURVE",
"337 699 CURVE SMOOTH",
"86 699 LINE",
"86 415 LINE",
"35 415 LINE",
"35 283 LINE",
"86 283 LINE",
"86 0 LINE"
);
},
{
closed = 1;
nodes = (
"263 283 LINE",
"406 283 LINE",
"406 415 LINE",
"263 415 LINE",
"263 550 LINE",
"353 550 LINE SMOOTH",
"470 550 OFFCURVE",
"535 464 OFFCURVE",
"535 353 CURVE SMOOTH",
"535 230 OFFCURVE",
"471 149 OFFCURVE",
"347 149 CURVE SMOOTH",
"263 149 LINE"
);
}
);
width = 742;
}
);
note = Eth;
rightKerningGroup = D;
unicode = 00D0;
},
{
glyphname = Dcaron;
lastChange = "2015-11-30 01:35:33 +0000";
layers = (
{
layerId = "16D28EA7-B5BE-4679-9A6B-BACE87874A93";
name = Bold;
paths = (
{
closed = 1;
nodes = (
"291 0 LINE SMOOTH",
"526 0 OFFCURVE",
"676 116 OFFCURVE",
"676 353 CURVE SMOOTH",
"676 566 OFFCURVE",
"528 699 OFFCURVE",
"296 699 CURVE SMOOTH",
"45 699 LINE",
"45 0 LINE"
);
},
{
closed = 1;
nodes = (
"222 550 LINE",
"312 550 LINE SMOOTH",
"429 550 OFFCURVE",
"494 464 OFFCURVE",
"494 353 CURVE SMOOTH",
"494 230 OFFCURVE",
"430 149 OFFCURVE",
"306 149 CURVE SMOOTH",
"222 149 LINE"
);
},
{
closed = 1;
nodes = (
"403 742 LINE",
"559 923 LINE",
"385 923 LINE",
"325 838 LINE",
"265 923 LINE",
"90 923 LINE",
"246 742 LINE"
);
}
);
width = 701;
}
);
note = Dcaron;
rightKerningGroup = D;
unicode = 010E;
},
{
glyphname = Dcroat;
lastChange = "2015-11-30 01:35:33 +0000";
layers = (
{
layerId = "16D28EA7-B5BE-4679-9A6B-BACE87874A93";
name = Bold;
paths = (
{
closed = 1;
nodes = (
"332 0 LINE SMOOTH",
"567 0 OFFCURVE",
"717 116 OFFCURVE",
"717 353 CURVE SMOOTH",
"717 566 OFFCURVE",
"569 699 OFFCURVE",
"337 699 CURVE SMOOTH",
"86 699 LINE",
"86 415 LINE",
"35 415 LINE",
"35 283 LINE",
"86 283 LINE",
"86 0 LINE"
);
},
{
closed = 1;
nodes = (
"263 283 LINE",
"406 283 LINE",
"406 415 LINE",
"263 415 LINE",
"263 550 LINE",
"353 550 LINE SMOOTH",
"470 550 OFFCURVE",
"535 464 OFFCURVE",
"535 353 CURVE SMOOTH",
"535 230 OFFCURVE",
"471 149 OFFCURVE",
"347 149 CURVE SMOOTH",
"263 149 LINE"
);
}
);
width = 742;
}
);
note = Dcroat;
rightKerningGroup = D;
unicode = 0110;
},
{
glyphname = Ddotbelow;
lastChange = "2015-11-30 01:35:32 +0000";
layers = (
{
layerId = "16D28EA7-B5BE-4679-9A6B-BACE87874A93";
name = Bold;
paths = (
{
closed = 1;
nodes = (
"291 0 LINE SMOOTH",
"526 0 OFFCURVE",
"676 116 OFFCURVE",
"676 353 CURVE SMOOTH",
"676 566 OFFCURVE",
"528 699 OFFCURVE",
"296 699 CURVE SMOOTH",
"45 699 LINE",
"45 0 LINE"
);
},
{
closed = 1;
nodes = (
"350 -200 OFFCURVE",
"384 -166 OFFCURVE",
"384 -123 CURVE SMOOTH",
"384 -80 OFFCURVE",
"350 -46 OFFCURVE",
"308 -46 CURVE SMOOTH",
"266 -46 OFFCURVE",
"230 -80 OFFCURVE",
"230 -123 CURVE SMOOTH",
"230 -166 OFFCURVE",
"266 -200 OFFCURVE",
"308 -200 CURVE SMOOTH"
);
},
{
closed = 1;
nodes = (
"222 550 LINE",
"312 550 LINE SMOOTH",
"429 550 OFFCURVE",
"494 464 OFFCURVE",
"494 353 CURVE SMOOTH",
"494 230 OFFCURVE",
"430 149 OFFCURVE",
"306 149 CURVE SMOOTH",
"222 149 LINE"
);
}
);
width = 701;
}
);
note = Ddotbelow;
rightKerningGroup = D;
unicode = 1E0C;
},
{
glyphname = Dlinebelow;
lastChange = "2015-11-30 01:35:33 +0000";
layers = (
{
layerId = "16D28EA7-B5BE-4679-9A6B-BACE87874A93";
name = Bold;
paths = (
{
closed = 1;
nodes = (
"291 0 LINE SMOOTH",
"526 0 OFFCURVE",
"676 116 OFFCURVE",
"676 353 CURVE SMOOTH",
"676 566 OFFCURVE",
"528 699 OFFCURVE",
"296 699 CURVE SMOOTH",
"45 699 LINE",
"45 0 LINE"
);
},
{
closed = 1;
nodes = (
"486 -172 LINE",
"486 -59 LINE",
"141 -59 LINE",
"141 -172 LINE"
);
},
{
closed = 1;
nodes = (
"222 550 LINE",
"312 550 LINE SMOOTH",
"429 550 OFFCURVE",
"494 464 OFFCURVE",
"494 353 CURVE SMOOTH",
"494 230 OFFCURVE",
"430 149 OFFCURVE",
"306 149 CURVE SMOOTH",
"222 149 LINE"
);
}
);
width = 701;
}
);
note = Dlinebelow;
rightKerningGroup = D;
unicode = 1E0E;
},
{
glyphname = E;
lastChange = "2015-11-30 01:38:22 +0000";
layers = (
{
layerId = "16D28EA7-B5BE-4679-9A6B-BACE87874A93";
name = Bold;
paths = (
{
closed = 1;
nodes = (
"541 0 LINE",
"541 149 LINE",
"222 149 LINE",
"222 280 LINE",
"455 280 LINE",
"455 419 LINE",
"222 419 LINE",
"222 550 LINE",
"541 550 LINE",
"541 699 LINE",
"45 699 LINE",
"45 0 LINE"
);
}
);
width = 566;
}
);
leftKerningGroup = E;
note = E;
rightKerningGroup = E;
unicode = 0045;
},
{
glyphname = Eacute;
lastChange = "2015-11-30 01:38:20 +0000";
layers = (
{
layerId = "16D28EA7-B5BE-4679-9A6B-BACE87874A93";
name = Bold;
paths = (
{
closed = 1;
nodes = (
"541 0 LINE",
"541 149 LINE",
"222 149 LINE",
"222 280 LINE",
"455 280 LINE",
"455 419 LINE",
"222 419 LINE",
"222 550 LINE",
"541 550 LINE",
"541 699 LINE",
"45 699 LINE",
"45 0 LINE"
);
},
{
closed = 1;
nodes = (
"368 734 LINE",
"459 912 LINE",
"274 912 LINE",
"205 734 LINE"
);
}
);
width = 566;
}
);
leftKerningGroup = E;
note = Eacute;
rightKerningGroup = E;
unicode = 00C9;
},
{
glyphname = Ebreve;
lastChange = "2015-11-30 01:35:33 +0000";
layers = (
{
layerId = "16D28EA7-B5BE-4679-9A6B-BACE87874A93";
name = Bold;
paths = (
{
closed = 1;
nodes = (
"541 0 LINE",
"541 149 LINE",
"222 149 LINE",
"222 280 LINE",
"455 280 LINE",
"455 419 LINE",
"222 419 LINE",
"222 550 LINE",
"541 550 LINE",
"541 699 LINE",
"45 699 LINE",
"45 0 LINE"
);
},
{
closed = 1;
nodes = (
"425 742 OFFCURVE",
"491 810 OFFCURVE",
"491 915 CURVE",
"360 915 LINE",
"360 874 OFFCURVE",
"341 853 OFFCURVE",
"308 853 CURVE SMOOTH",
"274 853 OFFCURVE",
"256 874 OFFCURVE",
"256 915 CURVE",
"125 915 LINE",
"125 810 OFFCURVE",
"191 742 OFFCURVE",
"308 742 CURVE SMOOTH"
);
}
);
width = 566;
}
);
leftKerningGroup = E;
note = Ebreve;
rightKerningGroup = E;
unicode = 0114;
},
{
glyphname = Ecaron;
lastChange = "2015-11-30 01:35:33 +0000";
layers = (
{
layerId = "16D28EA7-B5BE-4679-9A6B-BACE87874A93";
name = Bold;
paths = (
{
closed = 1;
nodes = (
"541 0 LINE",
"541 149 LINE",
"222 149 LINE",
"222 280 LINE",
"455 280 LINE",
"455 419 LINE",
"222 419 LINE",
"222 550 LINE",
"541 550 LINE",
"541 699 LINE",
"45 699 LINE",
"45 0 LINE"
);
},
{
closed = 1;
nodes = (
"384 742 LINE",
"540 923 LINE",
"366 923 LINE",
"306 838 LINE",
"246 923 LINE",
"71 923 LINE",
"227 742 LINE"
);
}
);
width = 566;
}
);
leftKerningGroup = E;
note = Ecaron;
rightKerningGroup = E;
unicode = 011A;
},
{
glyphname = Ecircumflex;
lastChange = "2015-11-30 01:38:31 +0000";
layers = (
{
layerId = "16D28EA7-B5BE-4679-9A6B-BACE87874A93";
name = Bold;
paths = (
{
closed = 1;
nodes = (
"541 0 LINE",
"541 149 LINE",
"222 149 LINE",
"222 280 LINE",
"455 280 LINE",
"455 419 LINE",
"222 419 LINE",
"222 550 LINE",
"541 550 LINE",
"541 699 LINE",
"45 699 LINE",
"45 0 LINE"
);
},
{
closed = 1;
nodes = (
"232 742 LINE",
"292 827 LINE",
"352 742 LINE",
"526 742 LINE",
"370 923 LINE",
"213 923 LINE",
"57 742 LINE"
);
}
);
width = 566;
}
);
leftKerningGroup = E;
note = Ecircumflex;
rightKerningGroup = E;
unicode = 00CA;
},
{
glyphname = Ecircumflexacute;
lastChange = "2015-11-30 01:38:37 +0000";
layers = (
{
layerId = "16D28EA7-B5BE-4679-9A6B-BACE87874A93";
name = Bold;
paths = (
{
closed = 1;
nodes = (
"541 0 LINE",
"541 149 LINE",
"222 149 LINE",
"222 280 LINE",
"455 280 LINE",
"455 419 LINE",
"222 419 LINE",
"222 550 LINE",
"541 550 LINE",
"541 699 LINE",
"45 699 LINE",
"45 0 LINE"
);
},
{
closed = 1;
nodes = (
"239 742 LINE",
"297 809 LINE",
"355 742 LINE",
"511 742 LINE",
"359 899 LINE",
"235 899 LINE",
"83 742 LINE"
);
},
{
closed = 1;
nodes = (
"566 858 LINE",
"647 997 LINE",
"485 997 LINE",
"426 858 LINE"
);
}
);
width = 566;
}
);
leftKerningGroup = E;
note = Ecircumflexacute;
rightKerningGroup = E;
unicode = 1EBE;
},
{
glyphname = Ecircumflexdotbelow;
lastChange = "2015-11-30 01:38:41 +0000";
layers = (
{
layerId = "16D28EA7-B5BE-4679-9A6B-BACE87874A93";
name = Bold;
paths = (
{
closed = 1;
nodes = (
"541 0 LINE",
"541 149 LINE",
"222 149 LINE",
"222 280 LINE",
"455 280 LINE",
"455 419 LINE",
"222 419 LINE",
"222 550 LINE",
"541 550 LINE",
"541 699 LINE",
"45 699 LINE",
"45 0 LINE"
);
},
{
closed = 1;
nodes = (
"348 -200 OFFCURVE",
"382 -166 OFFCURVE",
"382 -123 CURVE SMOOTH",
"382 -80 OFFCURVE",
"348 -46 OFFCURVE",
"306 -46 CURVE SMOOTH",
"264 -46 OFFCURVE",
"228 -80 OFFCURVE",
"228 -123 CURVE SMOOTH",
"228 -166 OFFCURVE",
"264 -200 OFFCURVE",
"306 -200 CURVE SMOOTH"
);
},
{
closed = 1;
nodes = (
"245 742 LINE",
"305 827 LINE",
"365 742 LINE",
"539 742 LINE",
"383 923 LINE",
"226 923 LINE",
"70 742 LINE"
);
}
);
width = 566;
}
);
leftKerningGroup = E;
note = Ecircumflexdotbelow;
rightKerningGroup = E;
unicode = 1EC6;
},
{
glyphname = Ecircumflexgrave;
lastChange = "2015-11-30 01:39:00 +0000";
layers = (
{
layerId = "16D28EA7-B5BE-4679-9A6B-BACE87874A93";
name = Bold;
paths = (
{
closed = 1;
nodes = (
"541 0 LINE",
"541 149 LINE",
"222 149 LINE",
"222 280 LINE",
"455 280 LINE",
"455 419 LINE",
"222 419 LINE",
"222 550 LINE",
"541 550 LINE",
"541 699 LINE",
"45 699 LINE",
"45 0 LINE"
);
},
{
closed = 1;
nodes = (
"250 742 LINE",
"308 809 LINE",
"366 742 LINE",
"522 742 LINE",
"370 899 LINE",
"246 899 LINE",
"94 742 LINE"
);
},
{
closed = 1;
nodes = (
"163 858 LINE",
"104 997 LINE",
"-58 997 LINE",
"23 858 LINE"
);
}
);
width = 566;
}
);
leftKerningGroup = E;
note = Ecircumflexgrave;
rightKerningGroup = E;
unicode = 1EC0;
},
{
glyphname = Ecircumflexhookabove;
lastChange = "2015-11-30 01:39:04 +0000";
layers = (
{
layerId = "16D28EA7-B5BE-4679-9A6B-BACE87874A93";
name = Bold;
paths = (
{
closed = 1;
nodes = (
"541 0 LINE",
"541 149 LINE",
"222 149 LINE",
"222 280 LINE",
"455 280 LINE",
"455 419 LINE",
"222 419 LINE",
"222 550 LINE",
"541 550 LINE",
"541 699 LINE",
"45 699 LINE",
"45 0 LINE"
);
},
{
closed = 1;
nodes = (
"240 742 LINE",
"298 809 LINE",
"356 742 LINE",
"512 742 LINE",
"360 899 LINE",
"236 899 LINE",
"84 742 LINE"
);
},
{
closed = 1;
nodes = (
"538 847 LINE",
"538 872 LINE",
"576 881 OFFCURVE",
"599 904 OFFCURVE",
"599 937 CURVE SMOOTH",
"599 981 OFFCURVE",
"561 1011 OFFCURVE",
"491 1011 CURVE SMOOTH",
"464 1011 OFFCURVE",
"426 1005 OFFCURVE",
"405 999 CURVE",
"405 940 LINE",
"414 944 OFFCURVE",
"430 947 OFFCURVE",
"442 947 CURVE SMOOTH",
"469 947 OFFCURVE",
"482 940 OFFCURVE",
"482 924 CURVE SMOOTH",
"482 904 OFFCURVE",
"463 898 OFFCURVE",
"430 898 CURVE",
"430 847 LINE"
);
}
);
width = 566;
}
);
leftKerningGroup = E;
note = Ecircumflexhookabove;
rightKerningGroup = E;
unicode = 1EC2;
},
{
glyphname = Ecircumflextilde;
lastChange = "2015-11-30 01:39:10 +0000";
layers = (
{
layerId = "16D28EA7-B5BE-4679-9A6B-BACE87874A93";
name = Bold;
paths = (
{
closed = 1;
nodes = (
"541 0 LINE",
"541 149 LINE",
"222 149 LINE",
"222 280 LINE",
"455 280 LINE",
"455 419 LINE",
"222 419 LINE",
"222 550 LINE",
"541 550 LINE",
"541 699 LINE",
"45 699 LINE",
"45 0 LINE"
);
},
{
closed = 1;
nodes = (
"245 742 LINE",
"303 809 LINE",
"361 742 LINE",
"517 742 LINE",
"365 899 LINE",
"241 899 LINE",
"89 742 LINE"
);
},
{
closed = 1;
nodes = (
"426 910 OFFCURVE",
"454 920 OFFCURVE",
"473 943 CURVE",
"473 1045 LINE",
"450 1016 OFFCURVE",
"422 1004 OFFCURVE",
"390 1004 CURVE SMOOTH",
"340 1004 OFFCURVE",
"283 1046 OFFCURVE",
"231 1046 CURVE SMOOTH",
"195 1046 OFFCURVE",
"167 1036 OFFCURVE",
"148 1012 CURVE",
"148 911 LINE",
"172 940 OFFCURVE",
"199 952 OFFCURVE",
"231 952 CURVE SMOOTH",
"280 952 OFFCURVE",
"334 910 OFFCURVE",
"390 910 CURVE SMOOTH"
);
}
);
width = 566;
}
);
leftKerningGroup = E;
note = Ecircumflextilde;
rightKerningGroup = E;
unicode = 1EC4;
},
{
glyphname = Edieresis;
lastChange = "2015-11-30 01:35:33 +0000";
layers = (
{
layerId = "16D28EA7-B5BE-4679-9A6B-BACE87874A93";
name = Bold;
paths = (
{
closed = 1;
nodes = (
"541 0 LINE",
"541 149 LINE",
"222 149 LINE",
"222 280 LINE",
"455 280 LINE",
"455 419 LINE",
"222 419 LINE",
"222 550 LINE",
"541 550 LINE",
"541 699 LINE",
"45 699 LINE",
"45 0 LINE"
);
},
{
closed = 1;
nodes = (
"222 752 OFFCURVE",
"256 785 OFFCURVE",
"256 828 CURVE SMOOTH",
"256 871 OFFCURVE",
"222 906 OFFCURVE",
"180 906 CURVE SMOOTH",
"138 906 OFFCURVE",
"102 871 OFFCURVE",
"102 828 CURVE SMOOTH",
"102 785 OFFCURVE",
"138 752 OFFCURVE",
"180 752 CURVE SMOOTH"
);
},
{
closed = 1;
nodes = (
"457 752 OFFCURVE",
"492 785 OFFCURVE",
"492 828 CURVE SMOOTH",
"492 871 OFFCURVE",
"457 906 OFFCURVE",
"416 906 CURVE SMOOTH",
"374 906 OFFCURVE",
"338 871 OFFCURVE",
"338 828 CURVE SMOOTH",
"338 785 OFFCURVE",
"374 752 OFFCURVE",
"416 752 CURVE SMOOTH"
);
}
);
width = 566;
}
);
leftKerningGroup = E;
note = Edieresis;
rightKerningGroup = E;
unicode = 00CB;
},
{
glyphname = Edotaccent;
lastChange = "2015-11-30 01:35:33 +0000";
layers = (
{
layerId = "16D28EA7-B5BE-4679-9A6B-BACE87874A93";
name = Bold;
paths = (
{
closed = 1;
nodes = (
"541 0 LINE",
"541 149 LINE",
"222 149 LINE",
"222 280 LINE",
"455 280 LINE",
"455 419 LINE",
"222 419 LINE",
"222 550 LINE",
"541 550 LINE",
"541 699 LINE",
"45 699 LINE",
"45 0 LINE"
);
},
{
closed = 1;
nodes = (
"349 752 OFFCURVE",
"383 785 OFFCURVE",
"383 828 CURVE SMOOTH",
"383 871 OFFCURVE",
"349 906 OFFCURVE",
"307 906 CURVE SMOOTH",
"265 906 OFFCURVE",
"229 871 OFFCURVE",
"229 828 CURVE SMOOTH",
"229 785 OFFCURVE",
"265 752 OFFCURVE",
"307 752 CURVE SMOOTH"
);
}
);
width = 566;
}
);
leftKerningGroup = E;
note = Edotaccent;
rightKerningGroup = E;
unicode = 0116;
},
{
glyphname = Edotbelow;
lastChange = "2015-11-30 01:35:34 +0000";
layers = (
{
layerId = "16D28EA7-B5BE-4679-9A6B-BACE87874A93";
name = Bold;
paths = (
{
closed = 1;
nodes = (
"541 0 LINE",
"541 149 LINE",
"222 149 LINE",
"222 280 LINE",
"455 280 LINE",
"455 419 LINE",
"222 419 LINE",
"222 550 LINE",
"541 550 LINE",
"541 699 LINE",
"45 699 LINE",
"45 0 LINE"
);
},
{
closed = 1;
nodes = (
"338 -200 OFFCURVE",
"372 -166 OFFCURVE",
"372 -123 CURVE SMOOTH",
"372 -80 OFFCURVE",
"338 -46 OFFCURVE",
"296 -46 CURVE SMOOTH",
"254 -46 OFFCURVE",
"218 -80 OFFCURVE",
"218 -123 CURVE SMOOTH",
"218 -166 OFFCURVE",
"254 -200 OFFCURVE",
"296 -200 CURVE SMOOTH"
);
}
);
width = 566;
}
);
leftKerningGroup = E;
note = Edotbelow;
rightKerningGroup = E;
unicode = 1EB8;
},
{
glyphname = Egrave;
lastChange = "2015-11-30 01:35:33 +0000";
layers = (
{
layerId = "16D28EA7-B5BE-4679-9A6B-BACE87874A93";
name = Bold;
paths = (
{
closed = 1;
nodes = (
"541 0 LINE",
"541 149 LINE",
"222 149 LINE",
"222 280 LINE",
"455 280 LINE",
"455 419 LINE",
"222 419 LINE",
"222 550 LINE",
"541 550 LINE",
"541 699 LINE",
"45 699 LINE",
"45 0 LINE"
);
},
{
closed = 1;
nodes = (
"385 742 LINE",
"316 920 LINE",
"131 920 LINE",
"222 742 LINE"
);
}
);
width = 566;
}
);
leftKerningGroup = E;
note = Egrave;
rightKerningGroup = E;
unicode = 00C8;
},
{
glyphname = Ehookabove;
lastChange = "2015-11-30 01:35:33 +0000";
layers = (
{
layerId = "16D28EA7-B5BE-4679-9A6B-BACE87874A93";
name = Bold;
paths = (
{
closed = 1;
nodes = (
"541 0 LINE",
"541 149 LINE",
"222 149 LINE",
"222 280 LINE",
"455 280 LINE",
"455 419 LINE",
"222 419 LINE",
"222 550 LINE",
"541 550 LINE",
"541 699 LINE",
"45 699 LINE",
"45 0 LINE"
);
},
{
closed = 1;
nodes = (
"368 742 LINE",
"368 767 LINE",
"424 781 OFFCURVE",
"456 821 OFFCURVE",
"456 869 CURVE SMOOTH",
"456 932 OFFCURVE",
"404 975 OFFCURVE",
"298 975 CURVE SMOOTH",
"258 975 OFFCURVE",
"207 968 OFFCURVE",
"178 959 CURVE",
"178 875 LINE",
"191 881 OFFCURVE",
"219 885 OFFCURVE",
"235 885 CURVE SMOOTH",
"277 885 OFFCURVE",
"294 873 OFFCURVE",
"294 852 CURVE SMOOTH",
"294 821 OFFCURVE",
"262 812 OFFCURVE",
"214 812 CURVE",
"214 742 LINE"
);
}
);
width = 566;
}
);
leftKerningGroup = E;
note = Ehookabove;
rightKerningGroup = E;
unicode = 1EBA;
},
{
glyphname = Emacron;
lastChange = "2015-11-30 01:35:33 +0000";
layers = (
{
layerId = "16D28EA7-B5BE-4679-9A6B-BACE87874A93";
name = Bold;
paths = (
{
closed = 1;
nodes = (
"541 0 LINE",
"541 149 LINE",
"222 149 LINE",
"222 280 LINE",
"455 280 LINE",
"455 419 LINE",
"222 419 LINE",
"222 550 LINE",
"541 550 LINE",
"541 699 LINE",
"45 699 LINE",
"45 0 LINE"
);
},
{
closed = 1;
nodes = (
"483 752 LINE",
"483 865 LINE",
"138 865 LINE",
"138 752 LINE"
);
}
);
width = 566;
}
);
leftKerningGroup = E;
note = Emacron;
rightKerningGroup = E;
unicode = 0112;
},
{
glyphname = Eogonek;
lastChange = "2015-11-30 01:35:33 +0000";
layers = (
{
layerId = "16D28EA7-B5BE-4679-9A6B-BACE87874A93";
name = Bold;
paths = (
{
closed = 1;
nodes = (
"541 0 LINE",
"541 149 LINE",
"222 149 LINE",
"222 280 LINE",
"455 280 LINE",
"455 419 LINE",
"222 419 LINE",
"222 550 LINE",
"541 550 LINE",
"541 699 LINE",
"45 699 LINE",
"45 0 LINE"
);
},
{
closed = 1;
nodes = (
"486 -216 OFFCURVE",
"524 -210 OFFCURVE",
"550 -201 CURVE",
"550 -105 LINE",
"535 -113 OFFCURVE",
"518 -117 OFFCURVE",
"502 -117 CURVE SMOOTH",
"481 -117 OFFCURVE",
"468 -104 OFFCURVE",
"468 -84 CURVE SMOOTH",
"468 -55 OFFCURVE",
"493 -29 OFFCURVE",
"547 0 CURVE",
"387 0 LINE",
"345 -25 OFFCURVE",
"316 -66 OFFCURVE",
"316 -119 CURVE SMOOTH",
"316 -187 OFFCURVE",
"374 -216 OFFCURVE",
"447 -216 CURVE SMOOTH"
);
}
);
width = 575;
}
);
leftKerningGroup = E;
note = Eogonek;
rightKerningGroup = E;
unicode = 0118;
},
{
glyphname = Etilde;
lastChange = "2015-11-30 01:35:33 +0000";
layers = (
{
layerId = "16D28EA7-B5BE-4679-9A6B-BACE87874A93";
name = Bold;
paths = (
{
closed = 1;
nodes = (
"541 0 LINE",
"541 149 LINE",
"222 149 LINE",
"222 280 LINE",
"455 280 LINE",
"455 419 LINE",
"222 419 LINE",
"222 550 LINE",
"541 550 LINE",
"541 699 LINE",
"45 699 LINE",
"45 0 LINE"
);
},
{
closed = 1;
nodes = (
"137 779 OFFCURVE",
"172 793 OFFCURVE",
"211 793 CURVE SMOOTH",
"275 793 OFFCURVE",
"335 743 OFFCURVE",
"408 743 CURVE SMOOTH",
"452 743 OFFCURVE",
"488 754 OFFCURVE",
"513 784 CURVE",
"513 912 LINE",
"483 876 OFFCURVE",
"448 862 OFFCURVE",
"408 862 CURVE SMOOTH",
"343 862 OFFCURVE",
"279 912 OFFCURVE",
"211 912 CURVE SMOOTH",
"168 912 OFFCURVE",
"131 900 OFFCURVE",
"106 870 CURVE",
"106 742 LINE"
);
}
);
width = 566;
}
);
leftKerningGroup = E;
note = Etilde;
rightKerningGroup = E;
unicode = 1EBC;
},
{
glyphname = F;
lastChange = "2015-11-30 01:35:30 +0000";
layers = (
{
layerId = "16D28EA7-B5BE-4679-9A6B-BACE87874A93";
name = Bold;
paths = (
{
closed = 1;
nodes = (
"222 0 LINE",
"222 280 LINE",
"455 280 LINE",
"455 419 LINE",
"222 419 LINE",
"222 550 LINE",
"541 550 LINE",
"541 699 LINE",
"45 699 LINE",
"45 0 LINE"
);
}
);
width = 546;
}
);
note = F;
unicode = 0046;
},
{
glyphname = G;
lastChange = "2015-11-30 01:35:30 +0000";
layers = (
{
layerId = "16D28EA7-B5BE-4679-9A6B-BACE87874A93";
name = Bold;
paths = (
{
closed = 1;
nodes = (
"516 -15 OFFCURVE",
"601 8 OFFCURVE",
"670 50 CURVE",
"670 398 LINE",
"395 398 LINE",
"395 274 LINE",
"502 274 LINE",
"502 162 LINE",
"478 150 OFFCURVE",
"450 144 OFFCURVE",
"413 144 CURVE SMOOTH",
"286 144 OFFCURVE",
"207 223 OFFCURVE",
"207 349 CURVE SMOOTH",
"207 474 OFFCURVE",
"299 551 OFFCURVE",
"422 551 CURVE SMOOTH",
"515 551 OFFCURVE",
"589 533 OFFCURVE",
"649 485 CURVE",
"649 653 LINE",
"582 696 OFFCURVE",
"507 714 OFFCURVE",
"406 714 CURVE SMOOTH",
"176 714 OFFCURVE",
"25 574 OFFCURVE",
"25 349 CURVE SMOOTH",
"25 124 OFFCURVE",
"176 -15 OFFCURVE",
"406 -15 CURVE SMOOTH"
);
}
);
width = 695;
}
);
leftKerningGroup = C;
note = G;
unicode = 0047;
},
{
glyphname = Gbreve;
lastChange = "2015-11-30 01:35:32 +0000";
layers = (
{
layerId = "16D28EA7-B5BE-4679-9A6B-BACE87874A93";
name = Bold;
paths = (
{
closed = 1;
nodes = (
"516 -15 OFFCURVE",
"601 8 OFFCURVE",
"670 50 CURVE",
"670 398 LINE",
"395 398 LINE",
"395 274 LINE",
"502 274 LINE",
"502 162 LINE",
"478 150 OFFCURVE",
"450 144 OFFCURVE",
"413 144 CURVE SMOOTH",
"286 144 OFFCURVE",
"207 223 OFFCURVE",
"207 349 CURVE SMOOTH",
"207 474 OFFCURVE",
"299 551 OFFCURVE",
"422 551 CURVE SMOOTH",
"515 551 OFFCURVE",
"589 533 OFFCURVE",
"649 485 CURVE",
"649 653 LINE",
"582 696 OFFCURVE",
"507 714 OFFCURVE",
"406 714 CURVE SMOOTH",
"176 714 OFFCURVE",
"25 574 OFFCURVE",
"25 349 CURVE SMOOTH",
"25 124 OFFCURVE",
"176 -15 OFFCURVE",
"406 -15 CURVE SMOOTH"
);
},
{
closed = 1;
nodes = (
"531 742 OFFCURVE",
"597 810 OFFCURVE",
"597 915 CURVE",
"466 915 LINE",
"466 874 OFFCURVE",
"447 853 OFFCURVE",
"414 853 CURVE SMOOTH",
"380 853 OFFCURVE",
"362 874 OFFCURVE",
"362 915 CURVE",
"231 915 LINE",
"231 810 OFFCURVE",
"297 742 OFFCURVE",
"414 742 CURVE SMOOTH"
);
}
);
width = 695;
}
);
leftKerningGroup = C;
note = Gbreve;
unicode = 011E;
},
{
glyphname = Gcaron;
lastChange = "2015-11-30 01:35:33 +0000";
layers = (
{
layerId = "16D28EA7-B5BE-4679-9A6B-BACE87874A93";
name = Bold;
paths = (
{
closed = 1;
nodes = (
"516 -15 OFFCURVE",
"601 8 OFFCURVE",
"670 50 CURVE",
"670 398 LINE",
"395 398 LINE",
"395 274 LINE",
"502 274 LINE",
"502 162 LINE",
"478 150 OFFCURVE",
"450 144 OFFCURVE",
"413 144 CURVE SMOOTH",
"286 144 OFFCURVE",
"207 223 OFFCURVE",
"207 349 CURVE SMOOTH",
"207 474 OFFCURVE",
"299 551 OFFCURVE",
"422 551 CURVE SMOOTH",
"515 551 OFFCURVE",
"589 533 OFFCURVE",
"649 485 CURVE",
"649 653 LINE",
"582 696 OFFCURVE",
"507 714 OFFCURVE",
"406 714 CURVE SMOOTH",
"176 714 OFFCURVE",
"25 574 OFFCURVE",
"25 349 CURVE SMOOTH",
"25 124 OFFCURVE",
"176 -15 OFFCURVE",
"406 -15 CURVE SMOOTH"
);
},
{
closed = 1;
nodes = (
"448 742 LINE",
"604 923 LINE",
"430 923 LINE",
"370 838 LINE",
"310 923 LINE",
"135 923 LINE",
"291 742 LINE"
);
}
);
width = 695;
}
);
leftKerningGroup = C;
note = Gcaron;
unicode = 01E6;
},
{
glyphname = Gcircumflex;
lastChange = "2015-11-30 01:35:34 +0000";
layers = (
{
layerId = "16D28EA7-B5BE-4679-9A6B-BACE87874A93";
name = Bold;
paths = (
{
closed = 1;
nodes = (
"516 -15 OFFCURVE",
"601 8 OFFCURVE",
"670 50 CURVE",
"670 398 LINE",
"395 398 LINE",
"395 274 LINE",
"502 274 LINE",
"502 162 LINE",
"478 150 OFFCURVE",
"450 144 OFFCURVE",
"413 144 CURVE SMOOTH",
"286 144 OFFCURVE",
"207 223 OFFCURVE",
"207 349 CURVE SMOOTH",
"207 474 OFFCURVE",
"299 551 OFFCURVE",
"422 551 CURVE SMOOTH",
"515 551 OFFCURVE",
"589 533 OFFCURVE",
"649 485 CURVE",
"649 653 LINE",
"582 696 OFFCURVE",
"507 714 OFFCURVE",
"406 714 CURVE SMOOTH",
"176 714 OFFCURVE",
"25 574 OFFCURVE",
"25 349 CURVE SMOOTH",
"25 124 OFFCURVE",
"176 -15 OFFCURVE",
"406 -15 CURVE SMOOTH"
);
},
{
closed = 1;
nodes = (
"337 742 LINE",
"397 827 LINE",
"457 742 LINE",
"631 742 LINE",
"475 923 LINE",
"318 923 LINE",
"162 742 LINE"
);
}
);
width = 695;
}
);
leftKerningGroup = C;
note = Gcircumflex;
unicode = 011C;
},
{
glyphname = Gcommaaccent;
lastChange = "2015-11-30 01:35:33 +0000";
layers = (
{
layerId = "16D28EA7-B5BE-4679-9A6B-BACE87874A93";
name = Bold;
paths = (
{
closed = 1;
nodes = (
"516 -15 OFFCURVE",
"601 8 OFFCURVE",
"670 50 CURVE",
"670 398 LINE",
"395 398 LINE",
"395 274 LINE",
"502 274 LINE",
"502 162 LINE",
"478 150 OFFCURVE",
"450 144 OFFCURVE",
"413 144 CURVE SMOOTH",
"286 144 OFFCURVE",
"207 223 OFFCURVE",
"207 349 CURVE SMOOTH",
"207 474 OFFCURVE",
"299 551 OFFCURVE",
"422 551 CURVE SMOOTH",
"515 551 OFFCURVE",
"589 533 OFFCURVE",
"649 485 CURVE",
"649 653 LINE",
"582 696 OFFCURVE",
"507 714 OFFCURVE",
"406 714 CURVE SMOOTH",
"176 714 OFFCURVE",
"25 574 OFFCURVE",
"25 349 CURVE SMOOTH",
"25 124 OFFCURVE",
"176 -15 OFFCURVE",
"406 -15 CURVE SMOOTH"
);
},
{
closed = 1;
nodes = (
"408 -260 LINE",
"513 -49 LINE",
"331 -49 LINE",
"248 -260 LINE"
);
}
);
width = 695;
}
);
leftKerningGroup = C;
note = Gcommaaccent;
unicode = 0122;
},
{
glyphname = Gdotaccent;
lastChange = "2015-11-30 01:35:33 +0000";
layers = (
{
layerId = "16D28EA7-B5BE-4679-9A6B-BACE87874A93";
name = Bold;
paths = (
{
closed = 1;
nodes = (
"516 -15 OFFCURVE",
"601 8 OFFCURVE",
"670 50 CURVE",
"670 398 LINE",
"395 398 LINE",
"395 274 LINE",
"502 274 LINE",
"502 162 LINE",
"478 150 OFFCURVE",
"450 144 OFFCURVE",
"413 144 CURVE SMOOTH",
"286 144 OFFCURVE",
"207 223 OFFCURVE",
"207 349 CURVE SMOOTH",
"207 474 OFFCURVE",
"299 551 OFFCURVE",
"422 551 CURVE SMOOTH",
"515 551 OFFCURVE",
"589 533 OFFCURVE",
"649 485 CURVE",
"649 653 LINE",
"582 696 OFFCURVE",
"507 714 OFFCURVE",
"406 714 CURVE SMOOTH",
"176 714 OFFCURVE",
"25 574 OFFCURVE",
"25 349 CURVE SMOOTH",
"25 124 OFFCURVE",
"176 -15 OFFCURVE",
"406 -15 CURVE SMOOTH"
);
},
{
closed = 1;
nodes = (
"445 752 OFFCURVE",
"479 785 OFFCURVE",
"479 828 CURVE SMOOTH",
"479 871 OFFCURVE",
"445 906 OFFCURVE",
"403 906 CURVE SMOOTH",
"361 906 OFFCURVE",
"325 871 OFFCURVE",
"325 828 CURVE SMOOTH",
"325 785 OFFCURVE",
"361 752 OFFCURVE",
"403 752 CURVE SMOOTH"
);
}
);
width = 695;
}
);
leftKerningGroup = C;
note = Gdotaccent;
unicode = 0120;
},
{
glyphname = Gmacron;
lastChange = "2015-11-30 01:35:33 +0000";
layers = (
{
layerId = "16D28EA7-B5BE-4679-9A6B-BACE87874A93";
name = Bold;
paths = (
{
closed = 1;
nodes = (
"516 -15 OFFCURVE",
"601 8 OFFCURVE",
"670 50 CURVE",
"670 398 LINE",
"395 398 LINE",
"395 274 LINE",
"502 274 LINE",
"502 162 LINE",
"478 150 OFFCURVE",
"450 144 OFFCURVE",
"413 144 CURVE SMOOTH",
"286 144 OFFCURVE",
"207 223 OFFCURVE",
"207 349 CURVE SMOOTH",
"207 474 OFFCURVE",
"299 551 OFFCURVE",
"422 551 CURVE SMOOTH",
"515 551 OFFCURVE",
"589 533 OFFCURVE",
"649 485 CURVE",
"649 653 LINE",
"582 696 OFFCURVE",
"507 714 OFFCURVE",
"406 714 CURVE SMOOTH",
"176 714 OFFCURVE",
"25 574 OFFCURVE",
"25 349 CURVE SMOOTH",
"25 124 OFFCURVE",
"176 -15 OFFCURVE",
"406 -15 CURVE SMOOTH"
);
},
{
closed = 1;
nodes = (
"585 752 LINE",
"585 865 LINE",
"240 865 LINE",
"240 752 LINE"
);
}
);
width = 695;
}
);
leftKerningGroup = C;
note = Gmacron;
unicode = 1E20;
},
{
glyphname = H;
lastChange = "2015-11-30 01:35:30 +0000";
layers = (
{
layerId = "16D28EA7-B5BE-4679-9A6B-BACE87874A93";
name = Bold;
paths = (
{
closed = 1;
nodes = (
"222 0 LINE",
"222 282 LINE",
"496 282 LINE",
"496 0 LINE",
"673 0 LINE",
"673 699 LINE",
"496 699 LINE",
"496 429 LINE",
"222 429 LINE",
"222 699 LINE",
"45 699 LINE",
"45 0 LINE"
);
}
);
width = 718;
}
);
note = H;
unicode = 0048;
},
{
glyphname = Hbar;
lastChange = "2015-11-30 01:35:33 +0000";
layers = (
{
layerId = "16D28EA7-B5BE-4679-9A6B-BACE87874A93";
name = Bold;
paths = (
{
closed = 1;
nodes = (
"263 0 LINE",
"263 270 LINE",
"521 270 LINE",
"521 0 LINE",
"706 0 LINE",
"706 500 LINE",
"752 500 LINE",
"752 634 LINE",
"706 634 LINE",
"706 699 LINE",
"521 699 LINE",
"521 634 LINE",
"263 634 LINE",
"263 699 LINE",
"78 699 LINE",
"78 634 LINE",
"35 634 LINE",
"35 500 LINE",
"78 500 LINE",
"78 0 LINE"
);
},
{
closed = 1;
nodes = (
"263 500 LINE",
"521 500 LINE",
"521 441 LINE",
"263 441 LINE"
);
}
);
width = 787;
}
);
note = Hbar;
unicode = 0126;
},
{
glyphname = Hbrevebelow;
lastChange = "2015-11-30 01:35:33 +0000";
layers = (
{
layerId = "16D28EA7-B5BE-4679-9A6B-BACE87874A93";
name = Bold;
paths = (
{
closed = 1;
nodes = (
"222 0 LINE",
"222 282 LINE",
"496 282 LINE",
"496 0 LINE",
"673 0 LINE",
"673 699 LINE",
"496 699 LINE",
"496 429 LINE",
"222 429 LINE",
"222 699 LINE",
"45 699 LINE",
"45 0 LINE"
);
},
{
closed = 1;
nodes = (
"476 -227 OFFCURVE",
"542 -159 OFFCURVE",
"542 -54 CURVE",
"411 -54 LINE",
"411 -95 OFFCURVE",
"392 -116 OFFCURVE",
"359 -116 CURVE SMOOTH",
"325 -116 OFFCURVE",
"307 -95 OFFCURVE",
"307 -54 CURVE",
"176 -54 LINE",
"176 -159 OFFCURVE",
"242 -227 OFFCURVE",
"359 -227 CURVE SMOOTH"
);
}
);
width = 718;
}
);
note = Hbrevebelow;
unicode = 1E2A;
},
{
glyphname = Hcircumflex;
lastChange = "2015-11-30 01:35:33 +0000";
layers = (
{
layerId = "16D28EA7-B5BE-4679-9A6B-BACE87874A93";
name = Bold;
paths = (
{
closed = 1;
nodes = (
"222 0 LINE",
"222 282 LINE",
"496 282 LINE",
"496 0 LINE",
"673 0 LINE",
"673 699 LINE",
"496 699 LINE",
"496 429 LINE",
"222 429 LINE",
"222 699 LINE",
"45 699 LINE",
"45 0 LINE"
);
},
{
closed = 1;
nodes = (
"300 742 LINE",
"360 827 LINE",
"420 742 LINE",
"594 742 LINE",
"438 923 LINE",
"281 923 LINE",
"125 742 LINE"
);
}
);
width = 718;
}
);
note = Hcircumflex;
unicode = 0124;
},
{
glyphname = Hdotbelow;
lastChange = "2015-11-30 01:35:33 +0000";
layers = (
{
layerId = "16D28EA7-B5BE-4679-9A6B-BACE87874A93";
name = Bold;
paths = (
{
closed = 1;
nodes = (
"222 0 LINE",
"222 282 LINE",
"496 282 LINE",
"496 0 LINE",
"673 0 LINE",
"673 699 LINE",
"496 699 LINE",
"496 429 LINE",
"222 429 LINE",
"222 699 LINE",
"45 699 LINE",
"45 0 LINE"
);
},
{
closed = 1;
nodes = (
"402 -200 OFFCURVE",
"436 -166 OFFCURVE",
"436 -123 CURVE SMOOTH",
"436 -80 OFFCURVE",
"402 -46 OFFCURVE",
"360 -46 CURVE SMOOTH",
"318 -46 OFFCURVE",
"282 -80 OFFCURVE",
"282 -123 CURVE SMOOTH",
"282 -166 OFFCURVE",
"318 -200 OFFCURVE",
"360 -200 CURVE SMOOTH"
);
}
);
width = 718;
}
);
note = Hdotbelow;
unicode = 1E24;
},
{
glyphname = I;
lastChange = "2015-11-30 01:35:30 +0000";
layers = (
{
layerId = "16D28EA7-B5BE-4679-9A6B-BACE87874A93";
name = Bold;
paths = (
{
closed = 1;
nodes = (
"222 0 LINE",
"222 699 LINE",
"45 699 LINE",
"45 0 LINE"
);
}
);
width = 267;
}
);
note = I;
unicode = 0049;
},
{
glyphname = IJ;
lastChange = "2015-11-30 01:35:33 +0000";
layers = (
{
layerId = "16D28EA7-B5BE-4679-9A6B-BACE87874A93";
name = Bold;
paths = (
{
closed = 1;
nodes = (
"546 -15 OFFCURVE",
"619 76 OFFCURVE",
"619 209 CURVE SMOOTH",
"619 699 LINE",
"442 699 LINE",
"442 229 LINE SMOOTH",
"442 172 OFFCURVE",
"422 149 OFFCURVE",
"362 149 CURVE SMOOTH",
"332 149 OFFCURVE",
"297 154 OFFCURVE",
"276 164 CURVE",
"276 8 LINE",
"300 -5 OFFCURVE",
"357 -15 OFFCURVE",
"400 -15 CURVE SMOOTH"
);
},
{
closed = 1;
nodes = (
"222 0 LINE",
"222 699 LINE",
"45 699 LINE",
"45 0 LINE"
);
}
);
width = 659;
}
);
note = IJ;
rightKerningGroup = J;
unicode = 0132;
},
{
glyphname = Iacute;
lastChange = "2015-11-30 01:35:34 +0000";
layers = (
{
layerId = "16D28EA7-B5BE-4679-9A6B-BACE87874A93";
name = Bold;
paths = (
{
closed = 1;
nodes = (
"222 0 LINE",
"222 699 LINE",
"45 699 LINE",
"45 0 LINE"
);
},
{
closed = 1;
nodes = (
"212 742 LINE",
"303 920 LINE",
"118 920 LINE",
"49 742 LINE"
);
}
);
width = 267;
}
);
note = Iacute;
unicode = 00CD;
},
{
glyphname = Ibreve;
lastChange = "2015-11-30 01:35:33 +0000";
layers = (
{
layerId = "16D28EA7-B5BE-4679-9A6B-BACE87874A93";
name = Bold;
paths = (
{
closed = 1;
nodes = (
"222 0 LINE",
"222 699 LINE",
"45 699 LINE",
"45 0 LINE"
);
},
{
closed = 1;
nodes = (
"250 742 OFFCURVE",
"316 810 OFFCURVE",
"316 915 CURVE",
"185 915 LINE",
"185 874 OFFCURVE",
"166 853 OFFCURVE",
"133 853 CURVE SMOOTH",
"99 853 OFFCURVE",
"81 874 OFFCURVE",
"81 915 CURVE",
"-50 915 LINE",
"-50 810 OFFCURVE",
"16 742 OFFCURVE",
"133 742 CURVE SMOOTH"
);
}
);
width = 267;
}
);
note = Ibreve;
unicode = 012C;
},
{
glyphname = Icaron;
lastChange = "2015-11-30 01:35:33 +0000";
layers = (
{
layerId = "16D28EA7-B5BE-4679-9A6B-BACE87874A93";
name = Bold;
paths = (
{
closed = 1;
nodes = (
"222 0 LINE",
"222 699 LINE",
"45 699 LINE",
"45 0 LINE"
);
},
{
closed = 1;
nodes = (
"211 742 LINE",
"367 923 LINE",
"193 923 LINE",
"133 838 LINE",
"73 923 LINE",
"-102 923 LINE",
"54 742 LINE"
);
}
);
width = 267;
}
);
note = Icaron;
unicode = 01CF;
},
{
glyphname = Icircumflex;
lastChange = "2015-11-30 01:35:33 +0000";
layers = (
{
layerId = "16D28EA7-B5BE-4679-9A6B-BACE87874A93";
name = Bold;
paths = (
{
closed = 1;
nodes = (
"222 0 LINE",
"222 699 LINE",
"45 699 LINE",
"45 0 LINE"
);
},
{
closed = 1;
nodes = (
"74 742 LINE",
"134 827 LINE",
"194 742 LINE",
"368 742 LINE",
"212 923 LINE",
"55 923 LINE",
"-101 742 LINE"
);
}
);
width = 267;
}
);
note = Icircumflex;
unicode = 00CE;
},
{
glyphname = Idieresis;
lastChange = "2015-11-30 01:35:32 +0000";
layers = (
{
layerId = "16D28EA7-B5BE-4679-9A6B-BACE87874A93";
name = Bold;
paths = (
{
closed = 1;
nodes = (
"222 0 LINE",
"222 699 LINE",
"45 699 LINE",
"45 0 LINE"
);
},
{
closed = 1;
nodes = (
"58 752 OFFCURVE",
"92 785 OFFCURVE",
"92 828 CURVE SMOOTH",
"92 871 OFFCURVE",
"58 906 OFFCURVE",
"16 906 CURVE SMOOTH",
"-26 906 OFFCURVE",
"-62 871 OFFCURVE",
"-62 828 CURVE SMOOTH",
"-62 785 OFFCURVE",
"-26 752 OFFCURVE",
"16 752 CURVE SMOOTH"
);
},
{
closed = 1;
nodes = (
"293 752 OFFCURVE",
"328 785 OFFCURVE",
"328 828 CURVE SMOOTH",
"328 871 OFFCURVE",
"293 906 OFFCURVE",
"252 906 CURVE SMOOTH",
"210 906 OFFCURVE",
"174 871 OFFCURVE",
"174 828 CURVE SMOOTH",
"174 785 OFFCURVE",
"210 752 OFFCURVE",
"252 752 CURVE SMOOTH"
);
}
);
width = 267;
}
);
note = Idieresis;
unicode = 00CF;
},
{
glyphname = Idotaccent;
lastChange = "2015-11-30 01:35:33 +0000";
layers = (
{
layerId = "16D28EA7-B5BE-4679-9A6B-BACE87874A93";
name = Bold;
paths = (
{
closed = 1;
nodes = (
"222 0 LINE",
"222 699 LINE",
"45 699 LINE",
"45 0 LINE"
);
},
{
closed = 1;
nodes = (
"176 752 OFFCURVE",
"210 785 OFFCURVE",
"210 828 CURVE SMOOTH",
"210 871 OFFCURVE",
"176 906 OFFCURVE",
"134 906 CURVE SMOOTH",
"92 906 OFFCURVE",
"56 871 OFFCURVE",
"56 828 CURVE SMOOTH",
"56 785 OFFCURVE",
"92 752 OFFCURVE",
"134 752 CURVE SMOOTH"
);
}
);
width = 267;
}
);
note = Idotaccent;
unicode = 0130;
},
{
glyphname = Idotbelow;
lastChange = "2015-11-30 01:35:33 +0000";
layers = (
{
layerId = "16D28EA7-B5BE-4679-9A6B-BACE87874A93";
name = Bold;
paths = (
{
closed = 1;
nodes = (
"222 0 LINE",
"222 699 LINE",
"45 699 LINE",
"45 0 LINE"
);
},
{
closed = 1;
nodes = (
"176 -200 OFFCURVE",
"210 -166 OFFCURVE",
"210 -123 CURVE SMOOTH",
"210 -80 OFFCURVE",
"176 -46 OFFCURVE",
"134 -46 CURVE SMOOTH",
"92 -46 OFFCURVE",
"56 -80 OFFCURVE",
"56 -123 CURVE SMOOTH",
"56 -166 OFFCURVE",
"92 -200 OFFCURVE",
"134 -200 CURVE SMOOTH"
);
}
);
width = 267;
}
);
note = Idotbelow;
unicode = 1ECA;
},
{
glyphname = Igrave;
lastChange = "2015-11-30 01:35:34 +0000";
layers = (
{
layerId = "16D28EA7-B5BE-4679-9A6B-BACE87874A93";
name = Bold;
paths = (
{
closed = 1;
nodes = (
"222 0 LINE",
"222 699 LINE",
"45 699 LINE",
"45 0 LINE"
);
},
{
closed = 1;
nodes = (
"218 742 LINE",
"149 920 LINE",
"-36 920 LINE",
"55 742 LINE"
);
}
);
width = 267;
}
);
note = Igrave;
unicode = 00CC;
},
{
glyphname = Ihookabove;
lastChange = "2015-11-30 01:35:32 +0000";
layers = (
{
layerId = "16D28EA7-B5BE-4679-9A6B-BACE87874A93";
name = Bold;
paths = (
{
closed = 1;
nodes = (
"222 0 LINE",
"222 699 LINE",
"45 699 LINE",
"45 0 LINE"
);
},
{
closed = 1;
nodes = (
"210 742 LINE",
"210 767 LINE",
"266 781 OFFCURVE",
"298 821 OFFCURVE",
"298 869 CURVE SMOOTH",
"298 932 OFFCURVE",
"246 975 OFFCURVE",
"140 975 CURVE SMOOTH",
"100 975 OFFCURVE",
"49 968 OFFCURVE",
"20 959 CURVE",
"20 875 LINE",
"33 881 OFFCURVE",
"61 885 OFFCURVE",
"77 885 CURVE SMOOTH",
"119 885 OFFCURVE",
"136 873 OFFCURVE",
"136 852 CURVE SMOOTH",
"136 821 OFFCURVE",
"104 812 OFFCURVE",
"56 812 CURVE",
"56 742 LINE"
);
}
);
width = 267;
}
);
note = Ihookabove;
unicode = 1EC8;
},
{
glyphname = Imacron;
lastChange = "2015-11-30 01:35:34 +0000";
layers = (
{
layerId = "16D28EA7-B5BE-4679-9A6B-BACE87874A93";
name = Bold;
paths = (
{
closed = 1;
nodes = (
"222 0 LINE",
"222 699 LINE",
"45 699 LINE",
"45 0 LINE"
);
},
{
closed = 1;
nodes = (
"313 752 LINE",
"313 865 LINE",
"-46 865 LINE",
"-46 752 LINE"
);
}
);
width = 267;
}
);
note = Imacron;
unicode = 012A;
},
{
glyphname = Iogonek;
lastChange = "2015-11-30 01:35:33 +0000";
layers = (
{
layerId = "16D28EA7-B5BE-4679-9A6B-BACE87874A93";
name = Bold;
paths = (
{
closed = 1;
nodes = (
"222 0 LINE",
"222 699 LINE",
"45 699 LINE",
"45 0 LINE"
);
},
{
closed = 1;
nodes = (
"155 -216 OFFCURVE",
"193 -210 OFFCURVE",
"219 -201 CURVE",
"219 -105 LINE",
"204 -113 OFFCURVE",
"187 -117 OFFCURVE",
"171 -117 CURVE SMOOTH",
"150 -117 OFFCURVE",
"137 -104 OFFCURVE",
"137 -84 CURVE SMOOTH",
"137 -55 OFFCURVE",
"162 -29 OFFCURVE",
"216 0 CURVE",
"56 0 LINE",
"14 -25 OFFCURVE",
"-15 -66 OFFCURVE",
"-15 -119 CURVE SMOOTH",
"-15 -187 OFFCURVE",
"43 -216 OFFCURVE",
"116 -216 CURVE SMOOTH"
);
}
);
width = 267;
}
);
note = Iogonek;
unicode = 012E;
},
{
glyphname = Itilde;
lastChange = "2015-11-30 01:35:33 +0000";
layers = (
{
layerId = "16D28EA7-B5BE-4679-9A6B-BACE87874A93";
name = Bold;
paths = (
{
closed = 1;
nodes = (
"222 0 LINE",
"222 699 LINE",
"45 699 LINE",
"45 0 LINE"
);
},
{
closed = 1;
nodes = (
"-38 779 OFFCURVE",
"-3 793 OFFCURVE",
"36 793 CURVE SMOOTH",
"100 793 OFFCURVE",
"160 743 OFFCURVE",
"233 743 CURVE SMOOTH",
"277 743 OFFCURVE",
"313 754 OFFCURVE",
"338 784 CURVE",
"338 912 LINE",
"308 876 OFFCURVE",
"273 862 OFFCURVE",
"233 862 CURVE SMOOTH",
"168 862 OFFCURVE",
"104 912 OFFCURVE",
"36 912 CURVE SMOOTH",
"-7 912 OFFCURVE",
"-44 900 OFFCURVE",
"-69 870 CURVE",
"-69 742 LINE"
);
}
);
width = 267;
}
);
note = Itilde;
unicode = 0128;
},
{
glyphname = J;
lastChange = "2015-11-30 01:35:30 +0000";
layers = (
{
layerId = "16D28EA7-B5BE-4679-9A6B-BACE87874A93";
name = Bold;
paths = (
{
closed = 1;
nodes = (
"275 -15 OFFCURVE",
"348 76 OFFCURVE",
"348 209 CURVE SMOOTH",
"348 699 LINE",
"171 699 LINE",
"171 229 LINE SMOOTH",
"171 172 OFFCURVE",
"151 149 OFFCURVE",
"91 149 CURVE SMOOTH",
"61 149 OFFCURVE",
"26 154 OFFCURVE",
"5 164 CURVE",
"5 8 LINE",
"29 -5 OFFCURVE",
"86 -15 OFFCURVE",
"129 -15 CURVE SMOOTH"
);
}
);
width = 388;
}
);
note = J;
rightKerningGroup = J;
unicode = 004A;
},
{
glyphname = Jcircumflex;
lastChange = "2015-11-30 01:35:33 +0000";
layers = (
{
layerId = "16D28EA7-B5BE-4679-9A6B-BACE87874A93";
name = Bold;
paths = (
{
closed = 1;
nodes = (
"275 -15 OFFCURVE",
"348 76 OFFCURVE",
"348 209 CURVE SMOOTH",
"348 699 LINE",
"171 699 LINE",
"171 229 LINE SMOOTH",
"171 172 OFFCURVE",
"151 149 OFFCURVE",
"91 149 CURVE SMOOTH",
"61 149 OFFCURVE",
"26 154 OFFCURVE",
"5 164 CURVE",
"5 8 LINE",
"29 -5 OFFCURVE",
"86 -15 OFFCURVE",
"129 -15 CURVE SMOOTH"
);
},
{
closed = 1;
nodes = (
"196 742 LINE",
"256 827 LINE",
"316 742 LINE",
"490 742 LINE",
"334 923 LINE",
"177 923 LINE",
"21 742 LINE"
);
}
);
width = 388;
}
);
note = Jcircumflex;
rightKerningGroup = J;
unicode = 0134;
},
{
glyphname = K;
lastChange = "2015-11-30 01:35:30 +0000";
layers = (
{
layerId = "16D28EA7-B5BE-4679-9A6B-BACE87874A93";
name = Bold;
paths = (
{
closed = 1;
nodes = (
"222 0 LINE",
"222 309 LINE",
"482 0 LINE",
"692 0 LINE",
"390 359 LINE",
"673 699 LINE",
"463 699 LINE",
"222 409 LINE",
"222 699 LINE",
"45 699 LINE",
"45 0 LINE"
);
}
);
width = 717;
}
);
leftKerningGroup = K;
note = K;
rightKerningGroup = K;
unicode = 004B;
},
{
glyphname = Kcommaaccent;
lastChange = "2015-11-30 01:35:34 +0000";
layers = (
{
layerId = "16D28EA7-B5BE-4679-9A6B-BACE87874A93";
name = Bold;
paths = (
{
closed = 1;
nodes = (
"222 0 LINE",
"222 309 LINE",
"482 0 LINE",
"692 0 LINE",
"390 359 LINE",
"673 699 LINE",
"463 699 LINE",
"222 409 LINE",
"222 699 LINE",
"45 699 LINE",
"45 0 LINE"
);
},
{
closed = 1;
nodes = (
"336 -260 LINE",
"441 -49 LINE",
"259 -49 LINE",
"176 -260 LINE"
);
}
);
width = 717;
}
);
leftKerningGroup = K;
note = Kcommaaccent;
rightKerningGroup = K;
unicode = 0136;
},
{
glyphname = L;
lastChange = "2015-11-30 01:35:30 +0000";
layers = (
{
layerId = "16D28EA7-B5BE-4679-9A6B-BACE87874A93";
name = Bold;
paths = (
{
closed = 1;
nodes = (
"526 0 LINE",
"526 149 LINE",
"222 149 LINE",
"222 699 LINE",
"45 699 LINE",
"45 0 LINE"
);
}
);
width = 531;
}
);
note = L;
rightKerningGroup = L;
unicode = 004C;
},
{
glyphname = Lacute;
lastChange = "2015-11-30 01:35:33 +0000";
layers = (
{
layerId = "16D28EA7-B5BE-4679-9A6B-BACE87874A93";
name = Bold;
paths = (
{
closed = 1;
nodes = (
"526 0 LINE",
"526 149 LINE",
"222 149 LINE",
"222 699 LINE",
"45 699 LINE",
"45 0 LINE"
);
},
{
closed = 1;
nodes = (
"220 742 LINE",
"311 920 LINE",
"126 920 LINE",
"57 742 LINE"
);
}
);
width = 531;
}
);
note = Lacute;
rightKerningGroup = L;
unicode = 0139;
},
{
glyphname = Lcaron;
lastChange = "2015-11-30 01:35:33 +0000";
layers = (
{
layerId = "16D28EA7-B5BE-4679-9A6B-BACE87874A93";
name = Bold;
paths = (
{
closed = 1;
nodes = (
"526 0 LINE",
"526 149 LINE",
"222 149 LINE",
"222 699 LINE",
"45 699 LINE",
"45 0 LINE"
);
},
{
closed = 1;
nodes = (
"464 503 LINE",
"569 714 LINE",
"387 714 LINE",
"304 503 LINE"
);
}
);
width = 523;
}
);
note = Lcaron;
rightKerningGroup = L;
unicode = 013D;
},
{
glyphname = Lcommaaccent;
lastChange = "2015-11-30 01:35:33 +0000";
layers = (
{
layerId = "16D28EA7-B5BE-4679-9A6B-BACE87874A93";
name = Bold;
paths = (
{
closed = 1;
nodes = (
"526 0 LINE",
"526 149 LINE",
"222 149 LINE",
"222 699 LINE",
"45 699 LINE",
"45 0 LINE"
);
},
{
closed = 1;
nodes = (
"293 -260 LINE",
"398 -49 LINE",
"216 -49 LINE",
"133 -260 LINE"
);
}
);
width = 531;
}
);
note = Lcommaaccent;
rightKerningGroup = L;
unicode = 013B;
},
{
glyphname = Ldot;
lastChange = "2015-11-30 01:35:33 +0000";
layers = (
{
layerId = "16D28EA7-B5BE-4679-9A6B-BACE87874A93";
name = Bold;
paths = (
{
closed = 1;
nodes = (
"526 0 LINE",
"526 149 LINE",
"222 149 LINE",
"222 699 LINE",
"45 699 LINE",
"45 0 LINE"
);
},
{
closed = 1;
nodes = (
"438 318 OFFCURVE",
"472 351 OFFCURVE",
"472 394 CURVE SMOOTH",
"472 437 OFFCURVE",
"438 472 OFFCURVE",
"396 472 CURVE SMOOTH",
"354 472 OFFCURVE",
"318 437 OFFCURVE",
"318 394 CURVE SMOOTH",
"318 351 OFFCURVE",
"354 318 OFFCURVE",
"396 318 CURVE SMOOTH"
);
}
);
width = 531;
}
);
note = Ldot;
rightKerningGroup = L;
unicode = 013F;
},
{
glyphname = Ldotbelow;
lastChange = "2015-11-30 01:35:33 +0000";
layers = (
{
layerId = "16D28EA7-B5BE-4679-9A6B-BACE87874A93";
name = Bold;
paths = (
{
closed = 1;
nodes = (
"526 0 LINE",
"526 149 LINE",
"222 149 LINE",
"222 699 LINE",
"45 699 LINE",
"45 0 LINE"
);
},
{
closed = 1;
nodes = (
"320 -200 OFFCURVE",
"354 -166 OFFCURVE",
"354 -123 CURVE SMOOTH",
"354 -80 OFFCURVE",
"320 -46 OFFCURVE",
"278 -46 CURVE SMOOTH",
"236 -46 OFFCURVE",
"200 -80 OFFCURVE",
"200 -123 CURVE SMOOTH",
"200 -166 OFFCURVE",
"236 -200 OFFCURVE",
"278 -200 CURVE SMOOTH"
);
}
);
width = 531;
}
);
note = Ldotbelow;
rightKerningGroup = L;
unicode = 1E36;
},
{
glyphname = Ldotbelowmacron;
lastChange = "2015-11-30 01:35:33 +0000";
layers = (
{
layerId = "16D28EA7-B5BE-4679-9A6B-BACE87874A93";
name = Bold;
paths = (
{
closed = 1;
nodes = (
"508 0 LINE",
"508 149 LINE",
"204 149 LINE",
"204 699 LINE",
"27 699 LINE",
"27 0 LINE"
);
},
{
closed = 1;
nodes = (
"313 -200 OFFCURVE",
"347 -166 OFFCURVE",
"347 -123 CURVE SMOOTH",
"347 -80 OFFCURVE",
"313 -46 OFFCURVE",
"271 -46 CURVE SMOOTH",
"229 -46 OFFCURVE",
"193 -80 OFFCURVE",
"193 -123 CURVE SMOOTH",
"193 -166 OFFCURVE",
"229 -200 OFFCURVE",
"271 -200 CURVE SMOOTH"
);
},
{
closed = 1;
nodes = (
"350 752 LINE",
"350 865 LINE",
"5 865 LINE",
"5 752 LINE"
);
}
);
width = 513;
}
);
note = Ldotbelowmacron;
rightKerningGroup = L;
unicode = 1E38;
},
{
glyphname = Llinebelow;
lastChange = "2015-11-30 01:35:33 +0000";
layers = (
{
layerId = "16D28EA7-B5BE-4679-9A6B-BACE87874A93";
name = Bold;
paths = (
{
closed = 1;
nodes = (
"526 0 LINE",
"526 149 LINE",
"222 149 LINE",
"222 699 LINE",
"45 699 LINE",
"45 0 LINE"
);
},
{
closed = 1;
nodes = (
"457 -172 LINE",
"457 -59 LINE",
"112 -59 LINE",
"112 -172 LINE"
);
}
);
width = 531;
}
);
note = Llinebelow;
rightKerningGroup = L;
unicode = 1E3A;
},
{
glyphname = Lslash;
lastChange = "2015-11-30 01:35:30 +0000";
layers = (
{
layerId = "16D28EA7-B5BE-4679-9A6B-BACE87874A93";
name = Bold;
paths = (
{
closed = 1;
nodes = (
"542 0 LINE",
"542 155 LINE",
"247 155 LINE",
"247 339 LINE",
"381 399 LINE",
"381 568 LINE",
"247 508 LINE",
"247 699 LINE",
"62 699 LINE",
"62 425 LINE",
"-15 391 LINE",
"-15 222 LINE",
"62 256 LINE",
"62 0 LINE"
);
}
);
width = 547;
}
);
note = Lslash;
rightKerningGroup = L;
unicode = 0141;
},
{
glyphname = M;
lastChange = "2015-11-30 01:35:30 +0000";
layers = (
{
layerId = "16D28EA7-B5BE-4679-9A6B-BACE87874A93";
name = Bold;
paths = (
{
closed = 1;
nodes = (
"211 0 LINE",
"211 351 LINE",
"377 0 LINE",
"457 0 LINE",
"624 351 LINE",
"624 0 LINE",
"789 0 LINE",
"789 699 LINE",
"620 699 LINE",
"417 266 LINE",
"215 699 LINE",
"45 699 LINE",
"45 0 LINE"
);
}
);
width = 834;
}
);
note = M;
unicode = 004D;
},
{
glyphname = Mdotbelow;
lastChange = "2015-11-30 01:35:33 +0000";
layers = (
{
layerId = "16D28EA7-B5BE-4679-9A6B-BACE87874A93";
name = Bold;
paths = (
{
closed = 1;
nodes = (
"211 0 LINE",
"211 351 LINE",
"377 0 LINE",
"457 0 LINE",
"624 351 LINE",
"624 0 LINE",
"789 0 LINE",
"789 699 LINE",
"620 699 LINE",
"417 266 LINE",
"215 699 LINE",
"45 699 LINE",
"45 0 LINE"
);
},
{
closed = 1;
nodes = (
"460 -200 OFFCURVE",
"494 -166 OFFCURVE",
"494 -123 CURVE SMOOTH",
"494 -80 OFFCURVE",
"460 -46 OFFCURVE",
"418 -46 CURVE SMOOTH",
"376 -46 OFFCURVE",
"340 -80 OFFCURVE",
"340 -123 CURVE SMOOTH",
"340 -166 OFFCURVE",
"376 -200 OFFCURVE",
"418 -200 CURVE SMOOTH"
);
}
);
width = 834;
}
);
note = Mdotbelow;
unicode = 1E42;
},
{
glyphname = N;
lastChange = "2015-11-30 01:35:30 +0000";
layers = (
{
layerId = "16D28EA7-B5BE-4679-9A6B-BACE87874A93";
name = Bold;
paths = (
{
closed = 1;
nodes = (
"222 0 LINE",
"222 417 LINE",
"480 0 LINE",
"654 0 LINE",
"654 699 LINE",
"477 699 LINE",
"477 283 LINE",
"220 699 LINE",
"45 699 LINE",
"45 0 LINE"
);
}
);
width = 699;
}
);
note = N;
unicode = 004E;
},
{
glyphname = Nacute;
lastChange = "2015-11-30 01:35:33 +0000";
layers = (
{
layerId = "16D28EA7-B5BE-4679-9A6B-BACE87874A93";
name = Bold;
paths = (
{
closed = 1;
nodes = (
"222 0 LINE",
"222 417 LINE",
"480 0 LINE",
"654 0 LINE",
"654 699 LINE",
"477 699 LINE",
"477 283 LINE",
"220 699 LINE",
"45 699 LINE",
"45 0 LINE"
);
},
{
closed = 1;
nodes = (
"427 742 LINE",
"518 920 LINE",
"333 920 LINE",
"264 742 LINE"
);
}
);
width = 699;
}
);
note = Nacute;
unicode = 0143;
},
{
glyphname = Ncaron;
lastChange = "2015-11-30 01:35:33 +0000";
layers = (
{
layerId = "16D28EA7-B5BE-4679-9A6B-BACE87874A93";
name = Bold;
paths = (
{
closed = 1;
nodes = (
"222 0 LINE",
"222 417 LINE",
"480 0 LINE",
"654 0 LINE",
"654 699 LINE",
"477 699 LINE",
"477 283 LINE",
"220 699 LINE",
"45 699 LINE",
"45 0 LINE"
);
},
{
closed = 1;
nodes = (
"433 742 LINE",
"589 923 LINE",
"415 923 LINE",
"355 838 LINE",
"295 923 LINE",
"120 923 LINE",
"276 742 LINE"
);
}
);
width = 699;
}
);
note = Ncaron;
unicode = 0147;
},
{
glyphname = Ncommaaccent;
lastChange = "2015-11-30 01:35:33 +0000";
layers = (
{
layerId = "16D28EA7-B5BE-4679-9A6B-BACE87874A93";
name = Bold;
paths = (
{
closed = 1;
nodes = (
"222 0 LINE",
"222 417 LINE",
"480 0 LINE",
"654 0 LINE",
"654 699 LINE",
"477 699 LINE",
"477 283 LINE",
"220 699 LINE",
"45 699 LINE",
"45 0 LINE"
);
},
{
closed = 1;
nodes = (
"348 -260 LINE",
"453 -49 LINE",
"271 -49 LINE",
"188 -260 LINE"
);
}
);
width = 699;
}
);
note = Ncommaaccent;
unicode = 0145;
},
{
glyphname = Ndotaccent;
lastChange = "2015-11-30 01:35:33 +0000";
layers = (
{
layerId = "16D28EA7-B5BE-4679-9A6B-BACE87874A93";
name = Bold;
paths = (
{
closed = 1;
nodes = (
"222 0 LINE",
"222 417 LINE",
"480 0 LINE",
"654 0 LINE",
"654 699 LINE",
"477 699 LINE",
"477 283 LINE",
"220 699 LINE",
"45 699 LINE",
"45 0 LINE"
);
},
{
closed = 1;
nodes = (
"406 752 OFFCURVE",
"440 785 OFFCURVE",
"440 828 CURVE SMOOTH",
"440 871 OFFCURVE",
"406 906 OFFCURVE",
"364 906 CURVE SMOOTH",
"322 906 OFFCURVE",
"286 871 OFFCURVE",
"286 828 CURVE SMOOTH",
"286 785 OFFCURVE",
"322 752 OFFCURVE",
"364 752 CURVE SMOOTH"
);
}
);
width = 699;
}
);
note = Ndotaccent;
unicode = 1E44;
},
{
glyphname = Ndotbelow;
lastChange = "2015-11-30 01:35:33 +0000";
layers = (
{
layerId = "16D28EA7-B5BE-4679-9A6B-BACE87874A93";
name = Bold;
paths = (
{
closed = 1;
nodes = (
"222 0 LINE",
"222 417 LINE",
"480 0 LINE",
"654 0 LINE",
"654 699 LINE",
"477 699 LINE",
"477 283 LINE",
"220 699 LINE",
"45 699 LINE",
"45 0 LINE"
);
},
{
closed = 1;
nodes = (
"405 -200 OFFCURVE",
"439 -166 OFFCURVE",
"439 -123 CURVE SMOOTH",
"439 -80 OFFCURVE",
"405 -46 OFFCURVE",
"363 -46 CURVE SMOOTH",
"321 -46 OFFCURVE",
"285 -80 OFFCURVE",
"285 -123 CURVE SMOOTH",
"285 -166 OFFCURVE",
"321 -200 OFFCURVE",
"363 -200 CURVE SMOOTH"
);
}
);
width = 699;
}
);
note = Ndotbelow;
unicode = 1E46;
},
{
glyphname = Eng;
lastChange = "2015-11-30 01:35:33 +0000";
layers = (
{
layerId = "16D28EA7-B5BE-4679-9A6B-BACE87874A93";
name = Bold;
paths = (
{
closed = 1;
nodes = (
"222 0 LINE",
"222 417 LINE",
"480 0 LINE",
"654 0 LINE",
"654 699 LINE",
"477 699 LINE",
"477 283 LINE",
"220 699 LINE",
"45 699 LINE",
"45 0 LINE"
);
},
{
closed = 1;
nodes = (
"572 -231 OFFCURVE",
"666 -170 OFFCURVE",
"666 -36 CURVE SMOOTH",
"666 480 LINE",
"491 480 LINE",
"491 -15 LINE SMOOTH",
"491 -66 OFFCURVE",
"464 -88 OFFCURVE",
"419 -88 CURVE SMOOTH",
"391 -88 OFFCURVE",
"370 -83 OFFCURVE",
"351 -74 CURVE",
"351 -214 LINE",
"375 -225 OFFCURVE",
"407 -231 OFFCURVE",
"447 -231 CURVE SMOOTH"
);
}
);
width = 711;
}
);
note = Eng;
unicode = 014A;
},
{
glyphname = Nlinebelow;
lastChange = "2015-11-30 01:35:33 +0000";
layers = (
{
layerId = "16D28EA7-B5BE-4679-9A6B-BACE87874A93";
name = Bold;
paths = (
{
closed = 1;
nodes = (
"222 0 LINE",
"222 417 LINE",
"480 0 LINE",
"654 0 LINE",
"654 699 LINE",
"477 699 LINE",
"477 283 LINE",
"220 699 LINE",
"45 699 LINE",
"45 0 LINE"
);
},
{
closed = 1;
nodes = (
"538 -172 LINE",
"538 -59 LINE",
"193 -59 LINE",
"193 -172 LINE"
);
}
);
width = 699;
}
);
note = Nlinebelow;
unicode = 1E48;
},
{
glyphname = Ntilde;
lastChange = "2015-11-30 01:35:33 +0000";
layers = (
{
layerId = "16D28EA7-B5BE-4679-9A6B-BACE87874A93";
name = Bold;
paths = (
{
closed = 1;
nodes = (
"222 0 LINE",
"222 417 LINE",
"480 0 LINE",
"654 0 LINE",
"654 699 LINE",
"477 699 LINE",
"477 283 LINE",
"220 699 LINE",
"45 699 LINE",
"45 0 LINE"
);
},
{
closed = 1;
nodes = (
"186 779 OFFCURVE",
"221 793 OFFCURVE",
"260 793 CURVE SMOOTH",
"324 793 OFFCURVE",
"384 743 OFFCURVE",
"457 743 CURVE SMOOTH",
"501 743 OFFCURVE",
"537 754 OFFCURVE",
"562 784 CURVE",
"562 912 LINE",
"532 876 OFFCURVE",
"497 862 OFFCURVE",
"457 862 CURVE SMOOTH",
"392 862 OFFCURVE",
"328 912 OFFCURVE",
"260 912 CURVE SMOOTH",
"217 912 OFFCURVE",
"180 900 OFFCURVE",
"155 870 CURVE",
"155 742 LINE"
);
}
);
width = 699;
}
);
note = Ntilde;
unicode = 00D1;
},
{
glyphname = O;
lastChange = "2015-11-30 01:35:33 +0000";
layers = (
{
layerId = "16D28EA7-B5BE-4679-9A6B-BACE87874A93";
name = Bold;
paths = (
{
closed = 1;
nodes = (
"612 -15 OFFCURVE",
"775 131 OFFCURVE",
"775 349 CURVE SMOOTH",
"775 568 OFFCURVE",
"612 714 OFFCURVE",
"401 714 CURVE SMOOTH",
"189 714 OFFCURVE",
"25 568 OFFCURVE",
"25 349 CURVE SMOOTH",
"25 131 OFFCURVE",
"189 -15 OFFCURVE",
"401 -15 CURVE SMOOTH"
);
},
{
closed = 1;
nodes = (
"293 151 OFFCURVE",
"207 225 OFFCURVE",
"207 349 CURVE SMOOTH",
"207 471 OFFCURVE",
"292 547 OFFCURVE",
"401 547 CURVE SMOOTH",
"509 547 OFFCURVE",
"594 471 OFFCURVE",
"594 349 CURVE SMOOTH",
"594 225 OFFCURVE",
"507 151 OFFCURVE",
"401 151 CURVE SMOOTH"
);
}
);
width = 800;
}
);
leftKerningGroup = O;
note = O;
rightKerningGroup = O;
unicode = 004F;
},
{
glyphname = Oacute;
lastChange = "2015-11-30 01:35:34 +0000";
layers = (
{
layerId = "16D28EA7-B5BE-4679-9A6B-BACE87874A93";
name = Bold;
paths = (
{
closed = 1;
nodes = (
"612 -15 OFFCURVE",
"775 131 OFFCURVE",
"775 349 CURVE SMOOTH",
"775 568 OFFCURVE",
"612 714 OFFCURVE",
"401 714 CURVE SMOOTH",
"189 714 OFFCURVE",
"25 568 OFFCURVE",
"25 349 CURVE SMOOTH",
"25 131 OFFCURVE",
"189 -15 OFFCURVE",
"401 -15 CURVE SMOOTH"
);
},
{
closed = 1;
nodes = (
"293 151 OFFCURVE",
"207 225 OFFCURVE",
"207 349 CURVE SMOOTH",
"207 471 OFFCURVE",
"292 547 OFFCURVE",
"401 547 CURVE SMOOTH",
"509 547 OFFCURVE",
"594 471 OFFCURVE",
"594 349 CURVE SMOOTH",
"594 225 OFFCURVE",
"507 151 OFFCURVE",
"401 151 CURVE SMOOTH"
);
},
{
closed = 1;
nodes = (
"480 742 LINE",
"571 920 LINE",
"386 920 LINE",
"317 742 LINE"
);
}
);
width = 800;
}
);
leftKerningGroup = O;
note = Oacute;
rightKerningGroup = O;
unicode = 00D3;
},
{
glyphname = Obreve;
lastChange = "2015-11-30 01:35:33 +0000";
layers = (
{
layerId = "16D28EA7-B5BE-4679-9A6B-BACE87874A93";
name = Bold;
paths = (
{
closed = 1;
nodes = (
"612 -15 OFFCURVE",
"775 131 OFFCURVE",
"775 349 CURVE SMOOTH",
"775 568 OFFCURVE",
"612 714 OFFCURVE",
"401 714 CURVE SMOOTH",
"189 714 OFFCURVE",
"25 568 OFFCURVE",
"25 349 CURVE SMOOTH",
"25 131 OFFCURVE",
"189 -15 OFFCURVE",
"401 -15 CURVE SMOOTH"
);
},
{
closed = 1;
nodes = (
"293 151 OFFCURVE",
"207 225 OFFCURVE",
"207 349 CURVE SMOOTH",
"207 471 OFFCURVE",
"292 547 OFFCURVE",
"401 547 CURVE SMOOTH",
"509 547 OFFCURVE",
"594 471 OFFCURVE",
"594 349 CURVE SMOOTH",
"594 225 OFFCURVE",
"507 151 OFFCURVE",
"401 151 CURVE SMOOTH"
);
},
{
closed = 1;
nodes = (
"517 742 OFFCURVE",
"583 810 OFFCURVE",
"583 915 CURVE",
"452 915 LINE",
"452 874 OFFCURVE",
"433 853 OFFCURVE",
"400 853 CURVE SMOOTH",
"366 853 OFFCURVE",
"348 874 OFFCURVE",
"348 915 CURVE",
"217 915 LINE",
"217 810 OFFCURVE",
"283 742 OFFCURVE",
"400 742 CURVE SMOOTH"
);
}
);
width = 800;
}
);
leftKerningGroup = O;
note = Obreve;
rightKerningGroup = O;
unicode = 014E;
},
{
glyphname = Ocaron;
lastChange = "2015-11-30 01:35:33 +0000";
layers = (
{
layerId = "16D28EA7-B5BE-4679-9A6B-BACE87874A93";
name = Bold;
paths = (
{
closed = 1;
nodes = (
"612 -15 OFFCURVE",
"775 131 OFFCURVE",
"775 349 CURVE SMOOTH",
"775 568 OFFCURVE",
"612 714 OFFCURVE",
"401 714 CURVE SMOOTH",
"189 714 OFFCURVE",
"25 568 OFFCURVE",
"25 349 CURVE SMOOTH",
"25 131 OFFCURVE",
"189 -15 OFFCURVE",
"401 -15 CURVE SMOOTH"
);
},
{
closed = 1;
nodes = (
"293 151 OFFCURVE",
"207 225 OFFCURVE",
"207 349 CURVE SMOOTH",
"207 471 OFFCURVE",
"292 547 OFFCURVE",
"401 547 CURVE SMOOTH",
"509 547 OFFCURVE",
"594 471 OFFCURVE",
"594 349 CURVE SMOOTH",
"594 225 OFFCURVE",
"507 151 OFFCURVE",
"401 151 CURVE SMOOTH"
);
},
{
closed = 1;
nodes = (
"479 742 LINE",
"635 923 LINE",
"461 923 LINE",
"401 838 LINE",
"341 923 LINE",
"166 923 LINE",
"322 742 LINE"
);
}
);
width = 800;
}
);
leftKerningGroup = O;
note = Ocaron;
rightKerningGroup = O;
unicode = 01D1;
},
{
glyphname = Ocircumflex;
lastChange = "2015-11-30 01:35:33 +0000";
layers = (
{
layerId = "16D28EA7-B5BE-4679-9A6B-BACE87874A93";
name = Bold;
paths = (
{
closed = 1;
nodes = (
"612 -15 OFFCURVE",
"775 131 OFFCURVE",
"775 349 CURVE SMOOTH",
"775 568 OFFCURVE",
"612 714 OFFCURVE",
"401 714 CURVE SMOOTH",
"189 714 OFFCURVE",
"25 568 OFFCURVE",
"25 349 CURVE SMOOTH",
"25 131 OFFCURVE",
"189 -15 OFFCURVE",
"401 -15 CURVE SMOOTH"
);
},
{
closed = 1;
nodes = (
"293 151 OFFCURVE",
"207 225 OFFCURVE",
"207 349 CURVE SMOOTH",
"207 471 OFFCURVE",
"292 547 OFFCURVE",
"401 547 CURVE SMOOTH",
"509 547 OFFCURVE",
"594 471 OFFCURVE",
"594 349 CURVE SMOOTH",
"594 225 OFFCURVE",
"507 151 OFFCURVE",
"401 151 CURVE SMOOTH"
);
},
{
closed = 1;
nodes = (
"341 742 LINE",
"401 827 LINE",
"461 742 LINE",
"635 742 LINE",
"479 923 LINE",
"322 923 LINE",
"166 742 LINE"
);
}
);
width = 800;
}
);
leftKerningGroup = O;
note = Ocircumflex;
rightKerningGroup = O;
unicode = 00D4;
},
{
glyphname = Ocircumflexacute;
lastChange = "2015-11-30 01:35:33 +0000";
layers = (
{
layerId = "16D28EA7-B5BE-4679-9A6B-BACE87874A93";
name = Bold;
paths = (
{
closed = 1;
nodes = (
"612 -15 OFFCURVE",
"775 131 OFFCURVE",
"775 349 CURVE SMOOTH",
"775 568 OFFCURVE",
"612 714 OFFCURVE",
"401 714 CURVE SMOOTH",
"189 714 OFFCURVE",
"25 568 OFFCURVE",
"25 349 CURVE SMOOTH",
"25 131 OFFCURVE",
"189 -15 OFFCURVE",
"401 -15 CURVE SMOOTH"
);
},
{
closed = 1;
nodes = (
"293 151 OFFCURVE",
"207 225 OFFCURVE",
"207 349 CURVE SMOOTH",
"207 471 OFFCURVE",
"292 547 OFFCURVE",
"401 547 CURVE SMOOTH",
"509 547 OFFCURVE",
"594 471 OFFCURVE",
"594 349 CURVE SMOOTH",
"594 225 OFFCURVE",
"507 151 OFFCURVE",
"401 151 CURVE SMOOTH"
);
},
{
closed = 1;
nodes = (
"347 742 LINE",
"405 809 LINE",
"463 742 LINE",
"619 742 LINE",
"467 899 LINE",
"343 899 LINE",
"191 742 LINE"
);
},
{
closed = 1;
nodes = (
"674 858 LINE",
"755 997 LINE",
"593 997 LINE",
"534 858 LINE"
);
}
);
width = 778;
}
);
leftKerningGroup = O;
note = Ocircumflexacute;
rightKerningGroup = O;
unicode = 1ED0;
},
{
glyphname = Ocircumflexdotbelow;
lastChange = "2015-11-30 01:35:33 +0000";
layers = (
{
layerId = "16D28EA7-B5BE-4679-9A6B-BACE87874A93";
name = Bold;
paths = (
{
closed = 1;
nodes = (
"612 -15 OFFCURVE",
"775 131 OFFCURVE",
"775 349 CURVE SMOOTH",
"775 568 OFFCURVE",
"612 714 OFFCURVE",
"401 714 CURVE SMOOTH",
"189 714 OFFCURVE",
"25 568 OFFCURVE",
"25 349 CURVE SMOOTH",
"25 131 OFFCURVE",
"189 -15 OFFCURVE",
"401 -15 CURVE SMOOTH"
);
},
{
closed = 1;
nodes = (
"445 -200 OFFCURVE",
"479 -166 OFFCURVE",
"479 -123 CURVE SMOOTH",
"479 -80 OFFCURVE",
"445 -46 OFFCURVE",
"403 -46 CURVE SMOOTH",
"361 -46 OFFCURVE",
"325 -80 OFFCURVE",
"325 -123 CURVE SMOOTH",
"325 -166 OFFCURVE",
"361 -200 OFFCURVE",
"403 -200 CURVE SMOOTH"
);
},
{
closed = 1;
nodes = (
"293 151 OFFCURVE",
"207 225 OFFCURVE",
"207 349 CURVE SMOOTH",
"207 471 OFFCURVE",
"292 547 OFFCURVE",
"401 547 CURVE SMOOTH",
"509 547 OFFCURVE",
"594 471 OFFCURVE",
"594 349 CURVE SMOOTH",
"594 225 OFFCURVE",
"507 151 OFFCURVE",
"401 151 CURVE SMOOTH"
);
},
{
closed = 1;
nodes = (
"341 742 LINE",
"401 827 LINE",
"461 742 LINE",
"635 742 LINE",
"479 923 LINE",
"322 923 LINE",
"166 742 LINE"
);
}
);
width = 800;
}
);
leftKerningGroup = O;
note = Ocircumflexdotbelow;
rightKerningGroup = O;
unicode = 1ED8;
},
{
glyphname = Ocircumflexgrave;
lastChange = "2015-11-30 01:35:34 +0000";
layers = (
{
layerId = "16D28EA7-B5BE-4679-9A6B-BACE87874A93";
name = Bold;
paths = (
{
closed = 1;
nodes = (
"590 -15 OFFCURVE",
"753 131 OFFCURVE",
"753 349 CURVE SMOOTH",
"753 568 OFFCURVE",
"590 714 OFFCURVE",
"379 714 CURVE SMOOTH",
"167 714 OFFCURVE",
"3 568 OFFCURVE",
"3 349 CURVE SMOOTH",
"3 131 OFFCURVE",
"167 -15 OFFCURVE",
"379 -15 CURVE SMOOTH"
);
},
{
closed = 1;
nodes = (
"271 151 OFFCURVE",
"185 225 OFFCURVE",
"185 349 CURVE SMOOTH",
"185 471 OFFCURVE",
"270 547 OFFCURVE",
"379 547 CURVE SMOOTH",
"487 547 OFFCURVE",
"572 471 OFFCURVE",
"572 349 CURVE SMOOTH",
"572 225 OFFCURVE",
"485 151 OFFCURVE",
"379 151 CURVE SMOOTH"
);
},
{
closed = 1;
nodes = (
"252 858 LINE",
"193 997 LINE",
"31 997 LINE",
"112 858 LINE"
);
},
{
closed = 1;
nodes = (
"323 742 LINE",
"381 809 LINE",
"439 742 LINE",
"595 742 LINE",
"443 899 LINE",
"319 899 LINE",
"167 742 LINE"
);
}
);
width = 778;
}
);
leftKerningGroup = O;
note = Ocircumflexgrave;
rightKerningGroup = O;
unicode = 1ED2;
},
{
glyphname = Ocircumflexhookabove;
lastChange = "2015-11-30 01:35:33 +0000";
layers = (
{
layerId = "16D28EA7-B5BE-4679-9A6B-BACE87874A93";
name = Bold;
paths = (
{
closed = 1;
nodes = (
"612 -15 OFFCURVE",
"775 131 OFFCURVE",
"775 349 CURVE SMOOTH",
"775 568 OFFCURVE",
"612 714 OFFCURVE",
"401 714 CURVE SMOOTH",
"189 714 OFFCURVE",
"25 568 OFFCURVE",
"25 349 CURVE SMOOTH",
"25 131 OFFCURVE",
"189 -15 OFFCURVE",
"401 -15 CURVE SMOOTH"
);
},
{
closed = 1;
nodes = (
"293 151 OFFCURVE",
"207 225 OFFCURVE",
"207 349 CURVE SMOOTH",
"207 471 OFFCURVE",
"292 547 OFFCURVE",
"401 547 CURVE SMOOTH",
"509 547 OFFCURVE",
"594 471 OFFCURVE",
"594 349 CURVE SMOOTH",
"594 225 OFFCURVE",
"507 151 OFFCURVE",
"401 151 CURVE SMOOTH"
);
},
{
closed = 1;
nodes = (
"344 742 LINE",
"402 809 LINE",
"460 742 LINE",
"616 742 LINE",
"464 899 LINE",
"340 899 LINE",
"188 742 LINE"
);
},
{
closed = 1;
nodes = (
"642 847 LINE",
"642 872 LINE",
"680 881 OFFCURVE",
"703 904 OFFCURVE",
"703 937 CURVE SMOOTH",
"703 981 OFFCURVE",
"665 1011 OFFCURVE",
"595 1011 CURVE SMOOTH",
"568 1011 OFFCURVE",
"530 1005 OFFCURVE",
"509 999 CURVE",
"509 940 LINE",
"518 944 OFFCURVE",
"534 947 OFFCURVE",
"546 947 CURVE SMOOTH",
"573 947 OFFCURVE",
"586 940 OFFCURVE",
"586 924 CURVE SMOOTH",
"586 904 OFFCURVE",
"567 898 OFFCURVE",
"534 898 CURVE",
"534 847 LINE"
);
}
);
width = 800;
}
);
leftKerningGroup = O;
note = Ocircumflexhookabove;
rightKerningGroup = O;
unicode = 1ED4;
},
{
glyphname = Ocircumflextilde;
lastChange = "2015-11-30 01:35:33 +0000";
layers = (
{
layerId = "16D28EA7-B5BE-4679-9A6B-BACE87874A93";
name = Bold;
paths = (
{
closed = 1;
nodes = (
"612 -15 OFFCURVE",
"775 131 OFFCURVE",
"775 349 CURVE SMOOTH",
"775 568 OFFCURVE",
"612 714 OFFCURVE",
"401 714 CURVE SMOOTH",
"189 714 OFFCURVE",
"25 568 OFFCURVE",
"25 349 CURVE SMOOTH",
"25 131 OFFCURVE",
"189 -15 OFFCURVE",
"401 -15 CURVE SMOOTH"
);
},
{
closed = 1;
nodes = (
"293 151 OFFCURVE",
"207 225 OFFCURVE",
"207 349 CURVE SMOOTH",
"207 471 OFFCURVE",
"292 547 OFFCURVE",
"401 547 CURVE SMOOTH",
"509 547 OFFCURVE",
"594 471 OFFCURVE",
"594 349 CURVE SMOOTH",
"594 225 OFFCURVE",
"507 151 OFFCURVE",
"401 151 CURVE SMOOTH"
);
},
{
closed = 1;
nodes = (
"504 742 OFFCURVE",
"573 798 OFFCURVE",
"573 892 CURVE",
"458 892 LINE",
"458 854 OFFCURVE",
"438 838 OFFCURVE",
"400 838 CURVE SMOOTH",
"362 838 OFFCURVE",
"343 854 OFFCURVE",
"343 892 CURVE",
"227 892 LINE",
"227 798 OFFCURVE",
"296 742 OFFCURVE",
"400 742 CURVE SMOOTH"
);
},
{
closed = 1;
nodes = (
"516 922 OFFCURVE",
"544 932 OFFCURVE",
"563 955 CURVE",
"563 1057 LINE",
"539 1028 OFFCURVE",
"512 1016 OFFCURVE",
"480 1016 CURVE SMOOTH",
"429 1016 OFFCURVE",
"373 1058 OFFCURVE",
"320 1058 CURVE SMOOTH",
"284 1058 OFFCURVE",
"256 1048 OFFCURVE",
"237 1024 CURVE",
"237 923 LINE",
"261 952 OFFCURVE",
"288 964 OFFCURVE",
"320 964 CURVE SMOOTH",
"370 964 OFFCURVE",
"423 922 OFFCURVE",
"480 922 CURVE SMOOTH"
);
}
);
width = 800;
}
);
leftKerningGroup = O;
note = Ocircumflextilde;
rightKerningGroup = O;
unicode = 1ED6;
},
{
glyphname = Odieresis;
lastChange = "2015-11-30 01:35:33 +0000";
layers = (
{
layerId = "16D28EA7-B5BE-4679-9A6B-BACE87874A93";
name = Bold;
paths = (
{
closed = 1;
nodes = (
"612 -15 OFFCURVE",
"775 131 OFFCURVE",
"775 349 CURVE SMOOTH",
"775 568 OFFCURVE",
"612 714 OFFCURVE",
"401 714 CURVE SMOOTH",
"189 714 OFFCURVE",
"25 568 OFFCURVE",
"25 349 CURVE SMOOTH",
"25 131 OFFCURVE",
"189 -15 OFFCURVE",
"401 -15 CURVE SMOOTH"
);
},
{
closed = 1;
nodes = (
"293 151 OFFCURVE",
"207 225 OFFCURVE",
"207 349 CURVE SMOOTH",
"207 471 OFFCURVE",
"292 547 OFFCURVE",
"401 547 CURVE SMOOTH",
"509 547 OFFCURVE",
"594 471 OFFCURVE",
"594 349 CURVE SMOOTH",
"594 225 OFFCURVE",
"507 151 OFFCURVE",
"401 151 CURVE SMOOTH"
);
},
{
closed = 1;
nodes = (
"325 747 OFFCURVE",
"359 780 OFFCURVE",
"359 823 CURVE SMOOTH",
"359 866 OFFCURVE",
"325 901 OFFCURVE",
"283 901 CURVE SMOOTH",
"241 901 OFFCURVE",
"205 866 OFFCURVE",
"205 823 CURVE SMOOTH",
"205 780 OFFCURVE",
"241 747 OFFCURVE",
"283 747 CURVE SMOOTH"
);
},
{
closed = 1;
nodes = (
"560 747 OFFCURVE",
"595 780 OFFCURVE",
"595 823 CURVE SMOOTH",
"595 866 OFFCURVE",
"560 901 OFFCURVE",
"519 901 CURVE SMOOTH",
"477 901 OFFCURVE",
"441 866 OFFCURVE",
"441 823 CURVE SMOOTH",
"441 780 OFFCURVE",
"477 747 OFFCURVE",
"519 747 CURVE SMOOTH"
);
}
);
width = 800;
}
);
leftKerningGroup = O;
note = Odieresis;
rightKerningGroup = O;
unicode = 00D6;
},
{
glyphname = Odotbelow;
lastChange = "2015-11-30 01:35:33 +0000";
layers = (
{
layerId = "16D28EA7-B5BE-4679-9A6B-BACE87874A93";
name = Bold;
paths = (
{
closed = 1;
nodes = (
"612 -15 OFFCURVE",
"775 131 OFFCURVE",
"775 349 CURVE SMOOTH",
"775 568 OFFCURVE",
"612 714 OFFCURVE",
"401 714 CURVE SMOOTH",
"189 714 OFFCURVE",
"25 568 OFFCURVE",
"25 349 CURVE SMOOTH",
"25 131 OFFCURVE",
"189 -15 OFFCURVE",
"401 -15 CURVE SMOOTH"
);
},
{
closed = 1;
nodes = (
"443 -200 OFFCURVE",
"477 -166 OFFCURVE",
"477 -123 CURVE SMOOTH",
"477 -80 OFFCURVE",
"443 -46 OFFCURVE",
"401 -46 CURVE SMOOTH",
"359 -46 OFFCURVE",
"323 -80 OFFCURVE",
"323 -123 CURVE SMOOTH",
"323 -166 OFFCURVE",
"359 -200 OFFCURVE",
"401 -200 CURVE SMOOTH"
);
},
{
closed = 1;
nodes = (
"293 151 OFFCURVE",
"207 225 OFFCURVE",
"207 349 CURVE SMOOTH",
"207 471 OFFCURVE",
"292 547 OFFCURVE",
"401 547 CURVE SMOOTH",
"509 547 OFFCURVE",
"594 471 OFFCURVE",
"594 349 CURVE SMOOTH",
"594 225 OFFCURVE",
"507 151 OFFCURVE",
"401 151 CURVE SMOOTH"
);
}
);
width = 800;
}
);
leftKerningGroup = O;
note = Odotbelow;
rightKerningGroup = O;
unicode = 1ECC;
},
{
glyphname = Ograve;
lastChange = "2015-11-30 01:35:34 +0000";
layers = (
{
layerId = "16D28EA7-B5BE-4679-9A6B-BACE87874A93";
name = Bold;
paths = (
{
closed = 1;
nodes = (
"612 -15 OFFCURVE",
"775 131 OFFCURVE",
"775 349 CURVE SMOOTH",
"775 568 OFFCURVE",
"612 714 OFFCURVE",
"401 714 CURVE SMOOTH",
"189 714 OFFCURVE",
"25 568 OFFCURVE",
"25 349 CURVE SMOOTH",
"25 131 OFFCURVE",
"189 -15 OFFCURVE",
"401 -15 CURVE SMOOTH"
);
},
{
closed = 1;
nodes = (
"293 151 OFFCURVE",
"207 225 OFFCURVE",
"207 349 CURVE SMOOTH",
"207 471 OFFCURVE",
"292 547 OFFCURVE",
"401 547 CURVE SMOOTH",
"509 547 OFFCURVE",
"594 471 OFFCURVE",
"594 349 CURVE SMOOTH",
"594 225 OFFCURVE",
"507 151 OFFCURVE",
"401 151 CURVE SMOOTH"
);
},
{
closed = 1;
nodes = (
"503 742 LINE",
"434 920 LINE",
"249 920 LINE",
"340 742 LINE"
);
}
);
width = 800;
}
);
leftKerningGroup = O;
note = Ograve;
rightKerningGroup = O;
unicode = 00D2;
},
{
glyphname = Ohookabove;
lastChange = "2015-11-30 01:35:34 +0000";
layers = (
{
layerId = "16D28EA7-B5BE-4679-9A6B-BACE87874A93";
name = Bold;
paths = (
{
closed = 1;
nodes = (
"612 -15 OFFCURVE",
"775 131 OFFCURVE",
"775 349 CURVE SMOOTH",
"775 568 OFFCURVE",
"612 714 OFFCURVE",
"401 714 CURVE SMOOTH",
"189 714 OFFCURVE",
"25 568 OFFCURVE",
"25 349 CURVE SMOOTH",
"25 131 OFFCURVE",
"189 -15 OFFCURVE",
"401 -15 CURVE SMOOTH"
);
},
{
closed = 1;
nodes = (
"293 151 OFFCURVE",
"207 225 OFFCURVE",
"207 349 CURVE SMOOTH",
"207 471 OFFCURVE",
"292 547 OFFCURVE",
"401 547 CURVE SMOOTH",
"509 547 OFFCURVE",
"594 471 OFFCURVE",
"594 349 CURVE SMOOTH",
"594 225 OFFCURVE",
"507 151 OFFCURVE",
"401 151 CURVE SMOOTH"
);
},
{
closed = 1;
nodes = (
"476 742 LINE",
"476 767 LINE",
"532 781 OFFCURVE",
"564 821 OFFCURVE",
"564 869 CURVE SMOOTH",
"564 932 OFFCURVE",
"512 975 OFFCURVE",
"406 975 CURVE SMOOTH",
"366 975 OFFCURVE",
"315 968 OFFCURVE",
"286 959 CURVE",
"286 875 LINE",
"299 881 OFFCURVE",
"327 885 OFFCURVE",
"343 885 CURVE SMOOTH",
"385 885 OFFCURVE",
"402 873 OFFCURVE",
"402 852 CURVE SMOOTH",
"402 821 OFFCURVE",
"370 812 OFFCURVE",
"322 812 CURVE",
"322 742 LINE"
);
}
);
width = 800;
}
);
leftKerningGroup = O;
note = Ohookabove;
rightKerningGroup = O;
unicode = 1ECE;
},
{
glyphname = Ohorn;
lastChange = "2015-11-30 01:35:34 +0000";
layers = (
{
layerId = "16D28EA7-B5BE-4679-9A6B-BACE87874A93";
name = Bold;
paths = (
{
closed = 1;
nodes = (
"612 -15 OFFCURVE",
"775 131 OFFCURVE",
"775 349 CURVE SMOOTH",
"775 409 OFFCURVE",
"762 463 OFFCURVE",
"740 511 CURVE",
"838 531 OFFCURVE",
"891 607 OFFCURVE",
"891 702 CURVE SMOOTH",
"891 747 LINE",
"743 747 LINE",
"743 713 LINE SMOOTH",
"743 657 OFFCURVE",
"721 630 OFFCURVE",
"649 629 CURVE",
"584 683 OFFCURVE",
"497 714 OFFCURVE",
"401 714 CURVE SMOOTH",
"189 714 OFFCURVE",
"25 568 OFFCURVE",
"25 349 CURVE SMOOTH",
"25 131 OFFCURVE",
"189 -15 OFFCURVE",
"401 -15 CURVE SMOOTH"
);
},
{
closed = 1;
nodes = (
"296 157 OFFCURVE",
"213 229 OFFCURVE",
"213 349 CURVE SMOOTH",
"213 467 OFFCURVE",
"295 541 OFFCURVE",
"401 541 CURVE SMOOTH",
"506 541 OFFCURVE",
"588 467 OFFCURVE",
"588 349 CURVE SMOOTH",
"588 229 OFFCURVE",
"504 157 OFFCURVE",
"401 157 CURVE SMOOTH"
);
}
);
width = 896;
}
);
leftKerningGroup = O;
note = Ohorn;
rightKerningGroup = O;
unicode = 01A0;
},
{
glyphname = Ohornacute;
lastChange = "2015-11-30 01:35:34 +0000";
layers = (
{
layerId = "16D28EA7-B5BE-4679-9A6B-BACE87874A93";
name = Bold;
paths = (
{
closed = 1;
nodes = (
"612 -15 OFFCURVE",
"775 131 OFFCURVE",
"775 349 CURVE SMOOTH",
"775 409 OFFCURVE",
"762 463 OFFCURVE",
"740 511 CURVE",
"838 531 OFFCURVE",
"891 607 OFFCURVE",
"891 702 CURVE SMOOTH",
"891 747 LINE",
"743 747 LINE",
"743 713 LINE SMOOTH",
"743 657 OFFCURVE",
"721 630 OFFCURVE",
"649 629 CURVE",
"584 683 OFFCURVE",
"497 714 OFFCURVE",
"401 714 CURVE SMOOTH",
"189 714 OFFCURVE",
"25 568 OFFCURVE",
"25 349 CURVE SMOOTH",
"25 131 OFFCURVE",
"189 -15 OFFCURVE",
"401 -15 CURVE SMOOTH"
);
},
{
closed = 1;
nodes = (
"296 157 OFFCURVE",
"213 229 OFFCURVE",
"213 349 CURVE SMOOTH",
"213 467 OFFCURVE",
"295 541 OFFCURVE",
"401 541 CURVE SMOOTH",
"506 541 OFFCURVE",
"588 467 OFFCURVE",
"588 349 CURVE SMOOTH",
"588 229 OFFCURVE",
"504 157 OFFCURVE",
"401 157 CURVE SMOOTH"
);
},
{
closed = 1;
nodes = (
"494 742 LINE",
"585 920 LINE",
"400 920 LINE",
"331 742 LINE"
);
}
);
width = 896;
}
);
leftKerningGroup = O;
note = Ohornacute;
rightKerningGroup = O;
unicode = 1EDA;
},
{
glyphname = Ohorndotbelow;
lastChange = "2015-11-30 01:35:33 +0000";
layers = (
{
layerId = "16D28EA7-B5BE-4679-9A6B-BACE87874A93";
name = Bold;
paths = (
{
closed = 1;
nodes = (
"612 -15 OFFCURVE",
"775 131 OFFCURVE",
"775 349 CURVE SMOOTH",
"775 409 OFFCURVE",
"762 463 OFFCURVE",
"740 511 CURVE",
"838 531 OFFCURVE",
"891 607 OFFCURVE",
"891 702 CURVE SMOOTH",
"891 747 LINE",
"743 747 LINE",
"743 713 LINE SMOOTH",
"743 657 OFFCURVE",
"721 630 OFFCURVE",
"649 629 CURVE",
"584 683 OFFCURVE",
"497 714 OFFCURVE",
"401 714 CURVE SMOOTH",
"189 714 OFFCURVE",
"25 568 OFFCURVE",
"25 349 CURVE SMOOTH",
"25 131 OFFCURVE",
"189 -15 OFFCURVE",
"401 -15 CURVE SMOOTH"
);
},
{
closed = 1;
nodes = (
"455 -200 OFFCURVE",
"489 -166 OFFCURVE",
"489 -123 CURVE SMOOTH",
"489 -80 OFFCURVE",
"455 -46 OFFCURVE",
"413 -46 CURVE SMOOTH",
"371 -46 OFFCURVE",
"335 -80 OFFCURVE",
"335 -123 CURVE SMOOTH",
"335 -166 OFFCURVE",
"371 -200 OFFCURVE",
"413 -200 CURVE SMOOTH"
);
},
{
closed = 1;
nodes = (
"296 157 OFFCURVE",
"213 229 OFFCURVE",
"213 349 CURVE SMOOTH",
"213 467 OFFCURVE",
"295 541 OFFCURVE",
"401 541 CURVE SMOOTH",
"506 541 OFFCURVE",
"588 467 OFFCURVE",
"588 349 CURVE SMOOTH",
"588 229 OFFCURVE",
"504 157 OFFCURVE",
"401 157 CURVE SMOOTH"
);
}
);
width = 896;
}
);
leftKerningGroup = O;
note = Ohorndotbelow;
rightKerningGroup = O;
unicode = 1EE2;
},
{
glyphname = Ohorngrave;
lastChange = "2015-11-30 01:35:33 +0000";
layers = (
{
layerId = "16D28EA7-B5BE-4679-9A6B-BACE87874A93";
name = Bold;
paths = (
{
closed = 1;
nodes = (
"612 -15 OFFCURVE",
"775 131 OFFCURVE",
"775 349 CURVE SMOOTH",
"775 409 OFFCURVE",
"762 463 OFFCURVE",
"740 511 CURVE",
"838 531 OFFCURVE",
"891 607 OFFCURVE",
"891 702 CURVE SMOOTH",
"891 747 LINE",
"743 747 LINE",
"743 713 LINE SMOOTH",
"743 657 OFFCURVE",
"721 630 OFFCURVE",
"649 629 CURVE",
"584 683 OFFCURVE",
"497 714 OFFCURVE",
"401 714 CURVE SMOOTH",
"189 714 OFFCURVE",
"25 568 OFFCURVE",
"25 349 CURVE SMOOTH",
"25 131 OFFCURVE",
"189 -15 OFFCURVE",
"401 -15 CURVE SMOOTH"
);
},
{
closed = 1;
nodes = (
"296 157 OFFCURVE",
"213 229 OFFCURVE",
"213 349 CURVE SMOOTH",
"213 467 OFFCURVE",
"295 541 OFFCURVE",
"401 541 CURVE SMOOTH",
"506 541 OFFCURVE",
"588 467 OFFCURVE",
"588 349 CURVE SMOOTH",
"588 229 OFFCURVE",
"504 157 OFFCURVE",
"401 157 CURVE SMOOTH"
);
},
{
closed = 1;
nodes = (
"488 742 LINE",
"419 920 LINE",
"234 920 LINE",
"325 742 LINE"
);
}
);
width = 896;
}
);
leftKerningGroup = O;
note = Ohorngrave;
rightKerningGroup = O;
unicode = 1EDC;
},
{
glyphname = Ohornhookabove;
lastChange = "2015-11-30 01:35:33 +0000";
layers = (
{
layerId = "16D28EA7-B5BE-4679-9A6B-BACE87874A93";
name = Bold;
paths = (
{
closed = 1;
nodes = (
"612 -15 OFFCURVE",
"775 131 OFFCURVE",
"775 349 CURVE SMOOTH",
"775 409 OFFCURVE",
"762 463 OFFCURVE",
"740 511 CURVE",
"838 531 OFFCURVE",
"891 607 OFFCURVE",
"891 702 CURVE SMOOTH",
"891 747 LINE",
"743 747 LINE",
"743 713 LINE SMOOTH",
"743 657 OFFCURVE",
"721 630 OFFCURVE",
"649 629 CURVE",
"584 683 OFFCURVE",
"497 714 OFFCURVE",
"401 714 CURVE SMOOTH",
"189 714 OFFCURVE",
"25 568 OFFCURVE",
"25 349 CURVE SMOOTH",
"25 131 OFFCURVE",
"189 -15 OFFCURVE",
"401 -15 CURVE SMOOTH"
);
},
{
closed = 1;
nodes = (
"296 157 OFFCURVE",
"213 229 OFFCURVE",
"213 349 CURVE SMOOTH",
"213 467 OFFCURVE",
"295 541 OFFCURVE",
"401 541 CURVE SMOOTH",
"506 541 OFFCURVE",
"588 467 OFFCURVE",
"588 349 CURVE SMOOTH",
"588 229 OFFCURVE",
"504 157 OFFCURVE",
"401 157 CURVE SMOOTH"
);
},
{
closed = 1;
nodes = (
"486 742 LINE",
"486 767 LINE",
"542 781 OFFCURVE",
"574 821 OFFCURVE",
"574 869 CURVE SMOOTH",
"574 932 OFFCURVE",
"522 975 OFFCURVE",
"416 975 CURVE SMOOTH",
"376 975 OFFCURVE",
"325 968 OFFCURVE",
"296 959 CURVE",
"296 875 LINE",
"309 881 OFFCURVE",
"337 885 OFFCURVE",
"353 885 CURVE SMOOTH",
"395 885 OFFCURVE",
"412 873 OFFCURVE",
"412 852 CURVE SMOOTH",
"412 821 OFFCURVE",
"380 812 OFFCURVE",
"332 812 CURVE",
"332 742 LINE"
);
}
);
width = 896;
}
);
leftKerningGroup = O;
note = Ohornhookabove;
rightKerningGroup = O;
unicode = 1EDE;
},
{
glyphname = Ohorntilde;
lastChange = "2015-11-30 01:35:33 +0000";
layers = (
{
layerId = "16D28EA7-B5BE-4679-9A6B-BACE87874A93";
name = Bold;
paths = (
{
closed = 1;
nodes = (
"612 -15 OFFCURVE",
"775 131 OFFCURVE",
"775 349 CURVE SMOOTH",
"775 409 OFFCURVE",
"762 463 OFFCURVE",
"740 511 CURVE",
"838 531 OFFCURVE",
"891 607 OFFCURVE",
"891 702 CURVE SMOOTH",
"891 747 LINE",
"743 747 LINE",
"743 713 LINE SMOOTH",
"743 657 OFFCURVE",
"721 630 OFFCURVE",
"649 629 CURVE",
"584 683 OFFCURVE",
"497 714 OFFCURVE",
"401 714 CURVE SMOOTH",
"189 714 OFFCURVE",
"25 568 OFFCURVE",
"25 349 CURVE SMOOTH",
"25 131 OFFCURVE",
"189 -15 OFFCURVE",
"401 -15 CURVE SMOOTH"
);
},
{
closed = 1;
nodes = (
"296 157 OFFCURVE",
"213 229 OFFCURVE",
"213 349 CURVE SMOOTH",
"213 467 OFFCURVE",
"295 541 OFFCURVE",
"401 541 CURVE SMOOTH",
"506 541 OFFCURVE",
"588 467 OFFCURVE",
"588 349 CURVE SMOOTH",
"588 229 OFFCURVE",
"504 157 OFFCURVE",
"401 157 CURVE SMOOTH"
);
},
{
closed = 1;
nodes = (
"239 779 OFFCURVE",
"274 793 OFFCURVE",
"313 793 CURVE SMOOTH",
"377 793 OFFCURVE",
"437 743 OFFCURVE",
"510 743 CURVE SMOOTH",
"554 743 OFFCURVE",
"590 754 OFFCURVE",
"615 784 CURVE",
"615 912 LINE",
"585 876 OFFCURVE",
"550 862 OFFCURVE",
"510 862 CURVE SMOOTH",
"445 862 OFFCURVE",
"381 912 OFFCURVE",
"313 912 CURVE SMOOTH",
"270 912 OFFCURVE",
"233 900 OFFCURVE",
"208 870 CURVE",
"208 742 LINE"
);
}
);
width = 896;
}
);
leftKerningGroup = O;
note = Ohorntilde;
rightKerningGroup = O;
unicode = 1EE0;
},
{
glyphname = Ohungarumlaut;
lastChange = "2015-11-30 01:35:33 +0000";
layers = (
{
layerId = "16D28EA7-B5BE-4679-9A6B-BACE87874A93";
name = Bold;
paths = (
{
closed = 1;
nodes = (
"612 -15 OFFCURVE",
"775 131 OFFCURVE",
"775 349 CURVE SMOOTH",
"775 568 OFFCURVE",
"612 714 OFFCURVE",
"401 714 CURVE SMOOTH",
"189 714 OFFCURVE",
"25 568 OFFCURVE",
"25 349 CURVE SMOOTH",
"25 131 OFFCURVE",
"189 -15 OFFCURVE",
"401 -15 CURVE SMOOTH"
);
},
{
closed = 1;
nodes = (
"293 151 OFFCURVE",
"207 225 OFFCURVE",
"207 349 CURVE SMOOTH",
"207 471 OFFCURVE",
"292 547 OFFCURVE",
"401 547 CURVE SMOOTH",
"509 547 OFFCURVE",
"594 471 OFFCURVE",
"594 349 CURVE SMOOTH",
"594 225 OFFCURVE",
"507 151 OFFCURVE",
"401 151 CURVE SMOOTH"
);
},
{
closed = 1;
nodes = (
"338 742 LINE",
"429 919 LINE",
"259 919 LINE",
"190 742 LINE"
);
},
{
closed = 1;
nodes = (
"590 742 LINE",
"680 919 LINE",
"511 919 LINE",
"442 742 LINE"
);
}
);
width = 800;
}
);
leftKerningGroup = O;
note = Ohungarumlaut;
rightKerningGroup = O;
unicode = 0150;
},
{
glyphname = Omacron;
lastChange = "2015-11-30 01:35:33 +0000";
layers = (
{
layerId = "16D28EA7-B5BE-4679-9A6B-BACE87874A93";
name = Bold;
paths = (
{
closed = 1;
nodes = (
"612 -15 OFFCURVE",
"775 131 OFFCURVE",
"775 349 CURVE SMOOTH",
"775 568 OFFCURVE",
"612 714 OFFCURVE",
"401 714 CURVE SMOOTH",
"189 714 OFFCURVE",
"25 568 OFFCURVE",
"25 349 CURVE SMOOTH",
"25 131 OFFCURVE",
"189 -15 OFFCURVE",
"401 -15 CURVE SMOOTH"
);
},
{
closed = 1;
nodes = (
"293 151 OFFCURVE",
"207 225 OFFCURVE",
"207 349 CURVE SMOOTH",
"207 471 OFFCURVE",
"292 547 OFFCURVE",
"401 547 CURVE SMOOTH",
"509 547 OFFCURVE",
"594 471 OFFCURVE",
"594 349 CURVE SMOOTH",
"594 225 OFFCURVE",
"507 151 OFFCURVE",
"401 151 CURVE SMOOTH"
);
},
{
closed = 1;
nodes = (
"573 752 LINE",
"573 865 LINE",
"228 865 LINE",
"228 752 LINE"
);
}
);
width = 800;
}
);
leftKerningGroup = O;
note = Omacron;
rightKerningGroup = O;
unicode = 014C;
},
{
glyphname = Oslash;
lastChange = "2015-11-30 01:35:32 +0000";
layers = (
{
layerId = "16D28EA7-B5BE-4679-9A6B-BACE87874A93";
name = Bold;
paths = (
{
closed = 1;
nodes = (
"285 -86 LINE",
"317 -7 LINE",
"344 -12 OFFCURVE",
"372 -15 OFFCURVE",
"401 -15 CURVE SMOOTH",
"612 -15 OFFCURVE",
"775 131 OFFCURVE",
"775 349 CURVE SMOOTH",
"775 496 OFFCURVE",
"701 610 OFFCURVE",
"589 669 CURVE",
"635 784 LINE",
"513 784 LINE",
"482 706 LINE",
"456 711 OFFCURVE",
"429 714 OFFCURVE",
"401 714 CURVE SMOOTH",
"189 714 OFFCURVE",
"25 568 OFFCURVE",
"25 349 CURVE SMOOTH",
"25 203 OFFCURVE",
"98 90 OFFCURVE",
"210 30 CURVE",
"163 -86 LINE"
);
},
{
closed = 1;
nodes = (
"233 227 OFFCURVE",
"207 280 OFFCURVE",
"207 349 CURVE SMOOTH",
"207 471 OFFCURVE",
"292 547 OFFCURVE",
"401 547 CURVE SMOOTH",
"406 547 OFFCURVE",
"412 547 OFFCURVE",
"417 546 CURVE",
"275 193 LINE"
);
},
{
closed = 1;
nodes = (
"394 151 OFFCURVE",
"387 151 OFFCURVE",
"381 152 CURVE",
"523 506 LINE",
"566 472 OFFCURVE",
"594 418 OFFCURVE",
"594 349 CURVE SMOOTH",
"594 225 OFFCURVE",
"507 151 OFFCURVE",
"401 151 CURVE SMOOTH"
);
}
);
width = 800;
}
);
leftKerningGroup = O;
note = Oslash;
rightKerningGroup = O;
unicode = 00D8;
},
{
glyphname = Oslashacute;
lastChange = "2015-11-30 01:35:33 +0000";
layers = (
{
layerId = "16D28EA7-B5BE-4679-9A6B-BACE87874A93";
name = Bold;
paths = (
{
closed = 1;
nodes = (
"290 -86 LINE",
"321 -8 LINE",
"347 -12 OFFCURVE",
"373 -15 OFFCURVE",
"401 -15 CURVE SMOOTH",
"612 -15 OFFCURVE",
"775 131 OFFCURVE",
"775 349 CURVE SMOOTH",
"775 494 OFFCURVE",
"703 607 OFFCURVE",
"593 667 CURVE",
"640 784 LINE",
"508 784 LINE",
"477 707 LINE",
"453 712 OFFCURVE",
"427 714 OFFCURVE",
"401 714 CURVE SMOOTH",
"189 714 OFFCURVE",
"25 568 OFFCURVE",
"25 349 CURVE SMOOTH",
"25 205 OFFCURVE",
"96 93 OFFCURVE",
"206 33 CURVE",
"158 -86 LINE"
);
},
{
closed = 1;
nodes = (
"236 235 OFFCURVE",
"213 285 OFFCURVE",
"213 349 CURVE SMOOTH",
"213 467 OFFCURVE",
"295 541 OFFCURVE",
"401 541 CURVE SMOOTH",
"410 541 LINE",
"274 202 LINE"
);
},
{
closed = 1;
nodes = (
"525 498 LINE",
"564 464 OFFCURVE",
"588 413 OFFCURVE",
"588 349 CURVE SMOOTH",
"588 229 OFFCURVE",
"504 157 OFFCURVE",
"401 157 CURVE SMOOTH",
"388 157 LINE"
);
},
{
closed = 1;
nodes = (
"452 742 LINE",
"542 919 LINE",
"357 919 LINE",
"289 742 LINE"
);
}
);
width = 800;
}
);
leftKerningGroup = O;
note = Oslashacute;
rightKerningGroup = O;
unicode = 01FE;
},
{
glyphname = Otilde;
lastChange = "2015-11-30 01:35:33 +0000";
layers = (
{
layerId = "16D28EA7-B5BE-4679-9A6B-BACE87874A93";
name = Bold;
paths = (
{
closed = 1;
nodes = (
"612 -15 OFFCURVE",
"775 131 OFFCURVE",
"775 349 CURVE SMOOTH",
"775 568 OFFCURVE",
"612 714 OFFCURVE",
"401 714 CURVE SMOOTH",
"189 714 OFFCURVE",
"25 568 OFFCURVE",
"25 349 CURVE SMOOTH",
"25 131 OFFCURVE",
"189 -15 OFFCURVE",
"401 -15 CURVE SMOOTH"
);
},
{
closed = 1;
nodes = (
"293 151 OFFCURVE",
"207 225 OFFCURVE",
"207 349 CURVE SMOOTH",
"207 471 OFFCURVE",
"292 547 OFFCURVE",
"401 547 CURVE SMOOTH",
"509 547 OFFCURVE",
"594 471 OFFCURVE",
"594 349 CURVE SMOOTH",
"594 225 OFFCURVE",
"507 151 OFFCURVE",
"401 151 CURVE SMOOTH"
);
},
{
closed = 1;
nodes = (
"228 779 OFFCURVE",
"263 793 OFFCURVE",
"302 793 CURVE SMOOTH",
"366 793 OFFCURVE",
"426 743 OFFCURVE",
"499 743 CURVE SMOOTH",
"543 743 OFFCURVE",
"579 754 OFFCURVE",
"604 784 CURVE",
"604 912 LINE",
"574 876 OFFCURVE",
"539 862 OFFCURVE",
"499 862 CURVE SMOOTH",
"434 862 OFFCURVE",
"370 912 OFFCURVE",
"302 912 CURVE SMOOTH",
"259 912 OFFCURVE",
"222 900 OFFCURVE",
"197 870 CURVE",
"197 742 LINE"
);
}
);
width = 800;
}
);
leftKerningGroup = O;
note = Otilde;
rightKerningGroup = O;
unicode = 00D5;
},
{
glyphname = OE;
lastChange = "2015-11-30 01:35:33 +0000";
layers = (
{
layerId = "16D28EA7-B5BE-4679-9A6B-BACE87874A93";
name = Bold;
paths = (
{
closed = 1;
nodes = (
"864 0 LINE",
"864 149 LINE",
"583 149 LINE",
"583 280 LINE",
"778 280 LINE",
"778 419 LINE",
"583 419 LINE",
"583 550 LINE",
"864 550 LINE",
"864 699 LINE",
"424 699 LINE SMOOTH",
"193 699 OFFCURVE",
"25 568 OFFCURVE",
"25 349 CURVE SMOOTH",
"25 131 OFFCURVE",
"193 0 OFFCURVE",
"424 0 CURVE SMOOTH"
);
},
{
closed = 1;
nodes = (
"283 149 OFFCURVE",
"207 224 OFFCURVE",
"207 349 CURVE SMOOTH",
"207 473 OFFCURVE",
"282 550 OFFCURVE",
"406 550 CURVE",
"406 149 LINE"
);
}
);
width = 889;
}
);
leftKerningGroup = O;
note = OE;
rightKerningGroup = E;
unicode = 0152;
},
{
glyphname = P;
lastChange = "2015-11-30 01:35:33 +0000";
layers = (
{
layerId = "16D28EA7-B5BE-4679-9A6B-BACE87874A93";
name = Bold;
paths = (
{
closed = 1;
nodes = (
"222 0 LINE",
"222 209 LINE",
"353 209 LINE SMOOTH",
"513 209 OFFCURVE",
"621 296 OFFCURVE",
"621 456 CURVE SMOOTH",
"621 612 OFFCURVE",
"513 699 OFFCURVE",
"353 699 CURVE SMOOTH",
"45 699 LINE",
"45 0 LINE"
);
},
{
closed = 1;
nodes = (
"222 550 LINE",
"325 550 LINE SMOOTH",
"389 550 OFFCURVE",
"439 533 OFFCURVE",
"439 456 CURVE SMOOTH",
"439 379 OFFCURVE",
"389 358 OFFCURVE",
"325 358 CURVE SMOOTH",
"222 358 LINE"
);
}
);
width = 636;
}
);
note = P;
unicode = 0050;
},
{
glyphname = Thorn;
lastChange = "2015-11-30 01:35:33 +0000";
layers = (
{
layerId = "16D28EA7-B5BE-4679-9A6B-BACE87874A93";
name = Bold;
paths = (
{
closed = 1;
nodes = (
"222 0 LINE",
"222 116 LINE",
"357 116 LINE SMOOTH",
"517 116 OFFCURVE",
"621 192 OFFCURVE",
"621 352 CURVE SMOOTH",
"621 511 OFFCURVE",
"517 588 OFFCURVE",
"357 588 CURVE SMOOTH",
"222 588 LINE",
"222 699 LINE",
"45 699 LINE",
"45 0 LINE"
);
},
{
closed = 1;
nodes = (
"222 439 LINE",
"325 439 LINE SMOOTH",
"389 439 OFFCURVE",
"439 425 OFFCURVE",
"439 352 CURVE SMOOTH",
"439 279 OFFCURVE",
"389 265 OFFCURVE",
"325 265 CURVE SMOOTH",
"222 265 LINE"
);
}
);
width = 636;
}
);
note = Thorn;
unicode = 00DE;
},
{
glyphname = Q;
lastChange = "2015-11-30 01:35:33 +0000";
layers = (
{
layerId = "16D28EA7-B5BE-4679-9A6B-BACE87874A93";
name = Bold;
paths = (
{
closed = 1;
nodes = (
"793 0 LINE",
"793 138 LINE",
"676 138 LINE",
"730 183 OFFCURVE",
"775 268 OFFCURVE",
"775 350 CURVE SMOOTH",
"775 569 OFFCURVE",
"612 714 OFFCURVE",
"401 714 CURVE SMOOTH",
"189 714 OFFCURVE",
"25 569 OFFCURVE",
"25 350 CURVE SMOOTH",
"25 134 OFFCURVE",
"183 0 OFFCURVE",
"423 0 CURVE SMOOTH"
);
},
{
closed = 1;
nodes = (
"293 151 OFFCURVE",
"207 225 OFFCURVE",
"207 349 CURVE SMOOTH",
"207 471 OFFCURVE",
"292 547 OFFCURVE",
"401 547 CURVE SMOOTH",
"509 547 OFFCURVE",
"594 471 OFFCURVE",
"594 349 CURVE SMOOTH",
"594 225 OFFCURVE",
"507 151 OFFCURVE",
"401 151 CURVE SMOOTH"
);
}
);
width = 803;
}
);
leftKerningGroup = O;
note = Q;
rightKerningGroup = O;
unicode = 0051;
},
{
glyphname = R;
lastChange = "2015-11-30 01:35:33 +0000";
layers = (
{
layerId = "16D28EA7-B5BE-4679-9A6B-BACE87874A93";
name = Bold;
paths = (
{
closed = 1;
nodes = (
"222 0 LINE",
"222 219 LINE",
"322 219 LINE",
"433 0 LINE",
"615 0 LINE",
"491 244 LINE",
"573 280 OFFCURVE",
"621 354 OFFCURVE",
"621 459 CURVE SMOOTH",
"621 616 OFFCURVE",
"520 699 OFFCURVE",
"359 699 CURVE SMOOTH",
"45 699 LINE",
"45 0 LINE"
);
},
{
closed = 1;
nodes = (
"222 550 LINE",
"328 550 LINE SMOOTH",
"392 550 OFFCURVE",
"439 533 OFFCURVE",
"439 459 CURVE SMOOTH",
"439 389 OFFCURVE",
"393 368 OFFCURVE",
"328 368 CURVE SMOOTH",
"222 368 LINE"
);
}
);
width = 646;
}
);
note = R;
rightKerningGroup = R;
unicode = 0052;
},
{
glyphname = Racute;
lastChange = "2015-11-30 01:35:33 +0000";
layers = (
{
layerId = "16D28EA7-B5BE-4679-9A6B-BACE87874A93";
name = Bold;
paths = (
{
closed = 1;
nodes = (
"222 0 LINE",
"222 219 LINE",
"322 219 LINE",
"433 0 LINE",
"615 0 LINE",
"491 244 LINE",
"573 280 OFFCURVE",
"621 354 OFFCURVE",
"621 459 CURVE SMOOTH",
"621 616 OFFCURVE",
"520 699 OFFCURVE",
"359 699 CURVE SMOOTH",
"45 699 LINE",
"45 0 LINE"
);
},
{
closed = 1;
nodes = (
"222 550 LINE",
"328 550 LINE SMOOTH",
"392 550 OFFCURVE",
"439 533 OFFCURVE",
"439 459 CURVE SMOOTH",
"439 389 OFFCURVE",
"393 368 OFFCURVE",
"328 368 CURVE SMOOTH",
"222 368 LINE"
);
},
{
closed = 1;
nodes = (
"362 742 LINE",
"453 920 LINE",
"268 920 LINE",
"199 742 LINE"
);
}
);
width = 646;
}
);
note = Racute;
rightKerningGroup = R;
unicode = 0154;
},
{
glyphname = Rcaron;
lastChange = "2015-11-30 01:35:34 +0000";
layers = (
{
layerId = "16D28EA7-B5BE-4679-9A6B-BACE87874A93";
name = Bold;
paths = (
{
closed = 1;
nodes = (
"222 0 LINE",
"222 219 LINE",
"322 219 LINE",
"433 0 LINE",
"615 0 LINE",
"491 244 LINE",
"573 280 OFFCURVE",
"621 354 OFFCURVE",
"621 459 CURVE SMOOTH",
"621 616 OFFCURVE",
"520 699 OFFCURVE",
"359 699 CURVE SMOOTH",
"45 699 LINE",
"45 0 LINE"
);
},
{
closed = 1;
nodes = (
"222 550 LINE",
"328 550 LINE SMOOTH",
"392 550 OFFCURVE",
"439 533 OFFCURVE",
"439 459 CURVE SMOOTH",
"439 389 OFFCURVE",
"393 368 OFFCURVE",
"328 368 CURVE SMOOTH",
"222 368 LINE"
);
},
{
closed = 1;
nodes = (
"395 742 LINE",
"551 923 LINE",
"377 923 LINE",
"317 838 LINE",
"257 923 LINE",
"82 923 LINE",
"238 742 LINE"
);
}
);
width = 646;
}
);
note = Rcaron;
rightKerningGroup = R;
unicode = 0158;
},
{
glyphname = Rcommaaccent;
lastChange = "2015-11-30 01:35:33 +0000";
layers = (
{
layerId = "16D28EA7-B5BE-4679-9A6B-BACE87874A93";
name = Bold;
paths = (
{
closed = 1;
nodes = (
"222 0 LINE",
"222 219 LINE",
"322 219 LINE",
"433 0 LINE",
"615 0 LINE",
"491 244 LINE",
"573 280 OFFCURVE",
"621 354 OFFCURVE",
"621 459 CURVE SMOOTH",
"621 616 OFFCURVE",
"520 699 OFFCURVE",
"359 699 CURVE SMOOTH",
"45 699 LINE",
"45 0 LINE"
);
},
{
closed = 1;
nodes = (
"308 -260 LINE",
"413 -49 LINE",
"231 -49 LINE",
"148 -260 LINE"
);
},
{
closed = 1;
nodes = (
"222 550 LINE",
"328 550 LINE SMOOTH",
"392 550 OFFCURVE",
"439 533 OFFCURVE",
"439 459 CURVE SMOOTH",
"439 389 OFFCURVE",
"393 368 OFFCURVE",
"328 368 CURVE SMOOTH",
"222 368 LINE"
);
}
);
width = 646;
}
);
note = Rcommaaccent;
rightKerningGroup = R;
unicode = 0156;
},
{
glyphname = Rdotbelow;
lastChange = "2015-11-30 01:35:34 +0000";
layers = (
{
layerId = "16D28EA7-B5BE-4679-9A6B-BACE87874A93";
name = Bold;
paths = (
{
closed = 1;
nodes = (
"222 0 LINE",
"222 219 LINE",
"322 219 LINE",
"433 0 LINE",
"615 0 LINE",
"491 244 LINE",
"573 280 OFFCURVE",
"621 354 OFFCURVE",
"621 459 CURVE SMOOTH",
"621 616 OFFCURVE",
"520 699 OFFCURVE",
"359 699 CURVE SMOOTH",
"45 699 LINE",
"45 0 LINE"
);
},
{
closed = 1;
nodes = (
"366 -200 OFFCURVE",
"400 -166 OFFCURVE",
"400 -123 CURVE SMOOTH",
"400 -80 OFFCURVE",
"366 -46 OFFCURVE",
"324 -46 CURVE SMOOTH",
"282 -46 OFFCURVE",
"246 -80 OFFCURVE",
"246 -123 CURVE SMOOTH",
"246 -166 OFFCURVE",
"282 -200 OFFCURVE",
"324 -200 CURVE SMOOTH"
);
},
{
closed = 1;
nodes = (
"222 550 LINE",
"328 550 LINE SMOOTH",
"392 550 OFFCURVE",
"439 533 OFFCURVE",
"439 459 CURVE SMOOTH",
"439 389 OFFCURVE",
"393 368 OFFCURVE",
"328 368 CURVE SMOOTH",
"222 368 LINE"
);
}
);
width = 646;
}
);
note = Rdotbelow;
rightKerningGroup = R;
unicode = 1E5A;
},
{
glyphname = Rdotbelowmacron;
lastChange = "2015-11-30 01:35:33 +0000";
layers = (
{
layerId = "16D28EA7-B5BE-4679-9A6B-BACE87874A93";
name = Bold;
paths = (
{
closed = 1;
nodes = (
"222 0 LINE",
"222 219 LINE",
"322 219 LINE",
"433 0 LINE",
"615 0 LINE",
"491 244 LINE",
"573 280 OFFCURVE",
"621 354 OFFCURVE",
"621 459 CURVE SMOOTH",
"621 616 OFFCURVE",
"520 699 OFFCURVE",
"359 699 CURVE SMOOTH",
"45 699 LINE",
"45 0 LINE"
);
},
{
closed = 1;
nodes = (
"349 -200 OFFCURVE",
"383 -166 OFFCURVE",
"383 -123 CURVE SMOOTH",
"383 -80 OFFCURVE",
"349 -46 OFFCURVE",
"307 -46 CURVE SMOOTH",
"265 -46 OFFCURVE",
"229 -80 OFFCURVE",
"229 -123 CURVE SMOOTH",
"229 -166 OFFCURVE",
"265 -200 OFFCURVE",
"307 -200 CURVE SMOOTH"
);
},
{
closed = 1;
nodes = (
"222 550 LINE",
"328 550 LINE SMOOTH",
"392 550 OFFCURVE",
"439 533 OFFCURVE",
"439 459 CURVE SMOOTH",
"439 389 OFFCURVE",
"393 368 OFFCURVE",
"328 368 CURVE SMOOTH",
"222 368 LINE"
);
},
{
closed = 1;
nodes = (
"479 752 LINE",
"479 865 LINE",
"134 865 LINE",
"134 752 LINE"
);
}
);
width = 646;
}
);
note = Rdotbelowmacron;
rightKerningGroup = R;
unicode = 1E5C;
},
{
glyphname = Rlinebelow;
lastChange = "2015-11-30 01:35:34 +0000";
layers = (
{
layerId = "16D28EA7-B5BE-4679-9A6B-BACE87874A93";
name = Bold;
paths = (
{
closed = 1;
nodes = (
"222 0 LINE",
"222 219 LINE",
"322 219 LINE",
"433 0 LINE",
"615 0 LINE",
"491 244 LINE",
"573 280 OFFCURVE",
"621 354 OFFCURVE",
"621 459 CURVE SMOOTH",
"621 616 OFFCURVE",
"520 699 OFFCURVE",
"359 699 CURVE SMOOTH",
"45 699 LINE",
"45 0 LINE"
);
},
{
closed = 1;
nodes = (
"496 -172 LINE",
"496 -59 LINE",
"151 -59 LINE",
"151 -172 LINE"
);
},
{
closed = 1;
nodes = (
"222 550 LINE",
"328 550 LINE SMOOTH",
"392 550 OFFCURVE",
"439 533 OFFCURVE",
"439 459 CURVE SMOOTH",
"439 389 OFFCURVE",
"393 368 OFFCURVE",
"328 368 CURVE SMOOTH",
"222 368 LINE"
);
}
);
width = 646;
}
);
note = Rlinebelow;
rightKerningGroup = R;
unicode = 1E5E;
},
{
glyphname = S;
lastChange = "2015-11-30 01:35:30 +0000";
layers = (
{
layerId = "16D28EA7-B5BE-4679-9A6B-BACE87874A93";
name = Bold;
paths = (
{
closed = 1;
nodes = (
"455 -15 OFFCURVE",
"544 65 OFFCURVE",
"544 191 CURVE SMOOTH",
"544 305 OFFCURVE",
"494 351 OFFCURVE",
"358 407 CURVE SMOOTH",
"269 442 OFFCURVE",
"222 461 OFFCURVE",
"222 503 CURVE SMOOTH",
"222 542 OFFCURVE",
"265 563 OFFCURVE",
"327 563 CURVE SMOOTH",
"385 563 OFFCURVE",
"445 548 OFFCURVE",
"504 517 CURVE",
"504 672 LINE",
"443 701 OFFCURVE",
"380 714 OFFCURVE",
"294 714 CURVE SMOOTH",
"136 714 OFFCURVE",
"29 630 OFFCURVE",
"29 508 CURVE SMOOTH",
"29 409 OFFCURVE",
"86 348 OFFCURVE",
"214 294 CURVE SMOOTH",
"308 255 OFFCURVE",
"348 237 OFFCURVE",
"348 193 CURVE SMOOTH",
"348 156 OFFCURVE",
"315 135 OFFCURVE",
"249 135 CURVE SMOOTH",
"181 135 OFFCURVE",
"99 153 OFFCURVE",
"25 191 CURVE",
"25 32 LINE",
"81 3 OFFCURVE",
"176 -15 OFFCURVE",
"263 -15 CURVE SMOOTH"
);
}
);
width = 569;
}
);
leftKerningGroup = S;
note = S;
rightKerningGroup = S;
unicode = 0053;
},
{
glyphname = Sacute;
lastChange = "2015-11-30 01:35:33 +0000";
layers = (
{
layerId = "16D28EA7-B5BE-4679-9A6B-BACE87874A93";
name = Bold;
paths = (
{
closed = 1;
nodes = (
"455 -15 OFFCURVE",
"544 65 OFFCURVE",
"544 191 CURVE SMOOTH",
"544 305 OFFCURVE",
"494 351 OFFCURVE",
"358 407 CURVE SMOOTH",
"269 442 OFFCURVE",
"222 461 OFFCURVE",
"222 503 CURVE SMOOTH",
"222 542 OFFCURVE",
"265 563 OFFCURVE",
"327 563 CURVE SMOOTH",
"385 563 OFFCURVE",
"445 548 OFFCURVE",
"504 517 CURVE",
"504 672 LINE",
"443 701 OFFCURVE",
"380 714 OFFCURVE",
"294 714 CURVE SMOOTH",
"136 714 OFFCURVE",
"29 630 OFFCURVE",
"29 508 CURVE SMOOTH",
"29 409 OFFCURVE",
"86 348 OFFCURVE",
"214 294 CURVE SMOOTH",
"308 255 OFFCURVE",
"348 237 OFFCURVE",
"348 193 CURVE SMOOTH",
"348 156 OFFCURVE",
"315 135 OFFCURVE",
"249 135 CURVE SMOOTH",
"181 135 OFFCURVE",
"99 153 OFFCURVE",
"25 191 CURVE",
"25 32 LINE",
"81 3 OFFCURVE",
"176 -15 OFFCURVE",
"263 -15 CURVE SMOOTH"
);
},
{
closed = 1;
nodes = (
"367 742 LINE",
"458 920 LINE",
"273 920 LINE",
"204 742 LINE"
);
}
);
width = 569;
}
);
leftKerningGroup = S;
note = Sacute;
rightKerningGroup = S;
unicode = 015A;
},
{
glyphname = Scaron;
lastChange = "2015-11-30 01:35:34 +0000";
layers = (
{
layerId = "16D28EA7-B5BE-4679-9A6B-BACE87874A93";
name = Bold;
paths = (
{
closed = 1;
nodes = (
"455 -15 OFFCURVE",
"544 65 OFFCURVE",
"544 191 CURVE SMOOTH",
"544 305 OFFCURVE",
"494 351 OFFCURVE",
"358 407 CURVE SMOOTH",
"269 442 OFFCURVE",
"222 461 OFFCURVE",
"222 503 CURVE SMOOTH",
"222 542 OFFCURVE",
"265 563 OFFCURVE",
"327 563 CURVE SMOOTH",
"385 563 OFFCURVE",
"445 548 OFFCURVE",
"504 517 CURVE",
"504 672 LINE",
"443 701 OFFCURVE",
"380 714 OFFCURVE",
"294 714 CURVE SMOOTH",
"136 714 OFFCURVE",
"29 630 OFFCURVE",
"29 508 CURVE SMOOTH",
"29 409 OFFCURVE",
"86 348 OFFCURVE",
"214 294 CURVE SMOOTH",
"308 255 OFFCURVE",
"348 237 OFFCURVE",
"348 193 CURVE SMOOTH",
"348 156 OFFCURVE",
"315 135 OFFCURVE",
"249 135 CURVE SMOOTH",
"181 135 OFFCURVE",
"99 153 OFFCURVE",
"25 191 CURVE",
"25 32 LINE",
"81 3 OFFCURVE",
"176 -15 OFFCURVE",
"263 -15 CURVE SMOOTH"
);
},
{
closed = 1;
nodes = (
"373 742 LINE",
"529 923 LINE",
"355 923 LINE",
"295 838 LINE",
"235 923 LINE",
"60 923 LINE",
"216 742 LINE"
);
}
);
width = 569;
}
);
leftKerningGroup = S;
note = Scaron;
rightKerningGroup = S;
unicode = 0160;
},
{
glyphname = Scedilla;
lastChange = "2015-11-30 01:35:33 +0000";
layers = (
{
layerId = "16D28EA7-B5BE-4679-9A6B-BACE87874A93";
name = Bold;
paths = (
{
closed = 1;
nodes = (
"455 -15 OFFCURVE",
"544 65 OFFCURVE",
"544 191 CURVE SMOOTH",
"544 305 OFFCURVE",
"494 351 OFFCURVE",
"358 407 CURVE SMOOTH",
"269 442 OFFCURVE",
"222 461 OFFCURVE",
"222 503 CURVE SMOOTH",
"222 542 OFFCURVE",
"265 563 OFFCURVE",
"327 563 CURVE SMOOTH",
"385 563 OFFCURVE",
"445 548 OFFCURVE",
"504 517 CURVE",
"504 672 LINE",
"443 701 OFFCURVE",
"380 714 OFFCURVE",
"294 714 CURVE SMOOTH",
"136 714 OFFCURVE",
"29 630 OFFCURVE",
"29 508 CURVE SMOOTH",
"29 409 OFFCURVE",
"86 348 OFFCURVE",
"214 294 CURVE SMOOTH",
"308 255 OFFCURVE",
"348 237 OFFCURVE",
"348 193 CURVE SMOOTH",
"348 156 OFFCURVE",
"315 135 OFFCURVE",
"249 135 CURVE SMOOTH",
"181 135 OFFCURVE",
"99 153 OFFCURVE",
"25 191 CURVE",
"25 32 LINE",
"81 3 OFFCURVE",
"176 -15 OFFCURVE",
"263 -15 CURVE SMOOTH"
);
},
{
closed = 1;
nodes = (
"364 -248 OFFCURVE",
"428 -214 OFFCURVE",
"428 -141 CURVE SMOOTH",
"428 -81 OFFCURVE",
"394 -55 OFFCURVE",
"339 -46 CURVE",
"357 0 LINE",
"202 0 LINE",
"168 -89 LINE",
"243 -89 OFFCURVE",
"266 -105 OFFCURVE",
"266 -129 CURVE SMOOTH",
"266 -150 OFFCURVE",
"249 -163 OFFCURVE",
"216 -163 CURVE SMOOTH",
"193 -163 OFFCURVE",
"170 -157 OFFCURVE",
"155 -149 CURVE",
"155 -234 LINE",
"176 -242 OFFCURVE",
"222 -248 OFFCURVE",
"268 -248 CURVE SMOOTH"
);
}
);
width = 569;
}
);
leftKerningGroup = S;
note = Scedilla;
rightKerningGroup = S;
unicode = 015E;
},
{
glyphname = Scircumflex;
lastChange = "2015-11-30 01:35:33 +0000";
layers = (
{
layerId = "16D28EA7-B5BE-4679-9A6B-BACE87874A93";
name = Bold;
paths = (
{
closed = 1;
nodes = (
"455 -15 OFFCURVE",
"544 65 OFFCURVE",
"544 191 CURVE SMOOTH",
"544 305 OFFCURVE",
"494 351 OFFCURVE",
"358 407 CURVE SMOOTH",
"269 442 OFFCURVE",
"222 461 OFFCURVE",
"222 503 CURVE SMOOTH",
"222 542 OFFCURVE",
"265 563 OFFCURVE",
"327 563 CURVE SMOOTH",
"385 563 OFFCURVE",
"445 548 OFFCURVE",
"504 517 CURVE",
"504 672 LINE",
"443 701 OFFCURVE",
"380 714 OFFCURVE",
"294 714 CURVE SMOOTH",
"136 714 OFFCURVE",
"29 630 OFFCURVE",
"29 508 CURVE SMOOTH",
"29 409 OFFCURVE",
"86 348 OFFCURVE",
"214 294 CURVE SMOOTH",
"308 255 OFFCURVE",
"348 237 OFFCURVE",
"348 193 CURVE SMOOTH",
"348 156 OFFCURVE",
"315 135 OFFCURVE",
"249 135 CURVE SMOOTH",
"181 135 OFFCURVE",
"99 153 OFFCURVE",
"25 191 CURVE",
"25 32 LINE",
"81 3 OFFCURVE",
"176 -15 OFFCURVE",
"263 -15 CURVE SMOOTH"
);
},
{
closed = 1;
nodes = (
"231 742 LINE",
"291 827 LINE",
"351 742 LINE",
"525 742 LINE",
"369 923 LINE",
"212 923 LINE",
"56 742 LINE"
);
}
);
width = 569;
}
);
leftKerningGroup = S;
note = Scircumflex;
rightKerningGroup = S;
unicode = 015C;
},
{
glyphname = Scommaaccent;
lastChange = "2015-11-30 01:35:33 +0000";
layers = (
{
layerId = "16D28EA7-B5BE-4679-9A6B-BACE87874A93";
name = Bold;
paths = (
{
closed = 1;
nodes = (
"455 -15 OFFCURVE",
"544 65 OFFCURVE",
"544 191 CURVE SMOOTH",
"544 305 OFFCURVE",
"494 351 OFFCURVE",
"358 407 CURVE SMOOTH",
"269 442 OFFCURVE",
"222 461 OFFCURVE",
"222 503 CURVE SMOOTH",
"222 542 OFFCURVE",
"265 563 OFFCURVE",
"327 563 CURVE SMOOTH",
"385 563 OFFCURVE",
"445 548 OFFCURVE",
"504 517 CURVE",
"504 672 LINE",
"443 701 OFFCURVE",
"380 714 OFFCURVE",
"294 714 CURVE SMOOTH",
"136 714 OFFCURVE",
"29 630 OFFCURVE",
"29 508 CURVE SMOOTH",
"29 409 OFFCURVE",
"86 348 OFFCURVE",
"214 294 CURVE SMOOTH",
"308 255 OFFCURVE",
"348 237 OFFCURVE",
"348 193 CURVE SMOOTH",
"348 156 OFFCURVE",
"315 135 OFFCURVE",
"249 135 CURVE SMOOTH",
"181 135 OFFCURVE",
"99 153 OFFCURVE",
"25 191 CURVE",
"25 32 LINE",
"81 3 OFFCURVE",
"176 -15 OFFCURVE",
"263 -15 CURVE SMOOTH"
);
},
{
closed = 1;
nodes = (
"280 -259 LINE",
"384 -49 LINE",
"203 -49 LINE",
"120 -259 LINE"
);
}
);
width = 569;
}
);
leftKerningGroup = S;
note = Scommaaccent;
rightKerningGroup = S;
unicode = 0218;
},
{
glyphname = Sdotaccent;
lastChange = "2015-11-30 01:35:33 +0000";
layers = (
{
layerId = "16D28EA7-B5BE-4679-9A6B-BACE87874A93";
name = Bold;
paths = (
{
closed = 1;
nodes = (
"455 -15 OFFCURVE",
"544 65 OFFCURVE",
"544 191 CURVE SMOOTH",
"544 305 OFFCURVE",
"494 351 OFFCURVE",
"358 407 CURVE SMOOTH",
"269 442 OFFCURVE",
"222 461 OFFCURVE",
"222 503 CURVE SMOOTH",
"222 542 OFFCURVE",
"265 563 OFFCURVE",
"327 563 CURVE SMOOTH",
"385 563 OFFCURVE",
"445 548 OFFCURVE",
"504 517 CURVE",
"504 672 LINE",
"443 701 OFFCURVE",
"380 714 OFFCURVE",
"294 714 CURVE SMOOTH",
"136 714 OFFCURVE",
"29 630 OFFCURVE",
"29 508 CURVE SMOOTH",
"29 409 OFFCURVE",
"86 348 OFFCURVE",
"214 294 CURVE SMOOTH",
"308 255 OFFCURVE",
"348 237 OFFCURVE",
"348 193 CURVE SMOOTH",
"348 156 OFFCURVE",
"315 135 OFFCURVE",
"249 135 CURVE SMOOTH",
"181 135 OFFCURVE",
"99 153 OFFCURVE",
"25 191 CURVE",
"25 32 LINE",
"81 3 OFFCURVE",
"176 -15 OFFCURVE",
"263 -15 CURVE SMOOTH"
);
},
{
closed = 1;
nodes = (
"342 752 OFFCURVE",
"376 785 OFFCURVE",
"376 828 CURVE SMOOTH",
"376 871 OFFCURVE",
"342 906 OFFCURVE",
"300 906 CURVE SMOOTH",
"258 906 OFFCURVE",
"222 871 OFFCURVE",
"222 828 CURVE SMOOTH",
"222 785 OFFCURVE",
"258 752 OFFCURVE",
"300 752 CURVE SMOOTH"
);
}
);
width = 569;
}
);
leftKerningGroup = S;
note = Sdotaccent;
rightKerningGroup = S;
unicode = 1E60;
},
{
glyphname = Sdotbelow;
lastChange = "2015-11-30 01:35:33 +0000";
layers = (
{
layerId = "16D28EA7-B5BE-4679-9A6B-BACE87874A93";
name = Bold;
paths = (
{
closed = 1;
nodes = (
"455 -15 OFFCURVE",
"544 65 OFFCURVE",
"544 191 CURVE SMOOTH",
"544 305 OFFCURVE",
"494 351 OFFCURVE",
"358 407 CURVE SMOOTH",
"269 442 OFFCURVE",
"222 461 OFFCURVE",
"222 503 CURVE SMOOTH",
"222 542 OFFCURVE",
"265 563 OFFCURVE",
"327 563 CURVE SMOOTH",
"385 563 OFFCURVE",
"445 548 OFFCURVE",
"504 517 CURVE",
"504 672 LINE",
"443 701 OFFCURVE",
"380 714 OFFCURVE",
"294 714 CURVE SMOOTH",
"136 714 OFFCURVE",
"29 630 OFFCURVE",
"29 508 CURVE SMOOTH",
"29 409 OFFCURVE",
"86 348 OFFCURVE",
"214 294 CURVE SMOOTH",
"308 255 OFFCURVE",
"348 237 OFFCURVE",
"348 193 CURVE SMOOTH",
"348 156 OFFCURVE",
"315 135 OFFCURVE",
"249 135 CURVE SMOOTH",
"181 135 OFFCURVE",
"99 153 OFFCURVE",
"25 191 CURVE",
"25 32 LINE",
"81 3 OFFCURVE",
"176 -15 OFFCURVE",
"263 -15 CURVE SMOOTH"
);
},
{
closed = 1;
nodes = (
"328 -200 OFFCURVE",
"362 -166 OFFCURVE",
"362 -123 CURVE SMOOTH",
"362 -80 OFFCURVE",
"328 -46 OFFCURVE",
"286 -46 CURVE SMOOTH",
"244 -46 OFFCURVE",
"208 -80 OFFCURVE",
"208 -123 CURVE SMOOTH",
"208 -166 OFFCURVE",
"244 -200 OFFCURVE",
"286 -200 CURVE SMOOTH"
);
}
);
width = 569;
}
);
leftKerningGroup = S;
note = Sdotbelow;
rightKerningGroup = S;
unicode = 1E62;
},
{
glyphname = Germandbls;
lastChange = "2015-11-30 01:35:31 +0000";
layers = (
{
layerId = "16D28EA7-B5BE-4679-9A6B-BACE87874A93";
name = Bold;
paths = (
{
closed = 1;
nodes = (
"543 -15 OFFCURVE",
"627 66 OFFCURVE",
"627 196 CURVE SMOOTH",
"627 294 OFFCURVE",
"584 359 OFFCURVE",
"485 385 CURVE",
"584 493 LINE",
"574 607 OFFCURVE",
"492 714 OFFCURVE",
"310 714 CURVE SMOOTH",
"131 714 OFFCURVE",
"40 616 OFFCURVE",
"40 454 CURVE SMOOTH",
"40 0 LINE",
"216 0 LINE",
"216 472 LINE SMOOTH",
"216 536 OFFCURVE",
"249 570 OFFCURVE",
"310 570 CURVE SMOOTH",
"361 570 OFFCURVE",
"386 541 OFFCURVE",
"392 504 CURVE",
"283 385 LINE",
"283 295 LINE",
"341 295 LINE SMOOTH",
"414 295 OFFCURVE",
"448 272 OFFCURVE",
"448 212 CURVE SMOOTH",
"448 156 OFFCURVE",
"408 129 OFFCURVE",
"346 129 CURVE SMOOTH",
"315 129 OFFCURVE",
"286 135 OFFCURVE",
"264 149 CURVE",
"264 3 LINE",
"295 -10 OFFCURVE",
"345 -15 OFFCURVE",
"390 -15 CURVE SMOOTH"
);
}
);
width = 652;
}
);
note = uni1E9E;
unicode = 1E9E;
},
{
glyphname = Schwa;
lastChange = "2015-11-30 01:35:33 +0000";
layers = (
{
layerId = "16D28EA7-B5BE-4679-9A6B-BACE87874A93";
name = Bold;
paths = (
{
closed = 1;
nodes = (
"660 -15 OFFCURVE",
"796 130 OFFCURVE",
"796 352 CURVE SMOOTH",
"796 583 OFFCURVE",
"637 714 OFFCURVE",
"372 714 CURVE SMOOTH",
"260 714 OFFCURVE",
"154 693 OFFCURVE",
"86 665 CURVE",
"86 520 LINE",
"154 547 OFFCURVE",
"253 563 OFFCURVE",
"340 563 CURVE SMOOTH",
"476 563 OFFCURVE",
"561 505 OFFCURVE",
"580 416 CURVE",
"25 416 LINE",
"25 339 LINE SMOOTH",
"25 140 OFFCURVE",
"151 -15 OFFCURVE",
"407 -15 CURVE SMOOTH"
);
},
{
closed = 1;
nodes = (
"285 134 OFFCURVE",
"230 197 OFFCURVE",
"222 282 CURVE",
"581 282 LINE",
"572 197 OFFCURVE",
"518 134 OFFCURVE",
"403 134 CURVE SMOOTH"
);
}
);
width = 821;
}
);
note = uni018F;
unicode = 018F;
},
{
glyphname = T;
lastChange = "2015-11-30 01:35:31 +0000";
layers = (
{
layerId = "16D28EA7-B5BE-4679-9A6B-BACE87874A93";
name = Bold;
paths = (
{
closed = 1;
nodes = (
"384 0 LINE",
"384 550 LINE",
"582 550 LINE",
"582 699 LINE",
"10 699 LINE",
"10 550 LINE",
"207 550 LINE",
"207 0 LINE"
);
}
);
width = 592;
}
);
leftKerningGroup = T;
note = T;
rightKerningGroup = T;
unicode = 0054;
},
{
glyphname = Tbar;
lastChange = "2015-11-30 01:35:31 +0000";
layers = (
{
layerId = "16D28EA7-B5BE-4679-9A6B-BACE87874A93";
name = Bold;
paths = (
{
closed = 1;
nodes = (
"388 0 LINE",
"388 253 LINE",
"496 253 LINE",
"496 401 LINE",
"388 401 LINE",
"388 543 LINE",
"582 543 LINE",
"582 699 LINE",
"10 699 LINE",
"10 543 LINE",
"203 543 LINE",
"203 401 LINE",
"98 401 LINE",
"98 253 LINE",
"203 253 LINE",
"203 0 LINE"
);
}
);
width = 592;
}
);
leftKerningGroup = T;
note = Tbar;
rightKerningGroup = T;
unicode = 0166;
},
{
glyphname = Tcaron;
lastChange = "2015-11-30 01:35:33 +0000";
layers = (
{
layerId = "16D28EA7-B5BE-4679-9A6B-BACE87874A93";
name = Bold;
paths = (
{
closed = 1;
nodes = (
"384 0 LINE",
"384 550 LINE",
"582 550 LINE",
"582 699 LINE",
"10 699 LINE",
"10 550 LINE",
"207 550 LINE",
"207 0 LINE"
);
},
{
closed = 1;
nodes = (
"375 742 LINE",
"531 923 LINE",
"357 923 LINE",
"297 838 LINE",
"237 923 LINE",
"62 923 LINE",
"218 742 LINE"
);
}
);
width = 592;
}
);
leftKerningGroup = T;
note = Tcaron;
rightKerningGroup = T;
unicode = 0164;
},
{
glyphname = Tcedilla;
lastChange = "2015-11-30 01:35:34 +0000";
layers = (
{
layerId = "16D28EA7-B5BE-4679-9A6B-BACE87874A93";
name = Bold;
paths = (
{
closed = 1;
nodes = (
"384 0 LINE",
"384 550 LINE",
"582 550 LINE",
"582 699 LINE",
"10 699 LINE",
"10 550 LINE",
"207 550 LINE",
"207 0 LINE"
);
},
{
closed = 1;
nodes = (
"392 -248 OFFCURVE",
"456 -214 OFFCURVE",
"456 -141 CURVE SMOOTH",
"456 -81 OFFCURVE",
"422 -55 OFFCURVE",
"367 -46 CURVE",
"385 0 LINE",
"230 0 LINE",
"196 -89 LINE",
"271 -89 OFFCURVE",
"294 -105 OFFCURVE",
"294 -129 CURVE SMOOTH",
"294 -150 OFFCURVE",
"277 -163 OFFCURVE",
"244 -163 CURVE SMOOTH",
"221 -163 OFFCURVE",
"198 -157 OFFCURVE",
"183 -149 CURVE",
"183 -234 LINE",
"204 -242 OFFCURVE",
"250 -248 OFFCURVE",
"296 -248 CURVE SMOOTH"
);
}
);
width = 592;
}
);
leftKerningGroup = T;
note = Tcedilla;
rightKerningGroup = T;
unicode = 0162;
},
{
glyphname = Tcommaaccent;
lastChange = "2015-11-30 01:35:33 +0000";
layers = (
{
layerId = "16D28EA7-B5BE-4679-9A6B-BACE87874A93";
name = Bold;
paths = (
{
closed = 1;
nodes = (
"384 0 LINE",
"384 550 LINE",
"582 550 LINE",
"582 699 LINE",
"10 699 LINE",
"10 550 LINE",
"207 550 LINE",
"207 0 LINE"
);
},
{
closed = 1;
nodes = (
"278 -260 LINE",
"383 -49 LINE",
"201 -49 LINE",
"118 -260 LINE"
);
}
);
width = 592;
}
);
leftKerningGroup = T;
note = Tcommaaccent;
rightKerningGroup = T;
unicode = 021A;
},
{
glyphname = Tdotbelow;
lastChange = "2015-11-30 01:35:33 +0000";
layers = (
{
layerId = "16D28EA7-B5BE-4679-9A6B-BACE87874A93";
name = Bold;
paths = (
{
closed = 1;
nodes = (
"384 0 LINE",
"384 550 LINE",
"582 550 LINE",
"582 699 LINE",
"10 699 LINE",
"10 550 LINE",
"207 550 LINE",
"207 0 LINE"
);
},
{
closed = 1;
nodes = (
"339 -200 OFFCURVE",
"373 -166 OFFCURVE",
"373 -123 CURVE SMOOTH",
"373 -80 OFFCURVE",
"339 -46 OFFCURVE",
"297 -46 CURVE SMOOTH",
"255 -46 OFFCURVE",
"219 -80 OFFCURVE",
"219 -123 CURVE SMOOTH",
"219 -166 OFFCURVE",
"255 -200 OFFCURVE",
"297 -200 CURVE SMOOTH"
);
}
);
width = 592;
}
);
leftKerningGroup = T;
note = Tdotbelow;
rightKerningGroup = T;
unicode = 1E6C;
},
{
glyphname = Tlinebelow;
lastChange = "2015-11-30 01:35:32 +0000";
layers = (
{
layerId = "16D28EA7-B5BE-4679-9A6B-BACE87874A93";
name = Bold;
paths = (
{
closed = 1;
nodes = (
"384 0 LINE",
"384 550 LINE",
"582 550 LINE",
"582 699 LINE",
"10 699 LINE",
"10 550 LINE",
"207 550 LINE",
"207 0 LINE"
);
},
{
closed = 1;
nodes = (
"469 -172 LINE",
"469 -59 LINE",
"124 -59 LINE",
"124 -172 LINE"
);
}
);
width = 592;
}
);
leftKerningGroup = T;
note = Tlinebelow;
rightKerningGroup = T;
unicode = 1E6E;
},
{
glyphname = U;
lastChange = "2015-11-30 01:35:31 +0000";
layers = (
{
layerId = "16D28EA7-B5BE-4679-9A6B-BACE87874A93";
name = Bold;
paths = (
{
closed = 1;
nodes = (
"577 -15 OFFCURVE",
"675 116 OFFCURVE",
"675 293 CURVE SMOOTH",
"675 699 LINE",
"498 699 LINE",
"498 291 LINE SMOOTH",
"498 196 OFFCURVE",
"444 149 OFFCURVE",
"358 149 CURVE SMOOTH",
"272 149 OFFCURVE",
"217 196 OFFCURVE",
"217 291 CURVE SMOOTH",
"217 699 LINE",
"40 699 LINE",
"40 293 LINE SMOOTH",
"40 116 OFFCURVE",
"139 -15 OFFCURVE",
"358 -15 CURVE SMOOTH"
);
}
);
width = 715;
}
);
leftKerningGroup = U;
note = U;
rightKerningGroup = U;
unicode = 0055;
},
{
glyphname = Uacute;
lastChange = "2015-11-30 01:35:34 +0000";
layers = (
{
layerId = "16D28EA7-B5BE-4679-9A6B-BACE87874A93";
name = Bold;
paths = (
{
closed = 1;
nodes = (
"577 -15 OFFCURVE",
"675 116 OFFCURVE",
"675 293 CURVE SMOOTH",
"675 699 LINE",
"498 699 LINE",
"498 291 LINE SMOOTH",
"498 196 OFFCURVE",
"444 149 OFFCURVE",
"358 149 CURVE SMOOTH",
"272 149 OFFCURVE",
"217 196 OFFCURVE",
"217 291 CURVE SMOOTH",
"217 699 LINE",
"40 699 LINE",
"40 293 LINE SMOOTH",
"40 116 OFFCURVE",
"139 -15 OFFCURVE",
"358 -15 CURVE SMOOTH"
);
},
{
closed = 1;
nodes = (
"445 742 LINE",
"536 920 LINE",
"351 920 LINE",
"282 742 LINE"
);
}
);
width = 715;
}
);
leftKerningGroup = U;
note = Uacute;
rightKerningGroup = U;
unicode = 00DA;
},
{
glyphname = Ubreve;
lastChange = "2015-11-30 01:35:34 +0000";
layers = (
{
layerId = "16D28EA7-B5BE-4679-9A6B-BACE87874A93";
name = Bold;
paths = (
{
closed = 1;
nodes = (
"577 -15 OFFCURVE",
"675 116 OFFCURVE",
"675 293 CURVE SMOOTH",
"675 699 LINE",
"498 699 LINE",
"498 291 LINE SMOOTH",
"498 196 OFFCURVE",
"444 149 OFFCURVE",
"358 149 CURVE SMOOTH",
"272 149 OFFCURVE",
"217 196 OFFCURVE",
"217 291 CURVE SMOOTH",
"217 699 LINE",
"40 699 LINE",
"40 293 LINE SMOOTH",
"40 116 OFFCURVE",
"139 -15 OFFCURVE",
"358 -15 CURVE SMOOTH"
);
},
{
closed = 1;
nodes = (
"474 742 OFFCURVE",
"540 810 OFFCURVE",
"540 915 CURVE",
"409 915 LINE",
"409 874 OFFCURVE",
"390 853 OFFCURVE",
"357 853 CURVE SMOOTH",
"323 853 OFFCURVE",
"305 874 OFFCURVE",
"305 915 CURVE",
"174 915 LINE",
"174 810 OFFCURVE",
"240 742 OFFCURVE",
"357 742 CURVE SMOOTH"
);
}
);
width = 715;
}
);
leftKerningGroup = U;
note = Ubreve;
rightKerningGroup = U;
unicode = 016C;
},
{
glyphname = Ucaron;
lastChange = "2015-11-30 01:35:33 +0000";
layers = (
{
layerId = "16D28EA7-B5BE-4679-9A6B-BACE87874A93";
name = Bold;
paths = (
{
closed = 1;
nodes = (
"577 -15 OFFCURVE",
"675 116 OFFCURVE",
"675 293 CURVE SMOOTH",
"675 699 LINE",
"498 699 LINE",
"498 291 LINE SMOOTH",
"498 196 OFFCURVE",
"444 149 OFFCURVE",
"358 149 CURVE SMOOTH",
"272 149 OFFCURVE",
"217 196 OFFCURVE",
"217 291 CURVE SMOOTH",
"217 699 LINE",
"40 699 LINE",
"40 293 LINE SMOOTH",
"40 116 OFFCURVE",
"139 -15 OFFCURVE",
"358 -15 CURVE SMOOTH"
);
},
{
closed = 1;
nodes = (
"436 742 LINE",
"592 923 LINE",
"418 923 LINE",
"358 838 LINE",
"298 923 LINE",
"123 923 LINE",
"279 742 LINE"
);
}
);
width = 715;
}
);
leftKerningGroup = U;
note = Ucaron;
rightKerningGroup = U;
unicode = 01D3;
},
{
glyphname = Ucircumflex;
lastChange = "2015-11-30 01:35:33 +0000";
layers = (
{
layerId = "16D28EA7-B5BE-4679-9A6B-BACE87874A93";
name = Bold;
paths = (
{
closed = 1;
nodes = (
"577 -15 OFFCURVE",
"675 116 OFFCURVE",
"675 293 CURVE SMOOTH",
"675 699 LINE",
"498 699 LINE",
"498 291 LINE SMOOTH",
"498 196 OFFCURVE",
"444 149 OFFCURVE",
"358 149 CURVE SMOOTH",
"272 149 OFFCURVE",
"217 196 OFFCURVE",
"217 291 CURVE SMOOTH",
"217 699 LINE",
"40 699 LINE",
"40 293 LINE SMOOTH",
"40 116 OFFCURVE",
"139 -15 OFFCURVE",
"358 -15 CURVE SMOOTH"
);
},
{
closed = 1;
nodes = (
"298 742 LINE",
"358 827 LINE",
"418 742 LINE",
"592 742 LINE",
"436 923 LINE",
"279 923 LINE",
"123 742 LINE"
);
}
);
width = 715;
}
);
leftKerningGroup = U;
note = Ucircumflex;
rightKerningGroup = U;
unicode = 00DB;
},
{
glyphname = Udieresis;
lastChange = "2015-11-30 01:35:33 +0000";
layers = (
{
layerId = "16D28EA7-B5BE-4679-9A6B-BACE87874A93";
name = Bold;
paths = (
{
closed = 1;
nodes = (
"577 -15 OFFCURVE",
"675 116 OFFCURVE",
"675 293 CURVE SMOOTH",
"675 699 LINE",
"498 699 LINE",
"498 291 LINE SMOOTH",
"498 196 OFFCURVE",
"444 149 OFFCURVE",
"358 149 CURVE SMOOTH",
"272 149 OFFCURVE",
"217 196 OFFCURVE",
"217 291 CURVE SMOOTH",
"217 699 LINE",
"40 699 LINE",
"40 293 LINE SMOOTH",
"40 116 OFFCURVE",
"139 -15 OFFCURVE",
"358 -15 CURVE SMOOTH"
);
},
{
closed = 1;
nodes = (
"282 747 OFFCURVE",
"316 780 OFFCURVE",
"316 823 CURVE SMOOTH",
"316 866 OFFCURVE",
"282 901 OFFCURVE",
"240 901 CURVE SMOOTH",
"198 901 OFFCURVE",
"162 866 OFFCURVE",
"162 823 CURVE SMOOTH",
"162 780 OFFCURVE",
"198 747 OFFCURVE",
"240 747 CURVE SMOOTH"
);
},
{
closed = 1;
nodes = (
"517 747 OFFCURVE",
"552 780 OFFCURVE",
"552 823 CURVE SMOOTH",
"552 866 OFFCURVE",
"517 901 OFFCURVE",
"476 901 CURVE SMOOTH",
"434 901 OFFCURVE",
"398 866 OFFCURVE",
"398 823 CURVE SMOOTH",
"398 780 OFFCURVE",
"434 747 OFFCURVE",
"476 747 CURVE SMOOTH"
);
}
);
width = 715;
}
);
leftKerningGroup = U;
note = Udieresis;
rightKerningGroup = U;
unicode = 00DC;
},
{
glyphname = Udieresisacute;
lastChange = "2015-11-30 01:35:33 +0000";
layers = (
{
layerId = "16D28EA7-B5BE-4679-9A6B-BACE87874A93";
name = Bold;
paths = (
{
closed = 1;
nodes = (
"577 -15 OFFCURVE",
"675 116 OFFCURVE",
"675 293 CURVE SMOOTH",
"675 699 LINE",
"498 699 LINE",
"498 291 LINE SMOOTH",
"498 196 OFFCURVE",
"444 149 OFFCURVE",
"358 149 CURVE SMOOTH",
"272 149 OFFCURVE",
"217 196 OFFCURVE",
"217 291 CURVE SMOOTH",
"217 699 LINE",
"40 699 LINE",
"40 293 LINE SMOOTH",
"40 116 OFFCURVE",
"139 -15 OFFCURVE",
"358 -15 CURVE SMOOTH"
);
},
{
closed = 1;
nodes = (
"285 752 OFFCURVE",
"319 785 OFFCURVE",
"319 828 CURVE SMOOTH",
"319 871 OFFCURVE",
"285 906 OFFCURVE",
"243 906 CURVE SMOOTH",
"201 906 OFFCURVE",
"165 871 OFFCURVE",
"165 828 CURVE SMOOTH",
"165 785 OFFCURVE",
"201 752 OFFCURVE",
"243 752 CURVE SMOOTH"
);
},
{
closed = 1;
nodes = (
"520 752 OFFCURVE",
"555 785 OFFCURVE",
"555 828 CURVE SMOOTH",
"555 871 OFFCURVE",
"520 906 OFFCURVE",
"479 906 CURVE SMOOTH",
"437 906 OFFCURVE",
"401 871 OFFCURVE",
"401 828 CURVE SMOOTH",
"401 785 OFFCURVE",
"437 752 OFFCURVE",
"479 752 CURVE SMOOTH"
);
},
{
closed = 1;
nodes = (
"425 920 LINE",
"495 1047 LINE",
"351 1047 LINE",
"301 920 LINE"
);
}
);
width = 715;
}
);
leftKerningGroup = U;
note = Udieresisacute;
rightKerningGroup = U;
unicode = 01D7;
},
{
glyphname = Udieresiscaron;
lastChange = "2015-11-30 01:35:33 +0000";
layers = (
{
layerId = "16D28EA7-B5BE-4679-9A6B-BACE87874A93";
name = Bold;
paths = (
{
closed = 1;
nodes = (
"577 -15 OFFCURVE",
"675 116 OFFCURVE",
"675 293 CURVE SMOOTH",
"675 699 LINE",
"498 699 LINE",
"498 291 LINE SMOOTH",
"498 196 OFFCURVE",
"444 149 OFFCURVE",
"358 149 CURVE SMOOTH",
"272 149 OFFCURVE",
"217 196 OFFCURVE",
"217 291 CURVE SMOOTH",
"217 699 LINE",
"40 699 LINE",
"40 293 LINE SMOOTH",
"40 116 OFFCURVE",
"139 -15 OFFCURVE",
"358 -15 CURVE SMOOTH"
);
},
{
closed = 1;
nodes = (
"280 752 OFFCURVE",
"316 785 OFFCURVE",
"316 828 CURVE SMOOTH",
"316 871 OFFCURVE",
"280 906 OFFCURVE",
"238 906 CURVE SMOOTH",
"197 906 OFFCURVE",
"162 871 OFFCURVE",
"162 828 CURVE SMOOTH",
"162 785 OFFCURVE",
"197 752 OFFCURVE",
"238 752 CURVE SMOOTH"
);
},
{
closed = 1;
nodes = (
"516 752 OFFCURVE",
"552 785 OFFCURVE",
"552 828 CURVE SMOOTH",
"552 871 OFFCURVE",
"516 906 OFFCURVE",
"474 906 CURVE SMOOTH",
"432 906 OFFCURVE",
"398 871 OFFCURVE",
"398 828 CURVE SMOOTH",
"398 785 OFFCURVE",
"432 752 OFFCURVE",
"474 752 CURVE SMOOTH"
);
},
{
closed = 1;
nodes = (
"408 899 LINE",
"533 1028 LINE",
"405 1028 LINE",
"357 973 LINE",
"309 1028 LINE",
"181 1028 LINE",
"306 899 LINE"
);
}
);
width = 715;
}
);
leftKerningGroup = U;
note = Udieresiscaron;
rightKerningGroup = U;
unicode = 01D9;
},
{
glyphname = Udieresisgrave;
lastChange = "2015-11-30 01:35:33 +0000";
layers = (
{
layerId = "16D28EA7-B5BE-4679-9A6B-BACE87874A93";
name = Bold;
paths = (
{
closed = 1;
nodes = (
"577 -15 OFFCURVE",
"675 116 OFFCURVE",
"675 293 CURVE SMOOTH",
"675 699 LINE",
"498 699 LINE",
"498 291 LINE SMOOTH",
"498 196 OFFCURVE",
"444 149 OFFCURVE",
"358 149 CURVE SMOOTH",
"272 149 OFFCURVE",
"217 196 OFFCURVE",
"217 291 CURVE SMOOTH",
"217 699 LINE",
"40 699 LINE",
"40 293 LINE SMOOTH",
"40 116 OFFCURVE",
"139 -15 OFFCURVE",
"358 -15 CURVE SMOOTH"
);
},
{
closed = 1;
nodes = (
"284 752 OFFCURVE",
"320 785 OFFCURVE",
"320 828 CURVE SMOOTH",
"320 871 OFFCURVE",
"284 906 OFFCURVE",
"242 906 CURVE SMOOTH",
"201 906 OFFCURVE",
"166 871 OFFCURVE",
"166 828 CURVE SMOOTH",
"166 785 OFFCURVE",
"201 752 OFFCURVE",
"242 752 CURVE SMOOTH"
);
},
{
closed = 1;
nodes = (
"420 920 LINE",
"370 1047 LINE",
"226 1047 LINE",
"296 920 LINE"
);
},
{
closed = 1;
nodes = (
"520 752 OFFCURVE",
"556 785 OFFCURVE",
"556 828 CURVE SMOOTH",
"556 871 OFFCURVE",
"520 906 OFFCURVE",
"478 906 CURVE SMOOTH",
"436 906 OFFCURVE",
"402 871 OFFCURVE",
"402 828 CURVE SMOOTH",
"402 785 OFFCURVE",
"436 752 OFFCURVE",
"478 752 CURVE SMOOTH"
);
}
);
width = 715;
}
);
leftKerningGroup = U;
note = Udieresisgrave;
rightKerningGroup = U;
unicode = 01DB;
},
{
glyphname = Udieresismacron;
lastChange = "2015-11-30 01:35:33 +0000";
layers = (
{
layerId = "16D28EA7-B5BE-4679-9A6B-BACE87874A93";
name = Bold;
paths = (
{
closed = 1;
nodes = (
"577 -15 OFFCURVE",
"675 116 OFFCURVE",
"675 293 CURVE SMOOTH",
"675 699 LINE",
"498 699 LINE",
"498 291 LINE SMOOTH",
"498 196 OFFCURVE",
"444 149 OFFCURVE",
"358 149 CURVE SMOOTH",
"272 149 OFFCURVE",
"217 196 OFFCURVE",
"217 291 CURVE SMOOTH",
"217 699 LINE",
"40 699 LINE",
"40 293 LINE SMOOTH",
"40 116 OFFCURVE",
"139 -15 OFFCURVE",
"358 -15 CURVE SMOOTH"
);
},
{
closed = 1;
nodes = (
"282 752 OFFCURVE",
"316 785 OFFCURVE",
"316 828 CURVE SMOOTH",
"316 871 OFFCURVE",
"282 906 OFFCURVE",
"240 906 CURVE SMOOTH",
"198 906 OFFCURVE",
"162 871 OFFCURVE",
"162 828 CURVE SMOOTH",
"162 785 OFFCURVE",
"198 752 OFFCURVE",
"240 752 CURVE SMOOTH"
);
},
{
closed = 1;
nodes = (
"517 752 OFFCURVE",
"552 785 OFFCURVE",
"552 828 CURVE SMOOTH",
"552 871 OFFCURVE",
"517 906 OFFCURVE",
"476 906 CURVE SMOOTH",
"434 906 OFFCURVE",
"398 871 OFFCURVE",
"398 828 CURVE SMOOTH",
"398 785 OFFCURVE",
"434 752 OFFCURVE",
"476 752 CURVE SMOOTH"
);
},
{
closed = 1;
nodes = (
"530 939 LINE",
"530 1052 LINE",
"185 1052 LINE",
"185 939 LINE"
);
}
);
width = 715;
}
);
leftKerningGroup = U;
note = Udieresismacron;
rightKerningGroup = U;
unicode = 01D5;
},
{
glyphname = Udotbelow;
lastChange = "2015-11-30 01:35:33 +0000";
layers = (
{
layerId = "16D28EA7-B5BE-4679-9A6B-BACE87874A93";
name = Bold;
paths = (
{
closed = 1;
nodes = (
"577 -15 OFFCURVE",
"675 116 OFFCURVE",
"675 293 CURVE SMOOTH",
"675 699 LINE",
"498 699 LINE",
"498 291 LINE SMOOTH",
"498 196 OFFCURVE",
"444 149 OFFCURVE",
"358 149 CURVE SMOOTH",
"272 149 OFFCURVE",
"217 196 OFFCURVE",
"217 291 CURVE SMOOTH",
"217 699 LINE",
"40 699 LINE",
"40 293 LINE SMOOTH",
"40 116 OFFCURVE",
"139 -15 OFFCURVE",
"358 -15 CURVE SMOOTH"
);
},
{
closed = 1;
nodes = (
"400 -200 OFFCURVE",
"434 -166 OFFCURVE",
"434 -123 CURVE SMOOTH",
"434 -80 OFFCURVE",
"400 -46 OFFCURVE",
"358 -46 CURVE SMOOTH",
"316 -46 OFFCURVE",
"280 -80 OFFCURVE",
"280 -123 CURVE SMOOTH",
"280 -166 OFFCURVE",
"316 -200 OFFCURVE",
"358 -200 CURVE SMOOTH"
);
}
);
width = 715;
}
);
leftKerningGroup = U;
note = Udotbelow;
rightKerningGroup = U;
unicode = 1EE4;
},
{
glyphname = Ugrave;
lastChange = "2015-11-30 01:35:33 +0000";
layers = (
{
layerId = "16D28EA7-B5BE-4679-9A6B-BACE87874A93";
name = Bold;
paths = (
{
closed = 1;
nodes = (
"577 -15 OFFCURVE",
"675 116 OFFCURVE",
"675 293 CURVE SMOOTH",
"675 699 LINE",
"498 699 LINE",
"498 291 LINE SMOOTH",
"498 196 OFFCURVE",
"444 149 OFFCURVE",
"358 149 CURVE SMOOTH",
"272 149 OFFCURVE",
"217 196 OFFCURVE",
"217 291 CURVE SMOOTH",
"217 699 LINE",
"40 699 LINE",
"40 293 LINE SMOOTH",
"40 116 OFFCURVE",
"139 -15 OFFCURVE",
"358 -15 CURVE SMOOTH"
);
},
{
closed = 1;
nodes = (
"459 742 LINE",
"390 920 LINE",
"205 920 LINE",
"296 742 LINE"
);
}
);
width = 715;
}
);
leftKerningGroup = U;
note = Ugrave;
rightKerningGroup = U;
unicode = 00D9;
},
{
glyphname = Uhookabove;
lastChange = "2015-11-30 01:35:33 +0000";
layers = (
{
layerId = "16D28EA7-B5BE-4679-9A6B-BACE87874A93";
name = Bold;
paths = (
{
closed = 1;
nodes = (
"577 -15 OFFCURVE",
"675 116 OFFCURVE",
"675 293 CURVE SMOOTH",
"675 699 LINE",
"498 699 LINE",
"498 291 LINE SMOOTH",
"498 196 OFFCURVE",
"444 149 OFFCURVE",
"358 149 CURVE SMOOTH",
"272 149 OFFCURVE",
"217 196 OFFCURVE",
"217 291 CURVE SMOOTH",
"217 699 LINE",
"40 699 LINE",
"40 293 LINE SMOOTH",
"40 116 OFFCURVE",
"139 -15 OFFCURVE",
"358 -15 CURVE SMOOTH"
);
},
{
closed = 1;
nodes = (
"438 742 LINE",
"438 767 LINE",
"494 781 OFFCURVE",
"526 821 OFFCURVE",
"526 869 CURVE SMOOTH",
"526 932 OFFCURVE",
"474 975 OFFCURVE",
"368 975 CURVE SMOOTH",
"328 975 OFFCURVE",
"277 968 OFFCURVE",
"248 959 CURVE",
"248 875 LINE",
"261 881 OFFCURVE",
"289 885 OFFCURVE",
"305 885 CURVE SMOOTH",
"347 885 OFFCURVE",
"364 873 OFFCURVE",
"364 852 CURVE SMOOTH",
"364 821 OFFCURVE",
"332 812 OFFCURVE",
"284 812 CURVE",
"284 742 LINE"
);
}
);
width = 715;
}
);
leftKerningGroup = U;
note = Uhookabove;
rightKerningGroup = U;
unicode = 1EE6;
},
{
glyphname = Uhorn;
lastChange = "2015-11-30 01:35:31 +0000";
layers = (
{
layerId = "16D28EA7-B5BE-4679-9A6B-BACE87874A93";
name = Bold;
paths = (
{
closed = 1;
nodes = (
"577 -15 OFFCURVE",
"676 116 OFFCURVE",
"676 293 CURVE SMOOTH",
"676 506 LINE",
"838 506 OFFCURVE",
"902 591 OFFCURVE",
"902 702 CURVE SMOOTH",
"902 747 LINE",
"754 747 LINE",
"754 713 LINE SMOOTH",
"754 656 OFFCURVE",
"739 632 OFFCURVE",
"676 632 CURVE",
"676 699 LINE",
"490 699 LINE",
"490 296 LINE SMOOTH",
"490 201 OFFCURVE",
"444 154 OFFCURVE",
"358 154 CURVE SMOOTH",
"272 154 OFFCURVE",
"225 201 OFFCURVE",
"225 296 CURVE SMOOTH",
"225 699 LINE",
"40 699 LINE",
"40 293 LINE SMOOTH",
"40 116 OFFCURVE",
"139 -15 OFFCURVE",
"358 -15 CURVE SMOOTH"
);
}
);
width = 907;
}
);
leftKerningGroup = U;
note = Uhorn;
rightKerningGroup = U;
unicode = 01AF;
},
{
glyphname = Uhornacute;
lastChange = "2015-11-30 01:35:33 +0000";
layers = (
{
layerId = "16D28EA7-B5BE-4679-9A6B-BACE87874A93";
name = Bold;
paths = (
{
closed = 1;
nodes = (
"577 -15 OFFCURVE",
"676 116 OFFCURVE",
"676 293 CURVE SMOOTH",
"676 506 LINE",
"838 506 OFFCURVE",
"902 591 OFFCURVE",
"902 702 CURVE SMOOTH",
"902 747 LINE",
"754 747 LINE",
"754 713 LINE SMOOTH",
"754 656 OFFCURVE",
"739 632 OFFCURVE",
"676 632 CURVE",
"676 699 LINE",
"490 699 LINE",
"490 296 LINE SMOOTH",
"490 201 OFFCURVE",
"444 154 OFFCURVE",
"358 154 CURVE SMOOTH",
"272 154 OFFCURVE",
"225 201 OFFCURVE",
"225 296 CURVE SMOOTH",
"225 699 LINE",
"40 699 LINE",
"40 293 LINE SMOOTH",
"40 116 OFFCURVE",
"139 -15 OFFCURVE",
"358 -15 CURVE SMOOTH"
);
},
{
closed = 1;
nodes = (
"442 742 LINE",
"533 920 LINE",
"348 920 LINE",
"279 742 LINE"
);
}
);
width = 907;
}
);
leftKerningGroup = U;
note = Uhornacute;
rightKerningGroup = U;
unicode = 1EE8;
},
{
glyphname = Uhorndotbelow;
lastChange = "2015-11-30 01:35:33 +0000";
layers = (
{
layerId = "16D28EA7-B5BE-4679-9A6B-BACE87874A93";
name = Bold;
paths = (
{
closed = 1;
nodes = (
"577 -15 OFFCURVE",
"676 116 OFFCURVE",
"676 293 CURVE SMOOTH",
"676 506 LINE",
"838 506 OFFCURVE",
"902 591 OFFCURVE",
"902 702 CURVE SMOOTH",
"902 747 LINE",
"754 747 LINE",
"754 713 LINE SMOOTH",
"754 656 OFFCURVE",
"739 632 OFFCURVE",
"676 632 CURVE",
"676 699 LINE",
"490 699 LINE",
"490 296 LINE SMOOTH",
"490 201 OFFCURVE",
"444 154 OFFCURVE",
"358 154 CURVE SMOOTH",
"272 154 OFFCURVE",
"225 201 OFFCURVE",
"225 296 CURVE SMOOTH",
"225 699 LINE",
"40 699 LINE",
"40 293 LINE SMOOTH",
"40 116 OFFCURVE",
"139 -15 OFFCURVE",
"358 -15 CURVE SMOOTH"
);
},
{
closed = 1;
nodes = (
"412 -200 OFFCURVE",
"446 -166 OFFCURVE",
"446 -123 CURVE SMOOTH",
"446 -80 OFFCURVE",
"412 -46 OFFCURVE",
"370 -46 CURVE SMOOTH",
"328 -46 OFFCURVE",
"292 -80 OFFCURVE",
"292 -123 CURVE SMOOTH",
"292 -166 OFFCURVE",
"328 -200 OFFCURVE",
"370 -200 CURVE SMOOTH"
);
}
);
width = 907;
}
);
leftKerningGroup = U;
note = Uhorndotbelow;
rightKerningGroup = U;
unicode = 1EF0;
},
{
glyphname = Uhorngrave;
lastChange = "2015-11-30 01:35:32 +0000";
layers = (
{
layerId = "16D28EA7-B5BE-4679-9A6B-BACE87874A93";
name = Bold;
paths = (
{
closed = 1;
nodes = (
"577 -15 OFFCURVE",
"676 116 OFFCURVE",
"676 293 CURVE SMOOTH",
"676 506 LINE",
"838 506 OFFCURVE",
"902 591 OFFCURVE",
"902 702 CURVE SMOOTH",
"902 747 LINE",
"754 747 LINE",
"754 713 LINE SMOOTH",
"754 656 OFFCURVE",
"739 632 OFFCURVE",
"676 632 CURVE",
"676 699 LINE",
"490 699 LINE",
"490 296 LINE SMOOTH",
"490 201 OFFCURVE",
"444 154 OFFCURVE",
"358 154 CURVE SMOOTH",
"272 154 OFFCURVE",
"225 201 OFFCURVE",
"225 296 CURVE SMOOTH",
"225 699 LINE",
"40 699 LINE",
"40 293 LINE SMOOTH",
"40 116 OFFCURVE",
"139 -15 OFFCURVE",
"358 -15 CURVE SMOOTH"
);
},
{
closed = 1;
nodes = (
"456 742 LINE",
"387 920 LINE",
"202 920 LINE",
"293 742 LINE"
);
}
);
width = 907;
}
);
leftKerningGroup = U;
note = Uhorngrave;
rightKerningGroup = U;
unicode = 1EEA;
},
{
glyphname = Uhornhookabove;
lastChange = "2015-11-30 01:35:34 +0000";
layers = (
{
layerId = "16D28EA7-B5BE-4679-9A6B-BACE87874A93";
name = Bold;
paths = (
{
closed = 1;
nodes = (
"577 -15 OFFCURVE",
"676 116 OFFCURVE",
"676 293 CURVE SMOOTH",
"676 506 LINE",
"838 506 OFFCURVE",
"902 591 OFFCURVE",
"902 702 CURVE SMOOTH",
"902 747 LINE",
"754 747 LINE",
"754 713 LINE SMOOTH",
"754 656 OFFCURVE",
"739 632 OFFCURVE",
"676 632 CURVE",
"676 699 LINE",
"490 699 LINE",
"490 296 LINE SMOOTH",
"490 201 OFFCURVE",
"444 154 OFFCURVE",
"358 154 CURVE SMOOTH",
"272 154 OFFCURVE",
"225 201 OFFCURVE",
"225 296 CURVE SMOOTH",
"225 699 LINE",
"40 699 LINE",
"40 293 LINE SMOOTH",
"40 116 OFFCURVE",
"139 -15 OFFCURVE",
"358 -15 CURVE SMOOTH"
);
},
{
closed = 1;
nodes = (
"438 742 LINE",
"438 767 LINE",
"494 781 OFFCURVE",
"526 821 OFFCURVE",
"526 869 CURVE SMOOTH",
"526 932 OFFCURVE",
"474 975 OFFCURVE",
"368 975 CURVE SMOOTH",
"328 975 OFFCURVE",
"277 968 OFFCURVE",
"248 959 CURVE",
"248 875 LINE",
"261 881 OFFCURVE",
"289 885 OFFCURVE",
"305 885 CURVE SMOOTH",
"347 885 OFFCURVE",
"364 873 OFFCURVE",
"364 852 CURVE SMOOTH",
"364 821 OFFCURVE",
"332 812 OFFCURVE",
"284 812 CURVE",
"284 742 LINE"
);
}
);
width = 907;
}
);
leftKerningGroup = U;
note = Uhornhookabove;
rightKerningGroup = U;
unicode = 1EEC;
},
{
glyphname = Uhorntilde;
lastChange = "2015-11-30 01:35:33 +0000";
layers = (
{
layerId = "16D28EA7-B5BE-4679-9A6B-BACE87874A93";
name = Bold;
paths = (
{
closed = 1;
nodes = (
"577 -15 OFFCURVE",
"676 116 OFFCURVE",
"676 293 CURVE SMOOTH",
"676 506 LINE",
"838 506 OFFCURVE",
"902 591 OFFCURVE",
"902 702 CURVE SMOOTH",
"902 747 LINE",
"754 747 LINE",
"754 713 LINE SMOOTH",
"754 656 OFFCURVE",
"739 632 OFFCURVE",
"676 632 CURVE",
"676 699 LINE",
"490 699 LINE",
"490 296 LINE SMOOTH",
"490 201 OFFCURVE",
"444 154 OFFCURVE",
"358 154 CURVE SMOOTH",
"272 154 OFFCURVE",
"225 201 OFFCURVE",
"225 296 CURVE SMOOTH",
"225 699 LINE",
"40 699 LINE",
"40 293 LINE SMOOTH",
"40 116 OFFCURVE",
"139 -15 OFFCURVE",
"358 -15 CURVE SMOOTH"
);
},
{
closed = 1;
nodes = (
"204 779 OFFCURVE",
"239 793 OFFCURVE",
"278 793 CURVE SMOOTH",
"342 793 OFFCURVE",
"402 743 OFFCURVE",
"475 743 CURVE SMOOTH",
"519 743 OFFCURVE",
"555 754 OFFCURVE",
"580 784 CURVE",
"580 912 LINE",
"550 876 OFFCURVE",
"515 862 OFFCURVE",
"475 862 CURVE SMOOTH",
"410 862 OFFCURVE",
"346 912 OFFCURVE",
"278 912 CURVE SMOOTH",
"235 912 OFFCURVE",
"198 900 OFFCURVE",
"173 870 CURVE",
"173 742 LINE"
);
}
);
width = 907;
}
);
leftKerningGroup = U;
note = Uhorntilde;
rightKerningGroup = U;
unicode = 1EEE;
},
{
glyphname = Uhungarumlaut;
lastChange = "2015-11-30 01:35:33 +0000";
layers = (
{
layerId = "16D28EA7-B5BE-4679-9A6B-BACE87874A93";
name = Bold;
paths = (
{
closed = 1;
nodes = (
"577 -15 OFFCURVE",
"675 116 OFFCURVE",
"675 293 CURVE SMOOTH",
"675 699 LINE",
"498 699 LINE",
"498 291 LINE SMOOTH",
"498 196 OFFCURVE",
"444 149 OFFCURVE",
"358 149 CURVE SMOOTH",
"272 149 OFFCURVE",
"217 196 OFFCURVE",
"217 291 CURVE SMOOTH",
"217 699 LINE",
"40 699 LINE",
"40 293 LINE SMOOTH",
"40 116 OFFCURVE",
"139 -15 OFFCURVE",
"358 -15 CURVE SMOOTH"
);
},
{
closed = 1;
nodes = (
"308 742 LINE",
"399 919 LINE",
"229 919 LINE",
"160 742 LINE"
);
},
{
closed = 1;
nodes = (
"560 742 LINE",
"650 919 LINE",
"481 919 LINE",
"412 742 LINE"
);
}
);
width = 715;
}
);
leftKerningGroup = U;
note = Uhungarumlaut;
rightKerningGroup = U;
unicode = 0170;
},
{
glyphname = Umacron;
lastChange = "2015-11-30 01:35:33 +0000";
layers = (
{
layerId = "16D28EA7-B5BE-4679-9A6B-BACE87874A93";
name = Bold;
paths = (
{
closed = 1;
nodes = (
"577 -15 OFFCURVE",
"675 116 OFFCURVE",
"675 293 CURVE SMOOTH",
"675 699 LINE",
"498 699 LINE",
"498 291 LINE SMOOTH",
"498 196 OFFCURVE",
"444 149 OFFCURVE",
"358 149 CURVE SMOOTH",
"272 149 OFFCURVE",
"217 196 OFFCURVE",
"217 291 CURVE SMOOTH",
"217 699 LINE",
"40 699 LINE",
"40 293 LINE SMOOTH",
"40 116 OFFCURVE",
"139 -15 OFFCURVE",
"358 -15 CURVE SMOOTH"
);
},
{
closed = 1;
nodes = (
"530 752 LINE",
"530 865 LINE",
"185 865 LINE",
"185 752 LINE"
);
}
);
width = 715;
}
);
leftKerningGroup = U;
note = Umacron;
rightKerningGroup = U;
unicode = 016A;
},
{
glyphname = Uogonek;
lastChange = "2015-11-30 01:35:33 +0000";
layers = (
{
layerId = "16D28EA7-B5BE-4679-9A6B-BACE87874A93";
name = Bold;
paths = (
{
closed = 1;
nodes = (
"577 -15 OFFCURVE",
"675 116 OFFCURVE",
"675 293 CURVE SMOOTH",
"675 699 LINE",
"498 699 LINE",
"498 291 LINE SMOOTH",
"498 196 OFFCURVE",
"444 149 OFFCURVE",
"358 149 CURVE SMOOTH",
"272 149 OFFCURVE",
"217 196 OFFCURVE",
"217 291 CURVE SMOOTH",
"217 699 LINE",
"40 699 LINE",
"40 293 LINE SMOOTH",
"40 116 OFFCURVE",
"139 -15 OFFCURVE",
"358 -15 CURVE SMOOTH"
);
},
{
closed = 1;
nodes = (
"402 -216 OFFCURVE",
"440 -210 OFFCURVE",
"466 -201 CURVE",
"466 -105 LINE",
"451 -113 OFFCURVE",
"434 -117 OFFCURVE",
"418 -117 CURVE SMOOTH",
"397 -117 OFFCURVE",
"384 -104 OFFCURVE",
"384 -84 CURVE SMOOTH",
"384 -55 OFFCURVE",
"409 -29 OFFCURVE",
"463 0 CURVE",
"303 0 LINE",
"261 -25 OFFCURVE",
"232 -66 OFFCURVE",
"232 -119 CURVE SMOOTH",
"232 -187 OFFCURVE",
"290 -216 OFFCURVE",
"363 -216 CURVE SMOOTH"
);
}
);
width = 715;
}
);
leftKerningGroup = U;
note = Uogonek;
rightKerningGroup = U;
unicode = 0172;
},
{
glyphname = Uring;
lastChange = "2015-11-30 01:35:33 +0000";
layers = (
{
layerId = "16D28EA7-B5BE-4679-9A6B-BACE87874A93";
name = Bold;
paths = (
{
closed = 1;
nodes = (
"577 -15 OFFCURVE",
"675 116 OFFCURVE",
"675 293 CURVE SMOOTH",
"675 699 LINE",
"498 699 LINE",
"498 291 LINE SMOOTH",
"498 196 OFFCURVE",
"444 149 OFFCURVE",
"358 149 CURVE SMOOTH",
"272 149 OFFCURVE",
"217 196 OFFCURVE",
"217 291 CURVE SMOOTH",
"217 699 LINE",
"40 699 LINE",
"40 293 LINE SMOOTH",
"40 116 OFFCURVE",
"139 -15 OFFCURVE",
"358 -15 CURVE SMOOTH"
);
},
{
closed = 1;
nodes = (
"435 742 OFFCURVE",
"499 803 OFFCURVE",
"499 881 CURVE SMOOTH",
"499 959 OFFCURVE",
"435 1021 OFFCURVE",
"357 1021 CURVE SMOOTH",
"279 1021 OFFCURVE",
"216 959 OFFCURVE",
"216 881 CURVE SMOOTH",
"216 803 OFFCURVE",
"279 742 OFFCURVE",
"357 742 CURVE SMOOTH"
);
},
{
closed = 1;
nodes = (
"332 835 OFFCURVE",
"311 856 OFFCURVE",
"311 881 CURVE SMOOTH",
"311 907 OFFCURVE",
"332 927 OFFCURVE",
"357 927 CURVE SMOOTH",
"383 927 OFFCURVE",
"403 907 OFFCURVE",
"403 881 CURVE SMOOTH",
"403 856 OFFCURVE",
"383 835 OFFCURVE",
"357 835 CURVE SMOOTH"
);
}
);
width = 715;
}
);
leftKerningGroup = U;
note = Uring;
rightKerningGroup = U;
unicode = 016E;
},
{
glyphname = Utilde;
lastChange = "2015-11-30 01:35:33 +0000";
layers = (
{
layerId = "16D28EA7-B5BE-4679-9A6B-BACE87874A93";
name = Bold;
paths = (
{
closed = 1;
nodes = (
"577 -15 OFFCURVE",
"675 116 OFFCURVE",
"675 293 CURVE SMOOTH",
"675 699 LINE",
"498 699 LINE",
"498 291 LINE SMOOTH",
"498 196 OFFCURVE",
"444 149 OFFCURVE",
"358 149 CURVE SMOOTH",
"272 149 OFFCURVE",
"217 196 OFFCURVE",
"217 291 CURVE SMOOTH",
"217 699 LINE",
"40 699 LINE",
"40 293 LINE SMOOTH",
"40 116 OFFCURVE",
"139 -15 OFFCURVE",
"358 -15 CURVE SMOOTH"
);
},
{
closed = 1;
nodes = (
"185 779 OFFCURVE",
"220 793 OFFCURVE",
"259 793 CURVE SMOOTH",
"323 793 OFFCURVE",
"383 743 OFFCURVE",
"456 743 CURVE SMOOTH",
"500 743 OFFCURVE",
"536 754 OFFCURVE",
"561 784 CURVE",
"561 912 LINE",
"531 876 OFFCURVE",
"496 862 OFFCURVE",
"456 862 CURVE SMOOTH",
"391 862 OFFCURVE",
"327 912 OFFCURVE",
"259 912 CURVE SMOOTH",
"216 912 OFFCURVE",
"179 900 OFFCURVE",
"154 870 CURVE",
"154 742 LINE"
);
}
);
width = 715;
}
);
leftKerningGroup = U;
note = Utilde;
rightKerningGroup = U;
unicode = 0168;
},
{
glyphname = V;
lastChange = "2015-11-30 01:35:31 +0000";
layers = (
{
layerId = "16D28EA7-B5BE-4679-9A6B-BACE87874A93";
name = Bold;
paths = (
{
closed = 1;
nodes = (
"479 0 LINE",
"758 699 LINE",
"570 699 LINE",
"392 234 LINE",
"214 699 LINE",
"25 699 LINE",
"305 0 LINE"
);
}
);
width = 783;
}
);
note = V;
unicode = 0056;
},
{
glyphname = W;
lastChange = "2015-11-30 01:35:31 +0000";
layers = (
{
layerId = "16D28EA7-B5BE-4679-9A6B-BACE87874A93";
name = Bold;
paths = (
{
closed = 1;
nodes = (
"382 0 LINE",
"496 406 LINE",
"611 0 LINE",
"774 0 LINE",
"967 699 LINE",
"785 699 LINE",
"669 284 LINE",
"563 699 LINE",
"437 699 LINE",
"324 285 LINE",
"207 699 LINE",
"25 699 LINE",
"218 0 LINE"
);
}
);
width = 992;
}
);
leftKerningGroup = W;
note = W;
rightKerningGroup = W;
unicode = 0057;
},
{
glyphname = Wacute;
lastChange = "2015-11-30 01:35:34 +0000";
layers = (
{
layerId = "16D28EA7-B5BE-4679-9A6B-BACE87874A93";
name = Bold;
paths = (
{
closed = 1;
nodes = (
"382 0 LINE",
"496 406 LINE",
"611 0 LINE",
"774 0 LINE",
"967 699 LINE",
"785 699 LINE",
"669 284 LINE",
"563 699 LINE",
"437 699 LINE",
"324 285 LINE",
"207 699 LINE",
"25 699 LINE",
"218 0 LINE"
);
},
{
closed = 1;
nodes = (
"585 742 LINE",
"676 920 LINE",
"491 920 LINE",
"422 742 LINE"
);
}
);
width = 992;
}
);
leftKerningGroup = W;
note = Wacute;
rightKerningGroup = W;
unicode = 1E82;
},
{
glyphname = Wcircumflex;
lastChange = "2015-11-30 01:35:33 +0000";
layers = (
{
layerId = "16D28EA7-B5BE-4679-9A6B-BACE87874A93";
name = Bold;
paths = (
{
closed = 1;
nodes = (
"382 0 LINE",
"496 406 LINE",
"611 0 LINE",
"774 0 LINE",
"967 699 LINE",
"785 699 LINE",
"669 284 LINE",
"563 699 LINE",
"437 699 LINE",
"324 285 LINE",
"207 699 LINE",
"25 699 LINE",
"218 0 LINE"
);
},
{
closed = 1;
nodes = (
"437 742 LINE",
"497 827 LINE",
"557 742 LINE",
"731 742 LINE",
"575 923 LINE",
"418 923 LINE",
"262 742 LINE"
);
}
);
width = 992;
}
);
leftKerningGroup = W;
note = Wcircumflex;
rightKerningGroup = W;
unicode = 0174;
},
{
glyphname = Wdieresis;
lastChange = "2015-11-30 01:35:33 +0000";
layers = (
{
layerId = "16D28EA7-B5BE-4679-9A6B-BACE87874A93";
name = Bold;
paths = (
{
closed = 1;
nodes = (
"382 0 LINE",
"496 406 LINE",
"611 0 LINE",
"774 0 LINE",
"967 699 LINE",
"785 699 LINE",
"669 284 LINE",
"563 699 LINE",
"437 699 LINE",
"324 285 LINE",
"207 699 LINE",
"25 699 LINE",
"218 0 LINE"
);
},
{
closed = 1;
nodes = (
"421 752 OFFCURVE",
"455 785 OFFCURVE",
"455 828 CURVE SMOOTH",
"455 871 OFFCURVE",
"421 906 OFFCURVE",
"379 906 CURVE SMOOTH",
"337 906 OFFCURVE",
"301 871 OFFCURVE",
"301 828 CURVE SMOOTH",
"301 785 OFFCURVE",
"337 752 OFFCURVE",
"379 752 CURVE SMOOTH"
);
},
{
closed = 1;
nodes = (
"656 752 OFFCURVE",
"691 785 OFFCURVE",
"691 828 CURVE SMOOTH",
"691 871 OFFCURVE",
"656 906 OFFCURVE",
"615 906 CURVE SMOOTH",
"573 906 OFFCURVE",
"537 871 OFFCURVE",
"537 828 CURVE SMOOTH",
"537 785 OFFCURVE",
"573 752 OFFCURVE",
"615 752 CURVE SMOOTH"
);
}
);
width = 992;
}
);
leftKerningGroup = W;
note = Wdieresis;
rightKerningGroup = W;
unicode = 1E84;
},
{
glyphname = Wgrave;
lastChange = "2015-11-30 01:35:32 +0000";
layers = (
{
layerId = "16D28EA7-B5BE-4679-9A6B-BACE87874A93";
name = Bold;
paths = (
{
closed = 1;
nodes = (
"382 0 LINE",
"496 406 LINE",
"611 0 LINE",
"774 0 LINE",
"967 699 LINE",
"785 699 LINE",
"669 284 LINE",
"563 699 LINE",
"437 699 LINE",
"324 285 LINE",
"207 699 LINE",
"25 699 LINE",
"218 0 LINE"
);
},
{
closed = 1;
nodes = (
"581 742 LINE",
"512 920 LINE",
"327 920 LINE",
"418 742 LINE"
);
}
);
width = 992;
}
);
leftKerningGroup = W;
note = Wgrave;
rightKerningGroup = W;
unicode = 1E80;
},
{
glyphname = X;
lastChange = "2015-11-30 01:35:31 +0000";
layers = (
{
layerId = "16D28EA7-B5BE-4679-9A6B-BACE87874A93";
name = Bold;
paths = (
{
closed = 1;
nodes = (
"228 0 LINE",
"380 209 LINE",
"531 0 LINE",
"734 0 LINE",
"481 350 LINE",
"734 699 LINE",
"531 699 LINE",
"380 490 LINE",
"229 699 LINE",
"26 699 LINE",
"278 350 LINE",
"25 0 LINE"
);
}
);
width = 759;
}
);
note = X;
unicode = 0058;
},
{
glyphname = Y;
lastChange = "2015-11-30 01:35:31 +0000";
layers = (
{
layerId = "16D28EA7-B5BE-4679-9A6B-BACE87874A93";
name = Bold;
paths = (
{
closed = 1;
nodes = (
"460 0 LINE",
"460 266 LINE",
"725 699 LINE",
"537 699 LINE",
"372 428 LINE",
"214 699 LINE",
"25 699 LINE",
"283 266 LINE",
"283 0 LINE"
);
}
);
width = 750;
}
);
leftKerningGroup = Y;
note = Y;
rightKerningGroup = Y;
unicode = 0059;
},
{
glyphname = Yacute;
lastChange = "2015-11-30 01:35:33 +0000";
layers = (
{
layerId = "16D28EA7-B5BE-4679-9A6B-BACE87874A93";
name = Bold;
paths = (
{
closed = 1;
nodes = (
"460 0 LINE",
"460 266 LINE",
"725 699 LINE",
"537 699 LINE",
"372 428 LINE",
"214 699 LINE",
"25 699 LINE",
"283 266 LINE",
"283 0 LINE"
);
},
{
closed = 1;
nodes = (
"442 742 LINE",
"533 920 LINE",
"348 920 LINE",
"279 742 LINE"
);
}
);
width = 750;
}
);
leftKerningGroup = Y;
note = Yacute;
rightKerningGroup = Y;
unicode = 00DD;
},
{
glyphname = Ycircumflex;
lastChange = "2015-11-30 01:35:34 +0000";
layers = (
{
layerId = "16D28EA7-B5BE-4679-9A6B-BACE87874A93";
name = Bold;
paths = (
{
closed = 1;
nodes = (
"460 0 LINE",
"460 266 LINE",
"725 699 LINE",
"537 699 LINE",
"372 428 LINE",
"214 699 LINE",
"25 699 LINE",
"283 266 LINE",
"283 0 LINE"
);
},
{
closed = 1;
nodes = (
"313 742 LINE",
"373 827 LINE",
"433 742 LINE",
"607 742 LINE",
"451 923 LINE",
"294 923 LINE",
"138 742 LINE"
);
}
);
width = 750;
}
);
leftKerningGroup = Y;
note = Ycircumflex;
rightKerningGroup = Y;
unicode = 0176;
},
{
glyphname = Ydieresis;
lastChange = "2015-11-30 01:35:34 +0000";
layers = (
{
layerId = "16D28EA7-B5BE-4679-9A6B-BACE87874A93";
name = Bold;
paths = (
{
closed = 1;
nodes = (
"460 0 LINE",
"460 266 LINE",
"725 699 LINE",
"537 699 LINE",
"372 428 LINE",
"214 699 LINE",
"25 699 LINE",
"283 266 LINE",
"283 0 LINE"
);
},
{
closed = 1;
nodes = (
"297 752 OFFCURVE",
"331 785 OFFCURVE",
"331 828 CURVE SMOOTH",
"331 871 OFFCURVE",
"297 906 OFFCURVE",
"255 906 CURVE SMOOTH",
"213 906 OFFCURVE",
"177 871 OFFCURVE",
"177 828 CURVE SMOOTH",
"177 785 OFFCURVE",
"213 752 OFFCURVE",
"255 752 CURVE SMOOTH"
);
},
{
closed = 1;
nodes = (
"532 752 OFFCURVE",
"567 785 OFFCURVE",
"567 828 CURVE SMOOTH",
"567 871 OFFCURVE",
"532 906 OFFCURVE",
"491 906 CURVE SMOOTH",
"449 906 OFFCURVE",
"413 871 OFFCURVE",
"413 828 CURVE SMOOTH",
"413 785 OFFCURVE",
"449 752 OFFCURVE",
"491 752 CURVE SMOOTH"
);
}
);
width = 750;
}
);
leftKerningGroup = Y;
note = Ydieresis;
rightKerningGroup = Y;
unicode = 0178;
},
{
glyphname = Ydotaccent;
lastChange = "2015-11-30 01:35:34 +0000";
layers = (
{
layerId = "16D28EA7-B5BE-4679-9A6B-BACE87874A93";
name = Bold;
paths = (
{
closed = 1;
nodes = (
"460 0 LINE",
"460 266 LINE",
"725 699 LINE",
"537 699 LINE",
"372 428 LINE",
"214 699 LINE",
"25 699 LINE",
"283 266 LINE",
"283 0 LINE"
);
},
{
closed = 1;
nodes = (
"415 752 OFFCURVE",
"449 785 OFFCURVE",
"449 828 CURVE SMOOTH",
"449 871 OFFCURVE",
"415 906 OFFCURVE",
"373 906 CURVE SMOOTH",
"331 906 OFFCURVE",
"295 871 OFFCURVE",
"295 828 CURVE SMOOTH",
"295 785 OFFCURVE",
"331 752 OFFCURVE",
"373 752 CURVE SMOOTH"
);
}
);
width = 750;
}
);
leftKerningGroup = Y;
note = Ydotaccent;
rightKerningGroup = Y;
unicode = 1E8E;
},
{
glyphname = Ydotbelow;
lastChange = "2015-11-30 01:35:33 +0000";
layers = (
{
layerId = "16D28EA7-B5BE-4679-9A6B-BACE87874A93";
name = Bold;
paths = (
{
closed = 1;
nodes = (
"460 0 LINE",
"460 266 LINE",
"725 699 LINE",
"537 699 LINE",
"372 428 LINE",
"214 699 LINE",
"25 699 LINE",
"283 266 LINE",
"283 0 LINE"
);
},
{
closed = 1;
nodes = (
"416 -200 OFFCURVE",
"450 -166 OFFCURVE",
"450 -123 CURVE SMOOTH",
"450 -80 OFFCURVE",
"416 -46 OFFCURVE",
"374 -46 CURVE SMOOTH",
"332 -46 OFFCURVE",
"296 -80 OFFCURVE",
"296 -123 CURVE SMOOTH",
"296 -166 OFFCURVE",
"332 -200 OFFCURVE",
"374 -200 CURVE SMOOTH"
);
}
);
width = 750;
}
);
leftKerningGroup = Y;
note = Ydotbelow;
rightKerningGroup = Y;
unicode = 1EF4;
},
{
glyphname = Ygrave;
lastChange = "2015-11-30 01:35:34 +0000";
layers = (
{
layerId = "16D28EA7-B5BE-4679-9A6B-BACE87874A93";
name = Bold;
paths = (
{
closed = 1;
nodes = (
"460 0 LINE",
"460 266 LINE",
"725 699 LINE",
"537 699 LINE",
"372 428 LINE",
"214 699 LINE",
"25 699 LINE",
"283 266 LINE",
"283 0 LINE"
);
},
{
closed = 1;
nodes = (
"471 742 LINE",
"402 920 LINE",
"217 920 LINE",
"308 742 LINE"
);
}
);
width = 750;
}
);
leftKerningGroup = Y;
note = Ygrave;
rightKerningGroup = Y;
unicode = 1EF2;
},
{
glyphname = Yhookabove;
lastChange = "2015-11-30 01:35:32 +0000";
layers = (
{
layerId = "16D28EA7-B5BE-4679-9A6B-BACE87874A93";
name = Bold;
paths = (
{
closed = 1;
nodes = (
"460 0 LINE",
"460 266 LINE",
"725 699 LINE",
"537 699 LINE",
"372 428 LINE",
"214 699 LINE",
"25 699 LINE",
"283 266 LINE",
"283 0 LINE"
);
},
{
closed = 1;
nodes = (
"458 742 LINE",
"458 767 LINE",
"514 781 OFFCURVE",
"546 821 OFFCURVE",
"546 869 CURVE SMOOTH",
"546 932 OFFCURVE",
"494 975 OFFCURVE",
"388 975 CURVE SMOOTH",
"348 975 OFFCURVE",
"297 968 OFFCURVE",
"268 959 CURVE",
"268 875 LINE",
"281 881 OFFCURVE",
"309 885 OFFCURVE",
"325 885 CURVE SMOOTH",
"367 885 OFFCURVE",
"384 873 OFFCURVE",
"384 852 CURVE SMOOTH",
"384 821 OFFCURVE",
"352 812 OFFCURVE",
"304 812 CURVE",
"304 742 LINE"
);
}
);
width = 750;
}
);
leftKerningGroup = Y;
note = Yhookabove;
rightKerningGroup = Y;
unicode = 1EF6;
},
{
glyphname = Ytilde;
lastChange = "2015-11-30 01:35:33 +0000";
layers = (
{
layerId = "16D28EA7-B5BE-4679-9A6B-BACE87874A93";
name = Bold;
paths = (
{
closed = 1;
nodes = (
"460 0 LINE",
"460 266 LINE",
"725 699 LINE",
"537 699 LINE",
"372 428 LINE",
"214 699 LINE",
"25 699 LINE",
"283 266 LINE",
"283 0 LINE"
);
},
{
closed = 1;
nodes = (
"200 779 OFFCURVE",
"235 793 OFFCURVE",
"274 793 CURVE SMOOTH",
"338 793 OFFCURVE",
"398 743 OFFCURVE",
"471 743 CURVE SMOOTH",
"515 743 OFFCURVE",
"551 754 OFFCURVE",
"576 784 CURVE",
"576 912 LINE",
"546 876 OFFCURVE",
"511 862 OFFCURVE",
"471 862 CURVE SMOOTH",
"406 862 OFFCURVE",
"342 912 OFFCURVE",
"274 912 CURVE SMOOTH",
"231 912 OFFCURVE",
"194 900 OFFCURVE",
"169 870 CURVE",
"169 742 LINE"
);
}
);
width = 750;
}
);
leftKerningGroup = Y;
note = Ytilde;
rightKerningGroup = Y;
unicode = 1EF8;
},
{
glyphname = Z;
lastChange = "2015-11-30 01:35:31 +0000";
layers = (
{
layerId = "16D28EA7-B5BE-4679-9A6B-BACE87874A93";
name = Bold;
paths = (
{
closed = 1;
nodes = (
"586 0 LINE",
"586 149 LINE",
"248 149 LINE",
"564 578 LINE",
"564 699 LINE",
"33 699 LINE",
"33 550 LINE",
"343 550 LINE",
"25 120 LINE",
"25 0 LINE"
);
}
);
width = 611;
}
);
leftKerningGroup = Z;
note = Z;
rightKerningGroup = Z;
unicode = 005A;
},
{
glyphname = Zacute;
lastChange = "2015-11-30 01:35:34 +0000";
layers = (
{
layerId = "16D28EA7-B5BE-4679-9A6B-BACE87874A93";
name = Bold;
paths = (
{
closed = 1;
nodes = (
"586 0 LINE",
"586 149 LINE",
"248 149 LINE",
"564 578 LINE",
"564 699 LINE",
"33 699 LINE",
"33 550 LINE",
"343 550 LINE",
"25 120 LINE",
"25 0 LINE"
);
},
{
closed = 1;
nodes = (
"371 742 LINE",
"462 920 LINE",
"277 920 LINE",
"208 742 LINE"
);
}
);
width = 611;
}
);
leftKerningGroup = Z;
note = Zacute;
rightKerningGroup = Z;
unicode = 0179;
},
{
glyphname = Zcaron;
lastChange = "2015-11-30 01:35:33 +0000";
layers = (
{
layerId = "16D28EA7-B5BE-4679-9A6B-BACE87874A93";
name = Bold;
paths = (
{
closed = 1;
nodes = (
"586 0 LINE",
"586 149 LINE",
"248 149 LINE",
"564 578 LINE",
"564 699 LINE",
"33 699 LINE",
"33 550 LINE",
"343 550 LINE",
"25 120 LINE",
"25 0 LINE"
);
},
{
closed = 1;
nodes = (
"390 742 LINE",
"546 923 LINE",
"372 923 LINE",
"312 838 LINE",
"252 923 LINE",
"77 923 LINE",
"233 742 LINE"
);
}
);
width = 611;
}
);
leftKerningGroup = Z;
note = Zcaron;
rightKerningGroup = Z;
unicode = 017D;
},
{
glyphname = Zdotaccent;
lastChange = "2015-11-30 01:35:33 +0000";
layers = (
{
layerId = "16D28EA7-B5BE-4679-9A6B-BACE87874A93";
name = Bold;
paths = (
{
closed = 1;
nodes = (
"586 0 LINE",
"586 149 LINE",
"248 149 LINE",
"564 578 LINE",
"564 699 LINE",
"33 699 LINE",
"33 550 LINE",
"343 550 LINE",
"25 120 LINE",
"25 0 LINE"
);
},
{
closed = 1;
nodes = (
"350 752 OFFCURVE",
"384 785 OFFCURVE",
"384 828 CURVE SMOOTH",
"384 871 OFFCURVE",
"350 906 OFFCURVE",
"308 906 CURVE SMOOTH",
"266 906 OFFCURVE",
"230 871 OFFCURVE",
"230 828 CURVE SMOOTH",
"230 785 OFFCURVE",
"266 752 OFFCURVE",
"308 752 CURVE SMOOTH"
);
}
);
width = 611;
}
);
leftKerningGroup = Z;
note = Zdotaccent;
rightKerningGroup = Z;
unicode = 017B;
},
{
glyphname = Zdotbelow;
lastChange = "2015-11-30 01:35:34 +0000";
layers = (
{
layerId = "16D28EA7-B5BE-4679-9A6B-BACE87874A93";
name = Bold;
paths = (
{
closed = 1;
nodes = (
"586 0 LINE",
"586 149 LINE",
"248 149 LINE",
"564 578 LINE",
"564 699 LINE",
"33 699 LINE",
"33 550 LINE",
"343 550 LINE",
"25 120 LINE",
"25 0 LINE"
);
},
{
closed = 1;
nodes = (
"353 -200 OFFCURVE",
"387 -166 OFFCURVE",
"387 -123 CURVE SMOOTH",
"387 -80 OFFCURVE",
"353 -46 OFFCURVE",
"311 -46 CURVE SMOOTH",
"269 -46 OFFCURVE",
"233 -80 OFFCURVE",
"233 -123 CURVE SMOOTH",
"233 -166 OFFCURVE",
"269 -200 OFFCURVE",
"311 -200 CURVE SMOOTH"
);
}
);
width = 611;
}
);
leftKerningGroup = Z;
note = Zdotbelow;
rightKerningGroup = Z;
unicode = 1E92;
},
{
glyphname = a;
lastChange = "2015-11-30 01:35:33 +0000";
layers = (
{
layerId = "16D28EA7-B5BE-4679-9A6B-BACE87874A93";
name = Bold;
paths = (
{
closed = 1;
nodes = (
"300 -15 OFFCURVE",
"354 9 OFFCURVE",
"388 41 CURVE",
"388 0 LINE",
"553 0 LINE",
"553 292 LINE SMOOTH",
"553 417 OFFCURVE",
"465 495 OFFCURVE",
"282 495 CURVE SMOOTH",
"205 495 OFFCURVE",
"131 480 OFFCURVE",
"90 461 CURVE",
"90 340 LINE",
"135 361 OFFCURVE",
"192 374 OFFCURVE",
"251 374 CURVE SMOOTH",
"333 374 OFFCURVE",
"377 349 OFFCURVE",
"377 297 CURVE SMOOTH",
"377 287 LINE",
"341 305 OFFCURVE",
"286 318 OFFCURVE",
"232 318 CURVE SMOOTH",
"98 318 OFFCURVE",
"25 257 OFFCURVE",
"25 150 CURVE SMOOTH",
"25 43 OFFCURVE",
"110 -15 OFFCURVE",
"226 -15 CURVE SMOOTH"
);
},
{
closed = 1;
nodes = (
"231 93 OFFCURVE",
"206 114 OFFCURVE",
"206 150 CURVE SMOOTH",
"206 189 OFFCURVE",
"232 209 OFFCURVE",
"279 209 CURVE SMOOTH",
"316 209 OFFCURVE",
"349 199 OFFCURVE",
"377 180 CURVE",
"377 138 LINE",
"358 111 OFFCURVE",
"320 93 OFFCURVE",
"278 93 CURVE SMOOTH"
);
}
);
width = 593;
}
);
leftKerningGroup = a;
note = a;
rightKerningGroup = a;
unicode = 0061;
},
{
glyphname = aacute;
lastChange = "2015-11-30 01:35:33 +0000";
layers = (
{
layerId = "16D28EA7-B5BE-4679-9A6B-BACE87874A93";
name = Bold;
paths = (
{
closed = 1;
nodes = (
"300 -15 OFFCURVE",
"354 9 OFFCURVE",
"388 41 CURVE",
"388 0 LINE",
"553 0 LINE",
"553 292 LINE SMOOTH",
"553 417 OFFCURVE",
"465 495 OFFCURVE",
"282 495 CURVE SMOOTH",
"205 495 OFFCURVE",
"131 480 OFFCURVE",
"90 461 CURVE",
"90 340 LINE",
"135 361 OFFCURVE",
"192 374 OFFCURVE",
"251 374 CURVE SMOOTH",
"333 374 OFFCURVE",
"377 349 OFFCURVE",
"377 297 CURVE SMOOTH",
"377 287 LINE",
"341 305 OFFCURVE",
"286 318 OFFCURVE",
"232 318 CURVE SMOOTH",
"98 318 OFFCURVE",
"25 257 OFFCURVE",
"25 150 CURVE SMOOTH",
"25 43 OFFCURVE",
"110 -15 OFFCURVE",
"226 -15 CURVE SMOOTH"
);
},
{
closed = 1;
nodes = (
"231 93 OFFCURVE",
"206 114 OFFCURVE",
"206 150 CURVE SMOOTH",
"206 189 OFFCURVE",
"232 209 OFFCURVE",
"279 209 CURVE SMOOTH",
"316 209 OFFCURVE",
"349 199 OFFCURVE",
"377 180 CURVE",
"377 138 LINE",
"358 111 OFFCURVE",
"320 93 OFFCURVE",
"278 93 CURVE SMOOTH"
);
},
{
closed = 1;
nodes = (
"383 518 LINE",
"474 696 LINE",
"289 696 LINE",
"220 518 LINE"
);
}
);
width = 593;
}
);
leftKerningGroup = a;
note = aacute;
rightKerningGroup = a;
unicode = 00E1;
},
{
glyphname = abreve;
lastChange = "2015-11-30 01:35:33 +0000";
layers = (
{
layerId = "16D28EA7-B5BE-4679-9A6B-BACE87874A93";
name = Bold;
paths = (
{
closed = 1;
nodes = (
"300 -15 OFFCURVE",
"354 9 OFFCURVE",
"388 41 CURVE",
"388 0 LINE",
"553 0 LINE",
"553 292 LINE SMOOTH",
"553 417 OFFCURVE",
"465 495 OFFCURVE",
"282 495 CURVE SMOOTH",
"205 495 OFFCURVE",
"131 480 OFFCURVE",
"90 461 CURVE",
"90 340 LINE",
"135 361 OFFCURVE",
"192 374 OFFCURVE",
"251 374 CURVE SMOOTH",
"333 374 OFFCURVE",
"377 349 OFFCURVE",
"377 297 CURVE SMOOTH",
"377 287 LINE",
"341 305 OFFCURVE",
"286 318 OFFCURVE",
"232 318 CURVE SMOOTH",
"98 318 OFFCURVE",
"25 257 OFFCURVE",
"25 150 CURVE SMOOTH",
"25 43 OFFCURVE",
"110 -15 OFFCURVE",
"226 -15 CURVE SMOOTH"
);
},
{
closed = 1;
nodes = (
"231 93 OFFCURVE",
"206 114 OFFCURVE",
"206 150 CURVE SMOOTH",
"206 189 OFFCURVE",
"232 209 OFFCURVE",
"279 209 CURVE SMOOTH",
"316 209 OFFCURVE",
"349 199 OFFCURVE",
"377 180 CURVE",
"377 138 LINE",
"358 111 OFFCURVE",
"320 93 OFFCURVE",
"278 93 CURVE SMOOTH"
);
},
{
closed = 1;
nodes = (
"445 525 OFFCURVE",
"511 593 OFFCURVE",
"511 698 CURVE",
"380 698 LINE",
"380 657 OFFCURVE",
"361 636 OFFCURVE",
"328 636 CURVE SMOOTH",
"294 636 OFFCURVE",
"276 657 OFFCURVE",
"276 698 CURVE",
"145 698 LINE",
"145 593 OFFCURVE",
"211 525 OFFCURVE",
"328 525 CURVE SMOOTH"
);
}
);
width = 593;
}
);
leftKerningGroup = a;
note = abreve;
rightKerningGroup = a;
unicode = 0103;
},
{
glyphname = abreveacute;
lastChange = "2015-11-30 01:35:33 +0000";
layers = (
{
layerId = "16D28EA7-B5BE-4679-9A6B-BACE87874A93";
name = Bold;
paths = (
{
closed = 1;
nodes = (
"300 -15 OFFCURVE",
"354 9 OFFCURVE",
"388 41 CURVE",
"388 0 LINE",
"553 0 LINE",
"553 292 LINE SMOOTH",
"553 417 OFFCURVE",
"465 495 OFFCURVE",
"282 495 CURVE SMOOTH",
"205 495 OFFCURVE",
"131 480 OFFCURVE",
"90 461 CURVE",
"90 340 LINE",
"135 361 OFFCURVE",
"192 374 OFFCURVE",
"251 374 CURVE SMOOTH",
"333 374 OFFCURVE",
"377 349 OFFCURVE",
"377 297 CURVE SMOOTH",
"377 287 LINE",
"341 305 OFFCURVE",
"286 318 OFFCURVE",
"232 318 CURVE SMOOTH",
"98 318 OFFCURVE",
"25 257 OFFCURVE",
"25 150 CURVE SMOOTH",
"25 43 OFFCURVE",
"110 -15 OFFCURVE",
"226 -15 CURVE SMOOTH"
);
},
{
closed = 1;
nodes = (
"231 93 OFFCURVE",
"206 114 OFFCURVE",
"206 150 CURVE SMOOTH",
"206 189 OFFCURVE",
"232 209 OFFCURVE",
"279 209 CURVE SMOOTH",
"316 209 OFFCURVE",
"349 199 OFFCURVE",
"377 180 CURVE",
"377 138 LINE",
"358 111 OFFCURVE",
"320 93 OFFCURVE",
"278 93 CURVE SMOOTH"
);
},
{
closed = 1;
nodes = (
"423 525 OFFCURVE",
"492 581 OFFCURVE",
"492 675 CURVE",
"376 675 LINE",
"376 637 OFFCURVE",
"357 621 OFFCURVE",
"319 621 CURVE SMOOTH",
"281 621 OFFCURVE",
"261 637 OFFCURVE",
"261 675 CURVE",
"146 675 LINE",
"146 581 OFFCURVE",
"215 525 OFFCURVE",
"319 525 CURVE SMOOTH"
);
},
{
closed = 1;
nodes = (
"382 697 LINE",
"452 824 LINE",
"308 824 LINE",
"258 697 LINE"
);
}
);
width = 593;
}
);
leftKerningGroup = a;
note = abreveacute;
rightKerningGroup = a;
unicode = 1EAF;
},
{
glyphname = abrevedotbelow;
lastChange = "2015-11-30 01:35:34 +0000";
layers = (
{
layerId = "16D28EA7-B5BE-4679-9A6B-BACE87874A93";
name = Bold;
paths = (
{
closed = 1;
nodes = (
"300 -15 OFFCURVE",
"354 9 OFFCURVE",
"388 41 CURVE",
"388 0 LINE",
"553 0 LINE",
"553 292 LINE SMOOTH",
"553 417 OFFCURVE",
"465 495 OFFCURVE",
"282 495 CURVE SMOOTH",
"205 495 OFFCURVE",
"131 480 OFFCURVE",
"90 461 CURVE",
"90 340 LINE",
"135 361 OFFCURVE",
"192 374 OFFCURVE",
"251 374 CURVE SMOOTH",
"333 374 OFFCURVE",
"377 349 OFFCURVE",
"377 297 CURVE SMOOTH",
"377 287 LINE",
"341 305 OFFCURVE",
"286 318 OFFCURVE",
"232 318 CURVE SMOOTH",
"98 318 OFFCURVE",
"25 257 OFFCURVE",
"25 150 CURVE SMOOTH",
"25 43 OFFCURVE",
"110 -15 OFFCURVE",
"226 -15 CURVE SMOOTH"
);
},
{
closed = 1;
nodes = (
"354 -200 OFFCURVE",
"388 -166 OFFCURVE",
"388 -123 CURVE SMOOTH",
"388 -80 OFFCURVE",
"354 -46 OFFCURVE",
"312 -46 CURVE SMOOTH",
"270 -46 OFFCURVE",
"234 -80 OFFCURVE",
"234 -123 CURVE SMOOTH",
"234 -166 OFFCURVE",
"270 -200 OFFCURVE",
"312 -200 CURVE SMOOTH"
);
},
{
closed = 1;
nodes = (
"231 93 OFFCURVE",
"206 114 OFFCURVE",
"206 150 CURVE SMOOTH",
"206 189 OFFCURVE",
"232 209 OFFCURVE",
"279 209 CURVE SMOOTH",
"316 209 OFFCURVE",
"349 199 OFFCURVE",
"377 180 CURVE",
"377 138 LINE",
"358 111 OFFCURVE",
"320 93 OFFCURVE",
"278 93 CURVE SMOOTH"
);
},
{
closed = 1;
nodes = (
"428 525 OFFCURVE",
"494 593 OFFCURVE",
"494 698 CURVE",
"363 698 LINE",
"363 657 OFFCURVE",
"344 636 OFFCURVE",
"311 636 CURVE SMOOTH",
"277 636 OFFCURVE",
"259 657 OFFCURVE",
"259 698 CURVE",
"128 698 LINE",
"128 593 OFFCURVE",
"194 525 OFFCURVE",
"311 525 CURVE SMOOTH"
);
}
);
width = 593;
}
);
leftKerningGroup = a;
note = abrevedotbelow;
rightKerningGroup = a;
unicode = 1EB7;
},
{
glyphname = abrevegrave;
lastChange = "2015-11-30 01:35:33 +0000";
layers = (
{
layerId = "16D28EA7-B5BE-4679-9A6B-BACE87874A93";
name = Bold;
paths = (
{
closed = 1;
nodes = (
"300 -15 OFFCURVE",
"354 9 OFFCURVE",
"388 41 CURVE",
"388 0 LINE",
"553 0 LINE",
"553 292 LINE SMOOTH",
"553 417 OFFCURVE",
"465 495 OFFCURVE",
"282 495 CURVE SMOOTH",
"205 495 OFFCURVE",
"131 480 OFFCURVE",
"90 461 CURVE",
"90 340 LINE",
"135 361 OFFCURVE",
"192 374 OFFCURVE",
"251 374 CURVE SMOOTH",
"333 374 OFFCURVE",
"377 349 OFFCURVE",
"377 297 CURVE SMOOTH",
"377 287 LINE",
"341 305 OFFCURVE",
"286 318 OFFCURVE",
"232 318 CURVE SMOOTH",
"98 318 OFFCURVE",
"25 257 OFFCURVE",
"25 150 CURVE SMOOTH",
"25 43 OFFCURVE",
"110 -15 OFFCURVE",
"226 -15 CURVE SMOOTH"
);
},
{
closed = 1;
nodes = (
"231 93 OFFCURVE",
"206 114 OFFCURVE",
"206 150 CURVE SMOOTH",
"206 189 OFFCURVE",
"232 209 OFFCURVE",
"279 209 CURVE SMOOTH",
"316 209 OFFCURVE",
"349 199 OFFCURVE",
"377 180 CURVE",
"377 138 LINE",
"358 111 OFFCURVE",
"320 93 OFFCURVE",
"278 93 CURVE SMOOTH"
);
},
{
closed = 1;
nodes = (
"425 523 OFFCURVE",
"494 579 OFFCURVE",
"494 673 CURVE",
"379 673 LINE",
"379 635 OFFCURVE",
"359 619 OFFCURVE",
"321 619 CURVE SMOOTH",
"283 619 OFFCURVE",
"264 635 OFFCURVE",
"264 673 CURVE",
"148 673 LINE",
"148 579 OFFCURVE",
"217 523 OFFCURVE",
"321 523 CURVE SMOOTH"
);
},
{
closed = 1;
nodes = (
"382 695 LINE",
"332 822 LINE",
"188 822 LINE",
"258 695 LINE"
);
}
);
width = 593;
}
);
leftKerningGroup = a;
note = abrevegrave;
rightKerningGroup = a;
unicode = 1EB1;
},
{
glyphname = abrevehookabove;
lastChange = "2015-11-30 01:35:33 +0000";
layers = (
{
layerId = "16D28EA7-B5BE-4679-9A6B-BACE87874A93";
name = Bold;
paths = (
{
closed = 1;
nodes = (
"300 -15 OFFCURVE",
"354 9 OFFCURVE",
"388 41 CURVE",
"388 0 LINE",
"553 0 LINE",
"553 292 LINE SMOOTH",
"553 417 OFFCURVE",
"465 495 OFFCURVE",
"282 495 CURVE SMOOTH",
"205 495 OFFCURVE",
"131 480 OFFCURVE",
"90 461 CURVE",
"90 340 LINE",
"135 361 OFFCURVE",
"192 374 OFFCURVE",
"251 374 CURVE SMOOTH",
"333 374 OFFCURVE",
"377 349 OFFCURVE",
"377 297 CURVE SMOOTH",
"377 287 LINE",
"341 305 OFFCURVE",
"286 318 OFFCURVE",
"232 318 CURVE SMOOTH",
"98 318 OFFCURVE",
"25 257 OFFCURVE",
"25 150 CURVE SMOOTH",
"25 43 OFFCURVE",
"110 -15 OFFCURVE",
"226 -15 CURVE SMOOTH"
);
},
{
closed = 1;
nodes = (
"231 93 OFFCURVE",
"206 114 OFFCURVE",
"206 150 CURVE SMOOTH",
"206 189 OFFCURVE",
"232 209 OFFCURVE",
"279 209 CURVE SMOOTH",
"316 209 OFFCURVE",
"349 199 OFFCURVE",
"377 180 CURVE",
"377 138 LINE",
"358 111 OFFCURVE",
"320 93 OFFCURVE",
"278 93 CURVE SMOOTH"
);
},
{
closed = 1;
nodes = (
"423 523 OFFCURVE",
"492 579 OFFCURVE",
"492 673 CURVE",
"377 673 LINE",
"377 635 OFFCURVE",
"357 619 OFFCURVE",
"319 619 CURVE SMOOTH",
"281 619 OFFCURVE",
"262 635 OFFCURVE",
"262 673 CURVE",
"146 673 LINE",
"146 579 OFFCURVE",
"215 523 OFFCURVE",
"319 523 CURVE SMOOTH"
);
},
{
closed = 1;
nodes = (
"377 683 LINE",
"377 702 LINE",
"418 711 OFFCURVE",
"438 734 OFFCURVE",
"438 771 CURVE SMOOTH",
"438 815 OFFCURVE",
"403 844 OFFCURVE",
"329 844 CURVE SMOOTH",
"302 844 OFFCURVE",
"265 839 OFFCURVE",
"244 832 CURVE",
"244 773 LINE",
"251 777 OFFCURVE",
"268 780 OFFCURVE",
"280 780 CURVE SMOOTH",
"307 780 OFFCURVE",
"320 774 OFFCURVE",
"320 757 CURVE SMOOTH",
"320 737 OFFCURVE",
"301 731 OFFCURVE",
"269 731 CURVE",
"269 683 LINE"
);
}
);
width = 593;
}
);
leftKerningGroup = a;
note = abrevehookabove;
rightKerningGroup = a;
unicode = 1EB3;
},
{
glyphname = abrevetilde;
lastChange = "2015-11-30 01:35:33 +0000";
layers = (
{
layerId = "16D28EA7-B5BE-4679-9A6B-BACE87874A93";
name = Bold;
paths = (
{
closed = 1;
nodes = (
"300 -15 OFFCURVE",
"354 9 OFFCURVE",
"388 41 CURVE",
"388 0 LINE",
"553 0 LINE",
"553 292 LINE SMOOTH",
"553 417 OFFCURVE",
"465 495 OFFCURVE",
"282 495 CURVE SMOOTH",
"205 495 OFFCURVE",
"131 480 OFFCURVE",
"90 461 CURVE",
"90 340 LINE",
"135 361 OFFCURVE",
"192 374 OFFCURVE",
"251 374 CURVE SMOOTH",
"333 374 OFFCURVE",
"377 349 OFFCURVE",
"377 297 CURVE SMOOTH",
"377 287 LINE",
"341 305 OFFCURVE",
"286 318 OFFCURVE",
"232 318 CURVE SMOOTH",
"98 318 OFFCURVE",
"25 257 OFFCURVE",
"25 150 CURVE SMOOTH",
"25 43 OFFCURVE",
"110 -15 OFFCURVE",
"226 -15 CURVE SMOOTH"
);
},
{
closed = 1;
nodes = (
"231 93 OFFCURVE",
"206 114 OFFCURVE",
"206 150 CURVE SMOOTH",
"206 189 OFFCURVE",
"232 209 OFFCURVE",
"279 209 CURVE SMOOTH",
"316 209 OFFCURVE",
"349 199 OFFCURVE",
"377 180 CURVE",
"377 138 LINE",
"358 111 OFFCURVE",
"320 93 OFFCURVE",
"278 93 CURVE SMOOTH"
);
},
{
closed = 1;
nodes = (
"432 525 OFFCURVE",
"501 581 OFFCURVE",
"501 675 CURVE",
"386 675 LINE",
"386 637 OFFCURVE",
"366 621 OFFCURVE",
"328 621 CURVE SMOOTH",
"290 621 OFFCURVE",
"271 637 OFFCURVE",
"271 675 CURVE",
"155 675 LINE",
"155 581 OFFCURVE",
"224 525 OFFCURVE",
"328 525 CURVE SMOOTH"
);
},
{
closed = 1;
nodes = (
"444 705 OFFCURVE",
"472 715 OFFCURVE",
"491 738 CURVE",
"491 840 LINE",
"467 811 OFFCURVE",
"440 799 OFFCURVE",
"408 799 CURVE SMOOTH",
"357 799 OFFCURVE",
"301 841 OFFCURVE",
"248 841 CURVE SMOOTH",
"212 841 OFFCURVE",
"184 831 OFFCURVE",
"165 807 CURVE",
"165 706 LINE",
"189 735 OFFCURVE",
"216 747 OFFCURVE",
"248 747 CURVE SMOOTH",
"298 747 OFFCURVE",
"351 705 OFFCURVE",
"408 705 CURVE SMOOTH"
);
}
);
width = 593;
}
);
leftKerningGroup = a;
note = abrevetilde;
rightKerningGroup = a;
unicode = 1EB5;
},
{
glyphname = acaron;
lastChange = "2015-11-30 01:35:33 +0000";
layers = (
{
layerId = "16D28EA7-B5BE-4679-9A6B-BACE87874A93";
name = Bold;
paths = (
{
closed = 1;
nodes = (
"300 -15 OFFCURVE",
"354 9 OFFCURVE",
"388 41 CURVE",
"388 0 LINE",
"553 0 LINE",
"553 292 LINE SMOOTH",
"553 417 OFFCURVE",
"465 495 OFFCURVE",
"282 495 CURVE SMOOTH",
"205 495 OFFCURVE",
"131 480 OFFCURVE",
"90 461 CURVE",
"90 340 LINE",
"135 361 OFFCURVE",
"192 374 OFFCURVE",
"251 374 CURVE SMOOTH",
"333 374 OFFCURVE",
"377 349 OFFCURVE",
"377 297 CURVE SMOOTH",
"377 287 LINE",
"341 305 OFFCURVE",
"286 318 OFFCURVE",
"232 318 CURVE SMOOTH",
"98 318 OFFCURVE",
"25 257 OFFCURVE",
"25 150 CURVE SMOOTH",
"25 43 OFFCURVE",
"110 -15 OFFCURVE",
"226 -15 CURVE SMOOTH"
);
},
{
closed = 1;
nodes = (
"231 93 OFFCURVE",
"206 114 OFFCURVE",
"206 150 CURVE SMOOTH",
"206 189 OFFCURVE",
"232 209 OFFCURVE",
"279 209 CURVE SMOOTH",
"316 209 OFFCURVE",
"349 199 OFFCURVE",
"377 180 CURVE",
"377 138 LINE",
"358 111 OFFCURVE",
"320 93 OFFCURVE",
"278 93 CURVE SMOOTH"
);
},
{
closed = 1;
nodes = (
"412 525 LINE",
"568 706 LINE",
"394 706 LINE",
"334 621 LINE",
"274 706 LINE",
"99 706 LINE",
"255 525 LINE"
);
}
);
width = 608;
}
);
leftKerningGroup = a;
note = acaron;
rightKerningGroup = a;
unicode = 01CE;
},
{
glyphname = acircumflex;
lastChange = "2015-11-30 01:35:33 +0000";
layers = (
{
layerId = "16D28EA7-B5BE-4679-9A6B-BACE87874A93";
name = Bold;
paths = (
{
closed = 1;
nodes = (
"300 -15 OFFCURVE",
"354 9 OFFCURVE",
"388 41 CURVE",
"388 0 LINE",
"553 0 LINE",
"553 292 LINE SMOOTH",
"553 417 OFFCURVE",
"465 495 OFFCURVE",
"282 495 CURVE SMOOTH",
"205 495 OFFCURVE",
"131 480 OFFCURVE",
"90 461 CURVE",
"90 340 LINE",
"135 361 OFFCURVE",
"192 374 OFFCURVE",
"251 374 CURVE SMOOTH",
"333 374 OFFCURVE",
"377 349 OFFCURVE",
"377 297 CURVE SMOOTH",
"377 287 LINE",
"341 305 OFFCURVE",
"286 318 OFFCURVE",
"232 318 CURVE SMOOTH",
"98 318 OFFCURVE",
"25 257 OFFCURVE",
"25 150 CURVE SMOOTH",
"25 43 OFFCURVE",
"110 -15 OFFCURVE",
"226 -15 CURVE SMOOTH"
);
},
{
closed = 1;
nodes = (
"231 93 OFFCURVE",
"206 114 OFFCURVE",
"206 150 CURVE SMOOTH",
"206 189 OFFCURVE",
"232 209 OFFCURVE",
"279 209 CURVE SMOOTH",
"316 209 OFFCURVE",
"349 199 OFFCURVE",
"377 180 CURVE",
"377 138 LINE",
"358 111 OFFCURVE",
"320 93 OFFCURVE",
"278 93 CURVE SMOOTH"
);
},
{
closed = 1;
nodes = (
"260 525 LINE",
"320 610 LINE",
"380 525 LINE",
"554 525 LINE",
"398 706 LINE",
"241 706 LINE",
"85 525 LINE"
);
}
);
width = 594;
}
);
leftKerningGroup = a;
note = acircumflex;
rightKerningGroup = a;
unicode = 00E2;
},
{
glyphname = acircumflexacute;
lastChange = "2015-11-30 01:35:33 +0000";
layers = (
{
layerId = "16D28EA7-B5BE-4679-9A6B-BACE87874A93";
name = Bold;
paths = (
{
closed = 1;
nodes = (
"300 -15 OFFCURVE",
"354 9 OFFCURVE",
"388 41 CURVE",
"388 0 LINE",
"553 0 LINE",
"553 292 LINE SMOOTH",
"553 417 OFFCURVE",
"465 495 OFFCURVE",
"282 495 CURVE SMOOTH",
"205 495 OFFCURVE",
"131 480 OFFCURVE",
"90 461 CURVE",
"90 340 LINE",
"135 361 OFFCURVE",
"192 374 OFFCURVE",
"251 374 CURVE SMOOTH",
"333 374 OFFCURVE",
"377 349 OFFCURVE",
"377 297 CURVE SMOOTH",
"377 287 LINE",
"341 305 OFFCURVE",
"286 318 OFFCURVE",
"232 318 CURVE SMOOTH",
"98 318 OFFCURVE",
"25 257 OFFCURVE",
"25 150 CURVE SMOOTH",
"25 43 OFFCURVE",
"110 -15 OFFCURVE",
"226 -15 CURVE SMOOTH"
);
},
{
closed = 1;
nodes = (
"231 93 OFFCURVE",
"206 114 OFFCURVE",
"206 150 CURVE SMOOTH",
"206 189 OFFCURVE",
"232 209 OFFCURVE",
"279 209 CURVE SMOOTH",
"316 209 OFFCURVE",
"349 199 OFFCURVE",
"377 180 CURVE",
"377 138 LINE",
"358 111 OFFCURVE",
"320 93 OFFCURVE",
"278 93 CURVE SMOOTH"
);
},
{
closed = 1;
nodes = (
"262 525 LINE",
"320 592 LINE",
"378 525 LINE",
"534 525 LINE",
"382 682 LINE",
"258 682 LINE",
"106 525 LINE"
);
},
{
closed = 1;
nodes = (
"589 641 LINE",
"670 780 LINE",
"508 780 LINE",
"449 641 LINE"
);
}
);
width = 579;
}
);
leftKerningGroup = a;
note = acircumflexacute;
rightKerningGroup = a;
unicode = 1EA5;
},
{
glyphname = acircumflexdotbelow;
lastChange = "2015-11-30 01:35:33 +0000";
layers = (
{
layerId = "16D28EA7-B5BE-4679-9A6B-BACE87874A93";
name = Bold;
paths = (
{
closed = 1;
nodes = (
"300 -15 OFFCURVE",
"354 9 OFFCURVE",
"388 41 CURVE",
"388 0 LINE",
"553 0 LINE",
"553 292 LINE SMOOTH",
"553 417 OFFCURVE",
"465 495 OFFCURVE",
"282 495 CURVE SMOOTH",
"205 495 OFFCURVE",
"131 480 OFFCURVE",
"90 461 CURVE",
"90 340 LINE",
"135 361 OFFCURVE",
"192 374 OFFCURVE",
"251 374 CURVE SMOOTH",
"333 374 OFFCURVE",
"377 349 OFFCURVE",
"377 297 CURVE SMOOTH",
"377 287 LINE",
"341 305 OFFCURVE",
"286 318 OFFCURVE",
"232 318 CURVE SMOOTH",
"98 318 OFFCURVE",
"25 257 OFFCURVE",
"25 150 CURVE SMOOTH",
"25 43 OFFCURVE",
"110 -15 OFFCURVE",
"226 -15 CURVE SMOOTH"
);
},
{
closed = 1;
nodes = (
"355 -200 OFFCURVE",
"389 -166 OFFCURVE",
"389 -123 CURVE SMOOTH",
"389 -80 OFFCURVE",
"355 -46 OFFCURVE",
"313 -46 CURVE SMOOTH",
"271 -46 OFFCURVE",
"235 -80 OFFCURVE",
"235 -123 CURVE SMOOTH",
"235 -166 OFFCURVE",
"271 -200 OFFCURVE",
"313 -200 CURVE SMOOTH"
);
},
{
closed = 1;
nodes = (
"231 93 OFFCURVE",
"206 114 OFFCURVE",
"206 150 CURVE SMOOTH",
"206 189 OFFCURVE",
"232 209 OFFCURVE",
"279 209 CURVE SMOOTH",
"316 209 OFFCURVE",
"349 199 OFFCURVE",
"377 180 CURVE",
"377 138 LINE",
"358 111 OFFCURVE",
"320 93 OFFCURVE",
"278 93 CURVE SMOOTH"
);
},
{
closed = 1;
nodes = (
"247 525 LINE",
"307 610 LINE",
"367 525 LINE",
"541 525 LINE",
"385 706 LINE",
"228 706 LINE",
"72 525 LINE"
);
}
);
width = 593;
}
);
leftKerningGroup = a;
note = acircumflexdotbelow;
rightKerningGroup = a;
unicode = 1EAD;
},
{
glyphname = acircumflexgrave;
lastChange = "2015-11-30 01:35:33 +0000";
layers = (
{
layerId = "16D28EA7-B5BE-4679-9A6B-BACE87874A93";
name = Bold;
paths = (
{
closed = 1;
nodes = (
"256 -15 OFFCURVE",
"310 9 OFFCURVE",
"344 41 CURVE",
"344 0 LINE",
"509 0 LINE",
"509 292 LINE SMOOTH",
"509 417 OFFCURVE",
"421 495 OFFCURVE",
"238 495 CURVE SMOOTH",
"161 495 OFFCURVE",
"87 480 OFFCURVE",
"46 461 CURVE",
"46 340 LINE",
"91 361 OFFCURVE",
"148 374 OFFCURVE",
"207 374 CURVE SMOOTH",
"289 374 OFFCURVE",
"333 349 OFFCURVE",
"333 297 CURVE SMOOTH",
"333 287 LINE",
"297 305 OFFCURVE",
"242 318 OFFCURVE",
"188 318 CURVE SMOOTH",
"54 318 OFFCURVE",
"-19 257 OFFCURVE",
"-19 150 CURVE SMOOTH",
"-19 43 OFFCURVE",
"66 -15 OFFCURVE",
"182 -15 CURVE SMOOTH"
);
},
{
closed = 1;
nodes = (
"187 93 OFFCURVE",
"162 114 OFFCURVE",
"162 150 CURVE SMOOTH",
"162 189 OFFCURVE",
"188 209 OFFCURVE",
"235 209 CURVE SMOOTH",
"272 209 OFFCURVE",
"305 199 OFFCURVE",
"333 180 CURVE",
"333 138 LINE",
"314 111 OFFCURVE",
"276 93 OFFCURVE",
"234 93 CURVE SMOOTH"
);
},
{
closed = 1;
nodes = (
"146 641 LINE",
"87 780 LINE",
"-75 780 LINE",
"6 641 LINE"
);
},
{
closed = 1;
nodes = (
"217 525 LINE",
"275 592 LINE",
"333 525 LINE",
"489 525 LINE",
"337 682 LINE",
"213 682 LINE",
"61 525 LINE"
);
}
);
width = 549;
}
);
leftKerningGroup = a;
note = acircumflexgrave;
rightKerningGroup = a;
unicode = 1EA7;
},
{
glyphname = acircumflexhookabove;
lastChange = "2015-11-30 01:35:33 +0000";
layers = (
{
layerId = "16D28EA7-B5BE-4679-9A6B-BACE87874A93";
name = Bold;
paths = (
{
closed = 1;
nodes = (
"300 -15 OFFCURVE",
"354 9 OFFCURVE",
"388 41 CURVE",
"388 0 LINE",
"553 0 LINE",
"553 292 LINE SMOOTH",
"553 417 OFFCURVE",
"465 495 OFFCURVE",
"282 495 CURVE SMOOTH",
"205 495 OFFCURVE",
"131 480 OFFCURVE",
"90 461 CURVE",
"90 340 LINE",
"135 361 OFFCURVE",
"192 374 OFFCURVE",
"251 374 CURVE SMOOTH",
"333 374 OFFCURVE",
"377 349 OFFCURVE",
"377 297 CURVE SMOOTH",
"377 287 LINE",
"341 305 OFFCURVE",
"286 318 OFFCURVE",
"232 318 CURVE SMOOTH",
"98 318 OFFCURVE",
"25 257 OFFCURVE",
"25 150 CURVE SMOOTH",
"25 43 OFFCURVE",
"110 -15 OFFCURVE",
"226 -15 CURVE SMOOTH"
);
},
{
closed = 1;
nodes = (
"231 93 OFFCURVE",
"206 114 OFFCURVE",
"206 150 CURVE SMOOTH",
"206 189 OFFCURVE",
"232 209 OFFCURVE",
"279 209 CURVE SMOOTH",
"316 209 OFFCURVE",
"349 199 OFFCURVE",
"377 180 CURVE",
"377 138 LINE",
"358 111 OFFCURVE",
"320 93 OFFCURVE",
"278 93 CURVE SMOOTH"
);
},
{
closed = 1;
nodes = (
"254 525 LINE",
"312 592 LINE",
"370 525 LINE",
"526 525 LINE",
"374 682 LINE",
"250 682 LINE",
"98 525 LINE"
);
},
{
closed = 1;
nodes = (
"552 630 LINE",
"552 655 LINE",
"590 664 OFFCURVE",
"613 687 OFFCURVE",
"613 720 CURVE SMOOTH",
"613 764 OFFCURVE",
"575 794 OFFCURVE",
"505 794 CURVE SMOOTH",
"478 794 OFFCURVE",
"440 788 OFFCURVE",
"419 782 CURVE",
"419 723 LINE",
"428 727 OFFCURVE",
"444 730 OFFCURVE",
"456 730 CURVE SMOOTH",
"483 730 OFFCURVE",
"496 723 OFFCURVE",
"496 707 CURVE SMOOTH",
"496 687 OFFCURVE",
"477 681 OFFCURVE",
"444 681 CURVE",
"444 630 LINE"
);
}
);
width = 608;
}
);
leftKerningGroup = a;
note = acircumflexhookabove;
rightKerningGroup = a;
unicode = 1EA9;
},
{
glyphname = acircumflextilde;
lastChange = "2015-11-30 01:35:33 +0000";
layers = (
{
layerId = "16D28EA7-B5BE-4679-9A6B-BACE87874A93";
name = Bold;
paths = (
{
closed = 1;
nodes = (
"300 -15 OFFCURVE",
"354 9 OFFCURVE",
"388 41 CURVE",
"388 0 LINE",
"553 0 LINE",
"553 292 LINE SMOOTH",
"553 417 OFFCURVE",
"465 495 OFFCURVE",
"282 495 CURVE SMOOTH",
"205 495 OFFCURVE",
"131 480 OFFCURVE",
"90 461 CURVE",
"90 340 LINE",
"135 361 OFFCURVE",
"192 374 OFFCURVE",
"251 374 CURVE SMOOTH",
"333 374 OFFCURVE",
"377 349 OFFCURVE",
"377 297 CURVE SMOOTH",
"377 287 LINE",
"341 305 OFFCURVE",
"286 318 OFFCURVE",
"232 318 CURVE SMOOTH",
"98 318 OFFCURVE",
"25 257 OFFCURVE",
"25 150 CURVE SMOOTH",
"25 43 OFFCURVE",
"110 -15 OFFCURVE",
"226 -15 CURVE SMOOTH"
);
},
{
closed = 1;
nodes = (
"231 93 OFFCURVE",
"206 114 OFFCURVE",
"206 150 CURVE SMOOTH",
"206 189 OFFCURVE",
"232 209 OFFCURVE",
"279 209 CURVE SMOOTH",
"316 209 OFFCURVE",
"349 199 OFFCURVE",
"377 180 CURVE",
"377 138 LINE",
"358 111 OFFCURVE",
"320 93 OFFCURVE",
"278 93 CURVE SMOOTH"
);
},
{
closed = 1;
nodes = (
"259 525 LINE",
"317 592 LINE",
"375 525 LINE",
"531 525 LINE",
"379 682 LINE",
"255 682 LINE",
"103 525 LINE"
);
},
{
closed = 1;
nodes = (
"440 693 OFFCURVE",
"468 703 OFFCURVE",
"487 726 CURVE",
"487 828 LINE",
"464 799 OFFCURVE",
"436 787 OFFCURVE",
"404 787 CURVE SMOOTH",
"354 787 OFFCURVE",
"297 829 OFFCURVE",
"245 829 CURVE SMOOTH",
"209 829 OFFCURVE",
"181 819 OFFCURVE",
"162 795 CURVE",
"162 694 LINE",
"186 723 OFFCURVE",
"213 735 OFFCURVE",
"245 735 CURVE SMOOTH",
"294 735 OFFCURVE",
"348 693 OFFCURVE",
"404 693 CURVE SMOOTH"
);
}
);
width = 593;
}
);
leftKerningGroup = a;
note = acircumflextilde;
rightKerningGroup = a;
unicode = 1EAB;
},
{
glyphname = adieresis;
lastChange = "2015-11-30 01:35:33 +0000";
layers = (
{
layerId = "16D28EA7-B5BE-4679-9A6B-BACE87874A93";
name = Bold;
paths = (
{
closed = 1;
nodes = (
"300 -15 OFFCURVE",
"354 9 OFFCURVE",
"388 41 CURVE",
"388 0 LINE",
"553 0 LINE",
"553 292 LINE SMOOTH",
"553 417 OFFCURVE",
"465 495 OFFCURVE",
"282 495 CURVE SMOOTH",
"205 495 OFFCURVE",
"131 480 OFFCURVE",
"90 461 CURVE",
"90 340 LINE",
"135 361 OFFCURVE",
"192 374 OFFCURVE",
"251 374 CURVE SMOOTH",
"333 374 OFFCURVE",
"377 349 OFFCURVE",
"377 297 CURVE SMOOTH",
"377 287 LINE",
"341 305 OFFCURVE",
"286 318 OFFCURVE",
"232 318 CURVE SMOOTH",
"98 318 OFFCURVE",
"25 257 OFFCURVE",
"25 150 CURVE SMOOTH",
"25 43 OFFCURVE",
"110 -15 OFFCURVE",
"226 -15 CURVE SMOOTH"
);
},
{
closed = 1;
nodes = (
"231 93 OFFCURVE",
"206 114 OFFCURVE",
"206 150 CURVE SMOOTH",
"206 189 OFFCURVE",
"232 209 OFFCURVE",
"279 209 CURVE SMOOTH",
"316 209 OFFCURVE",
"349 199 OFFCURVE",
"377 180 CURVE",
"377 138 LINE",
"358 111 OFFCURVE",
"320 93 OFFCURVE",
"278 93 CURVE SMOOTH"
);
},
{
closed = 1;
nodes = (
"236 521 OFFCURVE",
"270 554 OFFCURVE",
"270 597 CURVE SMOOTH",
"270 640 OFFCURVE",
"236 675 OFFCURVE",
"194 675 CURVE SMOOTH",
"152 675 OFFCURVE",
"116 640 OFFCURVE",
"116 597 CURVE SMOOTH",
"116 554 OFFCURVE",
"152 521 OFFCURVE",
"194 521 CURVE SMOOTH"
);
},
{
closed = 1;
nodes = (
"471 521 OFFCURVE",
"506 554 OFFCURVE",
"506 597 CURVE SMOOTH",
"506 640 OFFCURVE",
"471 675 OFFCURVE",
"430 675 CURVE SMOOTH",
"388 675 OFFCURVE",
"352 640 OFFCURVE",
"352 597 CURVE SMOOTH",
"352 554 OFFCURVE",
"388 521 OFFCURVE",
"430 521 CURVE SMOOTH"
);
}
);
width = 593;
}
);
leftKerningGroup = a;
note = adieresis;
rightKerningGroup = a;
unicode = 00E4;
},
{
glyphname = adotbelow;
lastChange = "2015-11-30 01:35:34 +0000";
layers = (
{
layerId = "16D28EA7-B5BE-4679-9A6B-BACE87874A93";
name = Bold;
paths = (
{
closed = 1;
nodes = (
"300 -15 OFFCURVE",
"354 9 OFFCURVE",
"388 41 CURVE",
"388 0 LINE",
"553 0 LINE",
"553 292 LINE SMOOTH",
"553 417 OFFCURVE",
"465 495 OFFCURVE",
"282 495 CURVE SMOOTH",
"205 495 OFFCURVE",
"131 480 OFFCURVE",
"90 461 CURVE",
"90 340 LINE",
"135 361 OFFCURVE",
"192 374 OFFCURVE",
"251 374 CURVE SMOOTH",
"333 374 OFFCURVE",
"377 349 OFFCURVE",
"377 297 CURVE SMOOTH",
"377 287 LINE",
"341 305 OFFCURVE",
"286 318 OFFCURVE",
"232 318 CURVE SMOOTH",
"98 318 OFFCURVE",
"25 257 OFFCURVE",
"25 150 CURVE SMOOTH",
"25 43 OFFCURVE",
"110 -15 OFFCURVE",
"226 -15 CURVE SMOOTH"
);
},
{
closed = 1;
nodes = (
"357 -200 OFFCURVE",
"391 -166 OFFCURVE",
"391 -123 CURVE SMOOTH",
"391 -80 OFFCURVE",
"357 -46 OFFCURVE",
"315 -46 CURVE SMOOTH",
"273 -46 OFFCURVE",
"237 -80 OFFCURVE",
"237 -123 CURVE SMOOTH",
"237 -166 OFFCURVE",
"273 -200 OFFCURVE",
"315 -200 CURVE SMOOTH"
);
},
{
closed = 1;
nodes = (
"231 93 OFFCURVE",
"206 114 OFFCURVE",
"206 150 CURVE SMOOTH",
"206 189 OFFCURVE",
"232 209 OFFCURVE",
"279 209 CURVE SMOOTH",
"316 209 OFFCURVE",
"349 199 OFFCURVE",
"377 180 CURVE",
"377 138 LINE",
"358 111 OFFCURVE",
"320 93 OFFCURVE",
"278 93 CURVE SMOOTH"
);
}
);
width = 593;
}
);
leftKerningGroup = a;
note = adotbelow;
rightKerningGroup = a;
unicode = 1EA1;
},
{
glyphname = agrave;
lastChange = "2015-11-30 01:35:33 +0000";
layers = (
{
layerId = "16D28EA7-B5BE-4679-9A6B-BACE87874A93";
name = Bold;
paths = (
{
closed = 1;
nodes = (
"300 -15 OFFCURVE",
"354 9 OFFCURVE",
"388 41 CURVE",
"388 0 LINE",
"553 0 LINE",
"553 292 LINE SMOOTH",
"553 417 OFFCURVE",
"465 495 OFFCURVE",
"282 495 CURVE SMOOTH",
"205 495 OFFCURVE",
"131 480 OFFCURVE",
"90 461 CURVE",
"90 340 LINE",
"135 361 OFFCURVE",
"192 374 OFFCURVE",
"251 374 CURVE SMOOTH",
"333 374 OFFCURVE",
"377 349 OFFCURVE",
"377 297 CURVE SMOOTH",
"377 287 LINE",
"341 305 OFFCURVE",
"286 318 OFFCURVE",
"232 318 CURVE SMOOTH",
"98 318 OFFCURVE",
"25 257 OFFCURVE",
"25 150 CURVE SMOOTH",
"25 43 OFFCURVE",
"110 -15 OFFCURVE",
"226 -15 CURVE SMOOTH"
);
},
{
closed = 1;
nodes = (
"231 93 OFFCURVE",
"206 114 OFFCURVE",
"206 150 CURVE SMOOTH",
"206 189 OFFCURVE",
"232 209 OFFCURVE",
"279 209 CURVE SMOOTH",
"316 209 OFFCURVE",
"349 199 OFFCURVE",
"377 180 CURVE",
"377 138 LINE",
"358 111 OFFCURVE",
"320 93 OFFCURVE",
"278 93 CURVE SMOOTH"
);
},
{
closed = 1;
nodes = (
"424 518 LINE",
"355 696 LINE",
"170 696 LINE",
"261 518 LINE"
);
}
);
width = 593;
}
);
leftKerningGroup = a;
note = agrave;
rightKerningGroup = a;
unicode = 00E0;
},
